<svg id="Layer_1" data-name="Layer 1" xmlns="http://www.w3.org/2000/svg" xmlns:xlink="http://www.w3.org/1999/xlink" viewBox="0 0 433 304"><defs><clipPath id="clip-path"><rect x="31.29" y="245.19" width="49" height="52.5" style="fill:none"/></clipPath><clipPath id="clip-path-2"><rect x="52.1" y="6" width="327.38" height="267.19" style="fill:none"/></clipPath></defs><path d="M44.29,294c50.54-1.79,177.25-28.13,231.89-103,65.9-90.32,89.19-118.64,153.11-153.79" style="fill:none;stroke:#ebe2d4;stroke-linecap:round;stroke-width:4px;stroke-dasharray:20,20"/><g style="clip-path:url(#clip-path)"><path d="M48.29,297.69c9.39,0,17-2.24,17-5s-7.61-5-17-5-17,2.24-17,5S38.9,297.69,48.29,297.69Z" style="fill:#ce5737"/><path d="M48.29,266.59V245.87l32,10.36Z" style="fill:#ce5737"/><path d="M48.29,247.69v40" style="fill:none;stroke:#ebe2d4;stroke-linecap:round;stroke-linejoin:round;stroke-width:5px"/></g><g style="clip-path:url(#clip-path-2)"><path d="M129.83,205.08,52.1,218.73,89.4,19.65,167.13,6Z" style="fill:#e3e3e3"/><path d="M60.49,209.71,95.23,24.27l70.61-11.43L131.1,198.27Z" style="fill:#73b4b2"/><path d="M193.75,264.37l-64.06-59.31L167,6l64.05,59.31Z" style="fill:#b3b3b3"/><path d="M165.4,12.77,130.66,198.18,195,257.55,229.71,72.12Z" style="fill:#629997"/><path d="M230.92,65.3l81.17-32L274.81,232.32l-81.17,32Z" style="fill:#e3e3e3"/><path d="M229.71,72.12,195,257.55l81.46-32.17L311.16,40Z" style="fill:#73b4b2"/><path d="M274.67,232.28l67.51,40.91,37.3-199.06L312,33.22Z" style="fill:#b3b3b3"/><path d="M337.61,261.76,372.36,76.33,310.69,40.05,275.94,225.48Z" style="fill:#629997"/><path d="M136.13,41.13,102.58,54.6,99.91,68.92l7.4,55.73,38.89-9.35,12.2-65.11Z" style="fill:#add660"/><path d="M174.91,108.44l5.79-25.76L168.49,54.26l-9.43-3.85-12.14,64.82Z" style="fill:#8eb04f"/><path d="M188.09,150.39l-26.3,27.53,14.63,53.57,23.43,0,13-69.23Z" style="fill:#8eb04f"/><path d="M229.4,231.54l43.25-23.62,5.6-30-11.91-30.47-47.09,18-6.43-3.09-13,69.17Z" style="fill:#add660"/><path d="M289.73,89.73,274.81,120.1l18.33,12.32L301,90.24Z" style="fill:#add660"/><path d="M305.67,140.72l26.43,5.67,25.38-37.57-3.34-16.15L301.73,90.3l-8,42.44Z" style="fill:#8eb04f"/><path d="M301.71,90.34l-.68-.1-7.89,42.18.66.19Z" style="fill:#73b4b2"/><path d="M235.12,99.7,257.52,82l12.19,8.23L260.51,109Z" style="fill:#add660"/><path d="M164.65,135.41l18-13.47,8.6,11.41Z" style="fill:#8eb04f"/><path d="M183,186.45s2.29,23.67,11.86,24.05S232.36,181,243.6,183.62s20.51,16.23,20.51,16.23" style="fill:none;stroke:#000;stroke-linecap:round;stroke-linejoin:round;stroke-dasharray:2,4"/><path d="M230.2,181.6c.55-2.91-1-5.64-3.4-6.1S222,177,221.42,180s1,5.64,3.4,6.1S229.65,184.51,230.2,181.6Z" style="fill:#ff6650"/><path d="M251.49,203.78c.54-2.91-1-5.64-3.41-6.1s-4.83,1.54-5.38,4.45,1,5.64,3.41,6.1S250.94,206.69,251.49,203.78Z" style="fill:#ff6650"/><path d="M270.59,189.17c.55-2.91-1-5.64-3.4-6.1s-4.84,1.54-5.38,4.45,1,5.64,3.4,6.1S270.05,192.08,270.59,189.17Z" style="fill:#ff6650"/><path d="M190.48,199.59c.54-2.91-1-5.64-3.41-6.09s-4.83,1.53-5.38,4.45,1,5.64,3.41,6.09S189.93,202.51,190.48,199.59Z" style="fill:#ff6650"/></g></svg>