<svg id="Layer_1" data-name="Layer 1" xmlns="http://www.w3.org/2000/svg" xmlns:xlink="http://www.w3.org/1999/xlink" viewBox="0 0 433 300"><defs><clipPath id="clip-path"><rect x="364.79" y="245.19" width="49" height="52.5" style="fill:none"/></clipPath><mask id="mask" x="72.96" y="13.72" width="310.16" height="176.57" maskUnits="userSpaceOnUse"><g id="mask0_0_1" data-name="mask0 0 1"><path d="M210.57,189a3.62,3.62,0,0,1-1,.06L73,163.25,245.07,19.11l.43-.08a3.09,3.09,0,0,1,1.05,0L383.12,44.8,211,188.94Z" style="fill:#fff"/></g></mask><radialGradient id="radial-gradient" cx="-171.36" cy="-946.9" r="1" gradientTransform="matrix(11.63, -2.01, -1.03, -5.94, 1137.41, -5770.44)" gradientUnits="userSpaceOnUse"><stop offset="0.01" stop-color="#242136"/><stop offset="1" stop-color="#19181e"/></radialGradient></defs><path d="M.29,31.22c51-1.83,134.09,71.63,184.5,151.5,71,112.5,184,111,248,111" style="fill:none;stroke:#ebe2d4;stroke-linecap:round;stroke-width:4px;stroke-dasharray:18,18"/><g style="clip-path:url(#clip-path)"><path d="M381.79,297.69c9.39,0,17-2.24,17-5s-7.61-5-17-5-17,2.24-17,5S372.4,297.69,381.79,297.69Z" style="fill:#ce5737"/><path d="M381.79,266.59V245.87l32,10.36Z" style="fill:#ce5737"/><path d="M381.79,247.69v40" style="fill:none;stroke:#ebe2d4;stroke-linecap:round;stroke-linejoin:round;stroke-width:5px"/></g><path d="M401.84,41.61c-.14-.81-1.13-1.41-2.78-1.8L249.71,11.58a11.32,11.32,0,0,0-8.19,1.67L25.67,191.65a1.85,1.85,0,0,0-.86,1.75c.12.53,2.91,16.83,3,17.42s1.18,1.4,2.75,1.72L180,240.84a11.19,11.19,0,0,0,8.2-1.68L404,60.76a1.85,1.85,0,0,0,.69-.75,1.93,1.93,0,0,0,.2-1C404.71,58.18,402,42.18,401.84,41.61Z" style="fill:#ebe2d4"/><path d="M401.84,41.61c-.14-.81-1.13-1.41-2.78-1.8L249.71,11.58a11.32,11.32,0,0,0-8.19,1.67L25.67,191.65a1.85,1.85,0,0,0-.86,1.75c.12.53,2.91,16.83,3,17.42s1.18,1.4,2.75,1.72L180,240.84a11.19,11.19,0,0,0,8.2-1.68L404,60.76a1.85,1.85,0,0,0,.69-.75,1.93,1.93,0,0,0,.2-1C404.71,58.18,402,42.18,401.84,41.61Z" style="fill:#d8cab6"/><path d="M401.84,41.61c-.14-.81-1.13-1.41-2.78-1.8L249.71,11.58a11.32,11.32,0,0,0-8.19,1.67L25.67,191.65a1.85,1.85,0,0,0-.86,1.75c.12.53,152.14,29.44,152.14,29.44a11.19,11.19,0,0,0,8.2-1.68S402,42.18,401.84,41.61Z" style="fill:#ebe2d4"/><path d="M210.15,189.08a4,4,0,0,1-1,0L72.54,163.32,244.63,19.18l.44-.07a3.15,3.15,0,0,1,1.06-.05L382.7,44.87,210.59,189Z" style="fill:#19181e"/><g style="mask:url(#mask)"><path d="M275.16,17c.85.33-12,52.87-12,52.87L125.63,187.63" style="fill:none;stroke:#c17563;stroke-miterlimit:10;stroke-width:7px"/><path d="M204.46,120.05l0,27.34,48.59,13.81" style="fill:none;stroke:#c17563;stroke-miterlimit:10;stroke-width:7px"/><path d="M235,93.93l-85.85-22" style="fill:none;stroke:#c17563;stroke-miterlimit:10;stroke-width:7px"/><path d="M182.06,139.22,87,114.28" style="fill:none;stroke:#c17563;stroke-miterlimit:10;stroke-width:7px"/><path d="M263.18,69.85,372.67,87.9" style="fill:none;stroke:#c17563;stroke-miterlimit:10;stroke-width:7px"/></g><path d="M262.6,3.58c-2.41-.09-5.64,2-7.15,3.55-2.15,2.22-2,4.62-1.27,8.79,1,5.53,10.37,22.27,14.36,29.22.32,1.82.71,4.1.71,4.1l1.12-1.06s6.33-24.33,5.11-31.37S268.46,3.84,262.6,3.58ZM266,23.2c-3.08-.13-6.09-3.23-6.72-6.86s1.32-6.65,4.41-6.48,6.11,3.25,6.75,7S269.08,23.34,266,23.2Z" style="fill:#0c6d11"/><path d="M261.48,4.66c-5.87-.25-9.63,5.26-8.41,12.32S269.2,49.25,269.2,49.25s6.33-24.32,5.11-31.37S267.35,4.9,261.48,4.66Zm3.4,19.61c-3.09-.14-6.11-3.24-6.75-6.95s1.33-6.65,4.43-6.48,6.09,3.25,6.73,7S268,24.4,264.88,24.27Z" style="fill:#347c1c"/><path d="M179,101.68a9.73,9.73,0,0,0-5.91,2.94c-1.77,1.91-1.63,3.79-1,7.24.79,4.56,8.56,18.38,11.84,24.1.27,1.56.59,3.38.59,3.38l.92-.86s5.23-20.09,4.22-25.9S183.88,101.89,179,101.68Zm2.8,16.19c-2.54-.11-5-2.68-5.56-5.73s1.11-5.45,3.64-5.35,5,2.68,5.56,5.73S184.39,118,181.84,117.87Z" style="fill:#0c6d11"/><path d="M178.12,102.56c-4.85-.2-8,4.35-7,10.18s13.31,26.58,13.31,26.58,5.23-20.07,4.23-25.88S183,102.77,178.12,102.56Zm2.8,16.18c-2.54-.11-5-2.66-5.56-5.72s1.11-5.45,3.64-5.35,5,2.68,5.56,5.73-1.11,5.46-3.65,5.32Z" style="fill:#347c1c"/><path d="M253.84,55.44a6.06,6.06,0,0,0-3.75,1.85c-1.14,1.18-1.05,2.43-.68,4.61.51,2.91,5.45,11.72,7.48,15.38.16,1,.37,2.16.37,2.16l.59-.56s3.32-12.79,2.68-16.51S256.93,55.56,253.84,55.44Zm1.78,10.29a4.23,4.23,0,0,1-2.37-1.23,4.36,4.36,0,0,1-1.18-2.42c-.33-1.93.7-3.46,2.34-3.39a4.28,4.28,0,0,1,3.53,3.64c.34,2-.7,3.48-2.33,3.34Z" style="fill:#a53920"/><path d="M253.28,56c-3.08-.12-5.07,2.77-4.43,6.48s8.49,17,8.49,17,3.33-12.79,2.69-16.51S256.33,56.11,253.28,56Zm1.78,10.32a4.33,4.33,0,0,1-3.55-3.66c-.33-1.94.72-3.47,2.33-3.4a4.33,4.33,0,0,1,2.38,1.24,4.25,4.25,0,0,1,1.17,2.41C257.7,64.85,256.68,66.35,255.06,66.3Z" style="fill:#ce5737"/><path d="M233.45,71.11A6.21,6.21,0,0,0,229.69,73c-1.13,1.16-1,2.43-.66,4.61.5,2.92,5.44,11.72,7.55,15.37.16,1,.37,2.15.37,2.15l.59-.56s3.32-12.78,2.68-16.5S236.55,71.3,233.45,71.11Zm1.79,10.32a4.27,4.27,0,0,1-3.55-3.66c-.34-1.94.7-3.46,2.33-3.4A4.31,4.31,0,0,1,237.55,78c.35,1.94-.69,3.52-2.3,3.44Z" style="fill:#a53920"/><path d="M232.89,71.73c-3.09-.13-5.07,2.77-4.43,6.47s8.48,17,8.48,17,3.32-12.77,2.67-16.51S236,71.85,232.89,71.73ZM234.67,82a4.3,4.3,0,0,1-2.38-1.24,4.25,4.25,0,0,1-1.17-2.41c-.34-2,.7-3.48,2.33-3.41A4.28,4.28,0,0,1,237,78.64C237.32,80.58,236.28,82.1,234.67,82Z" style="fill:#ce5737"/><path d="M213.39,88.59a6.12,6.12,0,0,0-3.75,1.86c-1.13,1.17-1,2.42-.66,4.62.51,2.91,5.45,11.72,7.47,15.36l.38,2.17.59-.57s3.33-12.77,2.69-16.51S216.48,88.72,213.39,88.59Zm1.79,10.32a4.3,4.3,0,0,1-3.54-3.66c-.33-2,.7-3.47,2.32-3.4a4.3,4.3,0,0,1,3.55,3.65C217.84,97.45,216.81,99,215.18,98.91Z" style="fill:#a53920"/><path d="M212.8,89.13c-3.08-.14-5.06,2.75-4.42,6.46s8.47,17,8.47,17,3.34-12.79,2.69-16.51S215.88,89.29,212.8,89.13Zm1.78,10.3A4.3,4.3,0,0,1,211,95.77c-.33-1.93.7-3.46,2.32-3.38A4.25,4.25,0,0,1,216.91,96c.35,2-.7,3.5-2.33,3.43Z" style="fill:#ce5737"/><path d="M118.59,199c8.07-1.4,14-5.93,13.29-10.13S124,182.44,116,183.84s-14,5.93-13.29,10.13S110.53,200.44,118.59,199Z" style="fill:url(#radial-gradient)"/><path d="M116,184c7.94-1.38,15,.82,15.68,4.91s-5.18,8.51-13.11,9.89-15-.83-15.68-4.91S108.05,185.41,116,184Zm-.06-.39c-8.18,1.41-14.19,6-13.44,10.35s8,6.64,16.13,5.23,14.19-6,13.44-10.35S124.1,182.23,115.93,183.65Z" style="fill:#2b293d"/></svg>