<svg width="25" height="22" viewBox="0 0 25 22" fill="none" xmlns="http://www.w3.org/2000/svg">
<path d="M12.4991 0.125C13.1925 0.125 13.8322 0.491237 14.1838 1.09187L24.7314 19.0619C25.0879 19.6674 25.0879 20.4145 24.7412 21.02C24.3945 21.6256 23.745 22.0016 23.0467 22.0016H1.95146C1.25317 22.0016 0.60371 21.6256 0.257005 21.02C-0.0896993 20.4145 -0.0848161 19.6625 0.266772 19.0619L10.8144 1.09187C11.166 0.491237 11.8057 0.125 12.4991 0.125ZM12.4991 6.37545C11.8496 6.37545 11.3271 6.89795 11.3271 7.54741V13.0165C11.3271 13.666 11.8496 14.1885 12.4991 14.1885C13.1486 14.1885 13.6711 13.666 13.6711 13.0165V7.54741C13.6711 6.89795 13.1486 6.37545 12.4991 6.37545ZM14.0617 17.3137C14.0617 16.8993 13.8971 16.5018 13.604 16.2088C13.311 15.9158 12.9135 15.7511 12.4991 15.7511C12.0847 15.7511 11.6872 15.9158 11.3942 16.2088C11.1011 16.5018 10.9365 16.8993 10.9365 17.3137C10.9365 17.7282 11.1011 18.1256 11.3942 18.4187C11.6872 18.7117 12.0847 18.8763 12.4991 18.8763C12.9135 18.8763 13.311 18.7117 13.604 18.4187C13.8971 18.1256 14.0617 17.7282 14.0617 17.3137Z" fill="white"/>
</svg>
