<svg width="23" height="19" viewBox="0 0 23 19" fill="none" xmlns="http://www.w3.org/2000/svg">
<path d="M0 1.6875C0 0.823242 0.713992 0.125 1.59774 0.125H20.7707C21.6544 0.125 22.3684 0.823242 22.3684 1.6875C22.3684 2.55176 21.6544 3.25 20.7707 3.25H1.59774C0.713992 3.25 0 2.55176 0 1.6875ZM0 9.5C0 8.63574 0.713992 7.9375 1.59774 7.9375H20.7707C21.6544 7.9375 22.3684 8.63574 22.3684 9.5C22.3684 10.3643 21.6544 11.0625 20.7707 11.0625H1.59774C0.713992 11.0625 0 10.3643 0 9.5ZM22.3684 17.3125C22.3684 18.1768 21.6544 18.875 20.7707 18.875H1.59774C0.713992 18.875 0 18.1768 0 17.3125C0 16.4482 0.713992 15.75 1.59774 15.75H20.7707C21.6544 15.75 22.3684 16.4482 22.3684 17.3125Z" fill="#CE5737"/>
</svg>
