<svg width="23" height="25" viewBox="0 0 23 25" fill="none" xmlns="http://www.w3.org/2000/svg">
<g clip-path="url(#clip0_575_178)">
<path d="M11.0294 12.5C12.7009 12.5 14.304 11.8415 15.486 10.6694C16.6679 9.49732 17.3319 7.9076 17.3319 6.25C17.3319 4.5924 16.6679 3.00269 15.486 1.83058C14.304 0.65848 12.7009 0 11.0294 0C9.35788 0 7.75481 0.65848 6.57286 1.83058C5.3909 3.00269 4.72689 4.5924 4.72689 6.25C4.72689 7.9076 5.3909 9.49732 6.57286 10.6694C7.75481 11.8415 9.35788 12.5 11.0294 12.5ZM8.77921 14.8438C3.92923 14.8438 0 18.7402 0 23.5498C0 24.3506 0.654871 25 1.46238 25H20.5964C21.404 25 22.0588 24.3506 22.0588 23.5498C22.0588 18.7402 18.1296 14.8438 13.2796 14.8438H8.77921Z" fill="white"/>
</g>
<defs>
<clipPath id="clip0_575_178">
<rect width="22.0588" height="25" fill="white"/>
</clipPath>
</defs>
</svg>
