<svg width="412" height="524" viewBox="0 0 412 524" fill="none" xmlns="http://www.w3.org/2000/svg">
<g filter="url(#filter0_d_393_151)">
<path d="M61 482.018C111.941 485.146 379.5 539.599 379.5 391.5C379.5 290.439 78 275.75 67.5 164.842C57 53.9342 310.09 74.0593 343 70.0004" stroke="#EBE2D4" stroke-width="4" stroke-linecap="round" stroke-dasharray="18 18"/>
<path d="M71.3988 108.134H57.8618C58.6749 157.866 36.1492 183.936 36.1492 183.936H51.364C54.4066 172.544 64.6376 171.669 64.6376 171.669C64.6376 171.669 74.8624 172.544 77.9112 183.936H93.1281C93.1281 183.936 70.5858 157.866 71.3988 108.134ZM59.7616 159.399L61.9518 138.586H67.3193L69.5115 159.399H59.7616Z" fill="#FF9B29"/>
<path d="M64.6292 99.2697C64.4832 99.2692 64.3434 99.2109 64.2404 99.1075C64.1374 99.0041 64.0796 98.864 64.0796 98.7181V87.5517C64.0796 87.4057 64.1374 87.2657 64.2404 87.1623C64.3434 87.0589 64.4832 87.0005 64.6292 87C64.7755 87 64.9158 87.0581 65.0193 87.1616C65.1228 87.265 65.1809 87.4053 65.1809 87.5517V98.7181C65.1809 98.8644 65.1228 99.0047 65.0193 99.1082C64.9158 99.2116 64.7755 99.2697 64.6292 99.2697Z" fill="#FFB561"/>
<path d="M67.3191 140.559H61.9516L59.7615 155.456H69.5093L67.3191 140.559ZM62.8994 141.654H66.3734L68.24 154.361H61.0287L62.8994 141.654Z" fill="#FF9B29"/>
<path d="M71.3988 104.308H57.8618C58.6749 154.121 36.1492 180.11 36.1492 180.11H51.364C54.4066 168.718 64.6376 167.842 64.6376 167.842C64.6376 167.842 74.8624 168.718 77.9112 180.11H93.1281C93.1281 180.11 70.5858 154.04 71.3988 104.308ZM59.7616 155.573L61.9518 140.565H67.3193L69.5115 155.573H59.7616Z" fill="#FFD161"/>
<path d="M56.634 185.805H36.1492L38.6691 180.11H54.5517L56.634 185.805Z" fill="#FF9B29"/>
<path d="M63.5404 106.602H60.0727C60.0727 107.914 60.0603 109.229 60.0312 110.542H63.5404V106.602Z" fill="#FF9B29"/>
<path d="M69.2292 110.544C69.2001 109.229 69.1856 107.915 69.1856 106.603H65.7324V110.544H69.2292Z" fill="#FF9B29"/>
<path d="M63.5404 112.077H59.9876C59.9607 112.734 59.9254 113.831 59.886 114.707H63.5404V112.077Z" fill="#FF9B29"/>
<path d="M63.5402 116.241H59.807C59.7572 116.897 59.6992 117.774 59.637 118.651H63.5423L63.5402 116.241Z" fill="#FF9B29"/>
<path d="M81.7499 178.022H88.7413C87.6318 176.269 86.2526 174.288 84.7448 171.669H78.8359L81.7499 178.022Z" fill="#FF9B29"/>
<path d="M63.5403 164.659H56.6402L54.1721 170.134H55.0017C57.4004 167.936 60.3509 166.431 63.5383 165.779L63.5403 164.659Z" fill="#FF9B29"/>
<path d="M78.1453 170.134H83.9027C83.0317 168.382 82.1274 166.411 81.2065 164.659H75.7188L78.1453 170.134Z" fill="#FF9B29"/>
<path d="M65.7324 138.593H69.2147L70.0837 144.508H73.9537C72.2161 137.886 70.9451 131.152 70.15 124.353H65.7324V138.593Z" fill="#FF9B29"/>
<path d="M72.6202 164.659H65.7324V165.762C68.9158 166.415 71.8621 167.92 74.2565 170.117H75.0861L72.6202 164.659Z" fill="#FF9B29"/>
<path d="M72.0561 157.866H72.6783L75.0489 163.124H80.5242C80.3355 162.686 80.1447 162.271 79.9539 161.834C77.7561 156.695 75.896 151.417 74.3852 146.036H70.3223L72.0561 157.866Z" fill="#FF9B29"/>
<path d="M65.7327 122.814H69.9823C69.8972 121.937 69.8164 120.842 69.7438 120.184H65.7285L65.7327 122.814Z" fill="#FF9B29"/>
<path d="M63.5404 120.184H59.5148C59.4422 120.842 59.3613 121.937 59.2742 122.814H63.5404V120.184Z" fill="#FF9B29"/>
<path d="M65.7325 118.651H69.6254C69.5632 117.774 69.5051 116.897 69.4554 116.241H65.7222L65.7325 118.651Z" fill="#FF9B29"/>
<path d="M65.7324 114.707H69.3743C69.3349 113.831 69.2997 112.734 69.2727 112.077H65.7324V114.707Z" fill="#FF9B29"/>
<path d="M63.5423 157.866H59.7614L57.3452 163.124H63.5423V157.866Z" fill="#FF9B29"/>
<path d="M56.5966 157.866H57.2188L58.9569 146.044H54.8918C53.376 151.436 51.5117 156.723 49.3107 161.873C49.1261 162.3 48.9395 162.703 48.7549 163.132H54.2199L56.5966 157.866Z" fill="#FF9B29"/>
<path d="M53.5353 164.659H48.06C47.1453 166.411 46.2411 168.392 45.3638 170.134H51.1087L53.5353 164.659Z" fill="#FF9B29"/>
<path d="M44.526 171.669C43.0141 174.297 41.6349 176.269 40.5232 178.022H47.5084L50.412 171.669H44.526Z" fill="#FF9B29"/>
<path d="M71.915 163.124L69.4988 157.866H65.7324V163.124H71.915Z" fill="#FF9B29"/>
<path d="M60.058 138.593H63.5403V124.353H59.1123C58.3188 131.151 57.0506 137.886 55.3169 144.508H59.1973L60.058 138.593Z" fill="#FF9B29"/>
<path d="M73.3484 131.356H55.9268C55.7498 132.452 55.5639 133.547 55.3689 134.644H73.9187C73.7168 133.543 73.5267 132.447 73.3484 131.356Z" fill="#FF9B29"/>
<path d="M80.7503 158.088C80.1281 156.553 79.5246 154.801 78.9314 153.268H69.1525L69.5051 155.678H59.7573L60.1099 153.268H50.3372C50.3372 153.268 50.3372 153.231 50.3372 153.237C49.7461 154.915 49.1405 156.537 48.5266 158.059V158.086H80.7544L80.7503 158.088Z" fill="#FF9B29"/>
<path d="M84.6806 151.848H44.5881V156.668H84.6806V151.848Z" fill="#FFD161"/>
<path d="M84.6785 156.667H44.5881L47.9895 159.297H81.2875L84.6785 156.667Z" fill="#FF9B29"/>
<path d="M64.6311 104.892C67.6161 104.892 70.036 102.472 70.036 99.4874C70.036 96.5024 67.6161 94.0825 64.6311 94.0825C61.6461 94.0825 59.2263 96.5024 59.2263 99.4874C59.2263 102.472 61.6461 104.892 64.6311 104.892Z" fill="#FFD161"/>
<path d="M71.4962 99.2676H57.7664V107.155H71.4962V99.2676Z" fill="#FFD161"/>
<path d="M71.4962 100.947H57.7664V105.475H71.4962V100.947Z" fill="#FF9B29"/>
<path d="M72.6619 102.883H56.5967V106.133H72.6619V102.883Z" fill="#FFD161"/>
<path d="M71.3822 108.25H57.8743L56.5967 106.133H72.6639L71.3822 108.25Z" fill="#FF9B29"/>
<path d="M76.0237 132.46H53.2388V136.403H76.0237V132.46Z" fill="#FFD161"/>
<path d="M76.0237 136.402H53.2388L54.5205 138.507H74.7482L76.0237 136.402Z" fill="#FF9B29"/>
<path d="M72.6638 126.653H56.5073V128.185H72.6638V126.653Z" fill="#FFD161"/>
<path d="M52.9089 185.805H32.4241L34.944 180.11H51.3659L52.9089 185.805Z" fill="#FFB561"/>
<path d="M72.5747 185.805H93.0596L90.5397 180.11H74.657L72.5747 185.805Z" fill="#FF9B29"/>
<path d="M76.2996 185.805H96.7844L94.2645 180.11H77.8447L76.2996 185.805Z" fill="#FFB561"/>
<path d="M62.6339 98.2225C63.3132 98.2225 63.8638 97.6719 63.8638 96.9926C63.8638 96.3134 63.3132 95.7627 62.6339 95.7627C61.9547 95.7627 61.4041 96.3134 61.4041 96.9926C61.4041 97.6719 61.9547 98.2225 62.6339 98.2225Z" fill="white"/>
<path d="M100.275 185.807H29V190.7H100.275V185.807Z" fill="#ADADAD"/>
<path d="M237.648 297.117L192.168 212.909L146.715 297.117H237.648Z" fill="#71A3E3"/>
<path d="M170.131 253.622L187.474 234.601L192.099 247.939L197.455 234.601L214.217 253.622L192.168 212.798L170.131 253.622Z" fill="white"/>
<path d="M157.504 277.08L163.361 289.27L178.859 269.853L190.891 283.152L205.216 275.941L192.099 247.942L197.454 234.604L214.217 253.678L237.648 297.117H146.724L157.504 277.08Z" fill="#5C84B8"/>
<path d="M224.067 271.557L220.286 264.94L185.533 297.117H237.649L224.067 271.557Z" fill="#4E709C"/>
<path d="M265.37 297.117L232.783 253.732L200.217 297.117H265.37Z" fill="#71A3E3"/>
<path d="M216.994 274.655L229.42 264.856L232.733 271.727L236.571 264.856L248.581 274.655L232.783 253.622L216.994 274.655Z" fill="#E3E3E3"/>
<path d="M207.947 286.768L212.143 293.033L223.248 283.024L231.868 289.87L242.131 286.155L232.734 271.727L236.571 264.856L248.581 274.711L265.37 297.117H200.222L207.947 286.768Z" fill="#5C84B8"/>
<path d="M166.068 288.962H165.635H165.209L164.692 297.117H165.635H166.582L166.068 288.962Z" fill="#8A532D"/>
<path d="M168.778 285.735H169.762C170.008 285.735 170.104 285.257 169.917 285.024L167.949 282.564C167.762 282.332 167.866 281.853 168.102 281.853H168.55C168.796 281.853 168.892 281.375 168.705 281.142L167.108 279.147C166.921 278.901 167.024 278.436 167.263 278.436C167.509 278.436 167.605 277.959 167.418 277.725L165.785 275.685C165.768 275.66 165.745 275.638 165.718 275.624C165.691 275.609 165.66 275.601 165.63 275.601C165.599 275.601 165.568 275.609 165.541 275.624C165.514 275.638 165.491 275.66 165.475 275.685L163.846 277.725C163.659 277.959 163.763 278.436 164.001 278.436C164.247 278.436 164.341 278.913 164.156 279.147L162.562 281.142C162.375 281.388 162.478 281.853 162.717 281.853H163.16C163.406 281.853 163.502 282.345 163.315 282.564L161.347 285.024C161.16 285.27 161.263 285.735 161.502 285.735H162.486C162.732 285.735 162.828 286.212 162.641 286.446L158.86 291.149C158.673 291.383 158.776 291.86 159.015 291.86H172.249C172.495 291.86 172.591 291.383 172.402 291.149L168.619 286.446C168.437 286.214 168.542 285.735 168.778 285.735Z" fill="#62E07B"/>
<path d="M175.413 291.065H175.103H174.793L174.419 297.117H175.103H175.787L175.413 291.065Z" fill="#8A532D"/>
<path d="M177.369 288.834H178.082C178.257 288.834 178.328 288.49 178.195 288.32L176.771 286.549C176.636 286.382 176.709 286.035 176.882 286.035H177.204C177.376 286.035 177.45 285.69 177.317 285.521L176.163 284.077C176.028 283.907 176.102 283.562 176.274 283.562C176.446 283.562 176.52 283.218 176.385 283.048L175.204 281.572C175.192 281.553 175.176 281.537 175.156 281.526C175.137 281.515 175.114 281.509 175.092 281.509C175.069 281.509 175.047 281.515 175.028 281.526C175.008 281.537 174.992 281.553 174.98 281.572L173.802 283.048C173.666 283.218 173.74 283.562 173.912 283.562C174.085 283.562 174.158 283.907 174.026 284.077L172.872 285.521C172.736 285.69 172.813 286.035 172.985 286.035H173.305C173.477 286.035 173.551 286.382 173.418 286.549L171.994 288.32C171.858 288.49 171.934 288.834 172.107 288.834H172.818C172.99 288.834 173.064 289.181 172.928 289.348L170.193 292.753C170.058 292.92 170.134 293.267 170.306 293.267H179.88C180.052 293.267 180.126 292.92 179.993 292.753L177.255 289.348C177.123 289.181 177.204 288.834 177.369 288.834Z" fill="#62E07B"/>
<path d="M238.849 292.908H238.63H238.411L238.146 297.117H238.63H239.115L238.849 292.908Z" fill="#8A532D"/>
<path d="M240.239 291.258H240.731C240.854 291.258 240.908 291.012 240.809 290.891L239.803 289.639C239.707 289.521 239.759 289.275 239.882 289.275H240.111C240.231 289.275 240.286 289.029 240.19 288.911L239.373 287.887C239.277 287.769 239.329 287.526 239.452 287.526C239.575 287.526 239.626 287.28 239.533 287.162L238.696 286.116C238.688 286.103 238.676 286.092 238.662 286.085C238.648 286.077 238.632 286.073 238.616 286.073C238.601 286.073 238.585 286.077 238.571 286.085C238.557 286.092 238.545 286.103 238.536 286.116L237.703 287.162C237.607 287.28 237.661 287.526 237.781 287.526C237.904 287.526 237.956 287.772 237.86 287.887L237.046 288.911C236.95 289.031 237.001 289.275 237.124 289.275H237.351C237.474 289.275 237.525 289.521 237.432 289.639L236.423 290.891C236.327 291.012 236.381 291.258 236.502 291.258H236.994C237.117 291.258 237.169 291.504 237.073 291.622L235.137 294.03C235.041 294.148 235.095 294.394 235.218 294.394H241.995C242.116 294.394 242.17 294.148 242.074 294.03L240.135 291.619C240.064 291.501 240.116 291.258 240.239 291.258Z" fill="#62E07B"/>
<path d="M227.801 282.911H227.58H227.361L227.098 287.12H227.58H228.064L227.801 282.911Z" fill="#8A532D"/>
<path d="M229.191 281.26H229.683C229.804 281.26 229.858 281.014 229.762 280.896L228.753 279.641C228.657 279.523 228.711 279.277 228.832 279.277H229.061C229.184 279.277 229.235 279.031 229.139 278.913L228.323 277.892C228.227 277.772 228.281 277.528 228.401 277.528C228.522 277.528 228.576 277.282 228.48 277.164L227.644 276.121C227.636 276.107 227.624 276.096 227.61 276.088C227.597 276.08 227.581 276.076 227.565 276.076C227.549 276.076 227.533 276.08 227.52 276.088C227.506 276.096 227.494 276.107 227.486 276.121L226.65 277.164C226.556 277.285 226.608 277.528 226.731 277.528C226.852 277.528 226.906 277.774 226.81 277.892L225.993 278.916C225.897 279.034 225.951 279.277 226.074 279.277H226.301C226.421 279.277 226.475 279.523 226.379 279.641L225.373 280.896C225.277 281.014 225.329 281.26 225.452 281.26H225.944C226.064 281.26 226.119 281.506 226.023 281.624L224.087 284.032C223.991 284.153 224.045 284.396 224.165 284.396H230.943C231.066 284.396 231.117 284.15 231.021 284.032L229.085 281.624C229.014 281.503 229.068 281.26 229.191 281.26Z" fill="#62E07B"/>
<path d="M184.756 290.013H184.385H184.016L183.57 297.117H184.385H185.204L184.756 290.013Z" fill="#8A532D"/>
<path d="M187.1 287.257H187.954C188.161 287.257 188.249 286.844 188.087 286.642L186.387 284.529C186.225 284.328 186.313 283.914 186.52 283.914H186.906C187.11 283.914 187.201 283.501 187.039 283.299L185.659 281.577C185.499 281.373 185.588 280.962 185.794 280.962C185.998 280.962 186.089 280.549 185.927 280.347L184.515 278.586C184.5 278.564 184.481 278.545 184.457 278.533C184.434 278.52 184.408 278.513 184.381 278.513C184.354 278.513 184.328 278.52 184.305 278.533C184.281 278.545 184.261 278.564 184.247 278.586L182.84 280.347C182.677 280.549 182.768 280.962 182.973 280.962C183.179 280.962 183.268 281.373 183.108 281.575L181.73 283.297C181.568 283.499 181.659 283.912 181.863 283.912H182.247C182.453 283.912 182.542 284.323 182.382 284.524L180.682 286.64C180.52 286.842 180.608 287.255 180.815 287.255H181.666C181.87 287.255 181.961 287.668 181.799 287.87L178.532 291.934C178.37 292.136 178.458 292.549 178.665 292.549H190.102C190.308 292.549 190.397 292.136 190.234 291.934L186.965 287.87C186.805 287.671 186.896 287.257 187.1 287.257Z" fill="#62E07B"/>
<path d="M232.898 237.925C232.899 238.618 233.175 239.283 233.666 239.774C234.157 240.264 234.822 240.54 235.516 240.54H260.903C261.246 240.54 261.587 240.472 261.904 240.341C262.222 240.21 262.51 240.017 262.753 239.775C262.997 239.532 263.189 239.243 263.321 238.926C263.453 238.608 263.52 238.268 263.52 237.925C263.52 237.23 263.245 236.565 262.754 236.074C262.263 235.583 261.597 235.307 260.903 235.307H254.896C254.202 235.307 253.537 235.032 253.046 234.541C252.556 234.051 252.281 233.386 252.281 232.692C252.28 231.998 252.004 231.333 251.513 230.842C251.022 230.351 250.357 230.075 249.663 230.075H222.141C221.447 230.075 220.782 230.351 220.291 230.842C219.801 231.333 219.526 231.998 219.526 232.692C219.526 233.386 219.801 234.051 220.292 234.541C220.782 235.032 221.447 235.307 222.141 235.307H230.281C230.975 235.307 231.641 235.583 232.132 236.074C232.622 236.565 232.898 237.23 232.898 237.925Z" fill="white"/>
<path d="M186.564 194.552C186.564 194.086 186.473 193.624 186.295 193.193C186.116 192.762 185.855 192.37 185.525 192.041C185.196 191.711 184.804 191.449 184.373 191.27C183.943 191.092 183.481 191 183.014 191H148.552C148.086 191 147.624 191.091 147.192 191.27C146.761 191.448 146.37 191.71 146.04 192.04C145.71 192.37 145.448 192.761 145.27 193.192C145.091 193.624 145 194.086 145 194.552C145 195.019 145.092 195.48 145.27 195.911C145.449 196.342 145.711 196.733 146.041 197.063C146.37 197.393 146.762 197.654 147.193 197.833C147.624 198.011 148.086 198.102 148.552 198.102H156.705C157.646 198.103 158.549 198.477 159.215 199.143C159.881 199.809 160.254 200.713 160.254 201.654C160.255 202.596 160.63 203.499 161.296 204.165C161.962 204.831 162.865 205.206 163.807 205.207H201.162C202.104 205.207 203.007 204.832 203.674 204.166C204.34 203.5 204.714 202.596 204.714 201.654C204.714 200.712 204.34 199.809 203.674 199.142C203.007 198.476 202.104 198.102 201.162 198.102H190.114C189.173 198.101 188.27 197.727 187.605 197.062C186.939 196.396 186.565 195.493 186.564 194.552Z" fill="white"/>
<path d="M240.832 272.386V256.603" stroke="#4A4A4A" stroke-width="3" stroke-miterlimit="10"/>
<path d="M265.56 297.117V289.75" stroke="#4A4A4A" stroke-width="3" stroke-miterlimit="10"/>
<path d="M237.11 251.935L268 293.105" stroke="#4A4A4A" stroke-width="3" stroke-miterlimit="10"/>
<path d="M238.596 272.52H243.068" stroke="#4A4A4A" stroke-width="3" stroke-miterlimit="10"/>
<path d="M251.09 270.283V273.966" stroke="#4A4A4A" stroke-width="3" stroke-miterlimit="10"/>
<path d="M254.716 274.803C254.716 274.274 254.386 273.77 253.857 273.77H248.199C247.936 273.787 247.688 273.903 247.506 274.095C247.324 274.286 247.22 274.539 247.215 274.803V275.787H254.713V274.803H254.716Z" fill="#FF6650"/>
<path d="M247.275 275.809V279.095C247.273 279.218 247.296 279.34 247.343 279.454C247.389 279.567 247.459 279.67 247.546 279.757C247.634 279.843 247.738 279.91 247.852 279.955C247.967 280 248.089 280.021 248.212 280.018H253.87C254.399 280.018 254.655 279.624 254.655 279.095V275.809H247.275Z" fill="#E3E3E3"/>
<path d="M252.386 276.273H249.548V278.51H252.386V276.273Z" fill="#4A4A4A"/>
<path d="M51.7046 515.68C76.193 515.68 96.0447 495.828 96.0447 471.34C96.0447 446.852 76.193 427 51.7046 427C27.2162 427 7.3645 446.852 7.3645 471.34C7.3645 495.828 27.2162 515.68 51.7046 515.68Z" fill="#414141"/>
<path d="M51.7045 427C45.7047 426.993 39.7663 428.208 34.2515 430.571L42.9053 439.398L51.7026 436.101H71.2497V431.534C65.1689 428.543 58.4812 426.992 51.7045 427Z" fill="#FFD161"/>
<path d="M53.749 436.164C48.6409 432.617 42.1596 430.829 35.0262 430.251C18.8048 436.841 7.36453 452.755 7.36453 471.344C7.35802 477.657 8.70296 483.898 11.3089 489.649C13.9148 495.399 17.7214 500.525 22.4729 504.682C10.652 454.552 53.749 436.164 53.749 436.164Z" fill="#FF6650"/>
<path d="M49.6602 436.164C54.7683 432.617 61.2496 430.829 68.3811 430.251C84.6044 436.841 96.0446 452.755 96.0446 471.344C96.0512 477.657 94.7062 483.898 92.1003 489.649C89.4943 495.399 85.6877 500.525 80.9363 504.682C92.7629 454.552 49.6602 436.164 49.6602 436.164Z" fill="#38D4B8"/>
<path d="M51.7045 439.458C56.6011 439.458 60.5706 437.982 60.5706 436.161C60.5706 434.34 56.6011 432.864 51.7045 432.864C46.8079 432.864 42.8384 434.34 42.8384 436.161C42.8384 437.982 46.8079 439.458 51.7045 439.458Z" fill="white"/>
<path d="M98.7871 513.619C97.6128 513.119 69.8192 501.4 52.0679 501.4C34.3165 501.4 6.04294 513.116 4.84766 513.613C4.16491 513.898 3.84935 514.449 4.06928 514.965C4.28921 515.481 4.99682 515.837 5.80005 515.837H97.8232C98.6226 515.837 99.3264 515.483 99.5444 514.971C99.7624 514.458 99.4564 513.9 98.7871 513.619Z" fill="#FFD161"/>
<path d="M288.024 1.66162L311.23 8.73599L288.024 15.8103V1.66162Z" fill="#FF6650"/>
<path d="M288.321 35.7879V0" stroke="#8A532D" stroke-width="7" stroke-miterlimit="10"/>
<path d="M302.021 92.2253L288.11 29.8193H338.086L374.147 92.2253H302.021Z" fill="#FFB561"/>
<path d="M252.049 92.2251L288.11 29.7627L324.175 92.2251H252.049Z" fill="#FFD161"/>
<path d="M277.668 92.2136L288.11 48.7241L303.504 92.2255L277.668 92.2136Z" fill="#8A532D"/>
<path d="M288.11 48.7241L280.748 92.2136L272.716 92.2255L288.11 48.7241Z" fill="#6E4224"/>
<path d="M293.143 21.6157L288.146 30.2684L283.149 21.6157H293.143Z" fill="#FFD161"/>
<path d="M326.909 92.1779L336.902 87.2051V92.1779H326.909Z" fill="#FFD161"/>
<path d="M342.868 21.6157L337.872 30.2684L332.875 21.6157H342.868Z" fill="#FFB561"/>
<path d="M326.879 82.1191H324.175V92.2254H326.879V82.1191Z" fill="#8A532D"/>
<path d="M252.049 82.1191H249.344V92.2254H252.049V82.1191Z" fill="#8A532D"/>
<path d="M327.762 90.6294H323.286V92.2256H327.762V90.6294Z" fill="#FFD161"/>
<path d="M377.631 92.1779L387.621 87.2051V92.1779H377.631Z" fill="#FFB561"/>
<path d="M377.598 82.1191H374.893V92.2254H377.598V82.1191Z" fill="#6E4224"/>
<path d="M378.484 90.6294H374.007V92.2256H378.484V90.6294Z" fill="#FFB561"/>
<path d="M248.993 92.1779L239 87.2051V92.1779H248.993Z" fill="#FFD161"/>
<path d="M252.617 90.6294H248.14V92.2256H252.617V90.6294Z" fill="#FFD161"/>
<path d="M373.559 364.541C373.204 360.118 371.125 355.556 367.702 351.693C364.279 347.83 360.001 345.217 355.644 344.324C351.156 343.413 346.962 344.438 343.836 347.207C343.726 347.304 343.66 347.441 343.651 347.588C343.642 347.734 343.692 347.879 343.789 347.988L346.848 351.443C346.946 351.552 347.084 351.619 347.23 351.628C347.303 351.633 347.375 351.623 347.444 351.599C347.513 351.576 347.576 351.538 347.63 351.49L351.649 347.917L354.193 350.789L350.173 354.361C350.118 354.409 350.074 354.467 350.042 354.532C350.01 354.597 349.992 354.668 349.988 354.741C349.979 354.888 350.028 355.032 350.124 355.143L352.091 357.362C352.189 357.472 352.326 357.538 352.473 357.547C352.619 357.556 352.763 357.506 352.873 357.409L356.892 353.837L359.436 356.708L355.416 360.281C355.307 360.379 355.24 360.516 355.231 360.663C355.226 360.735 355.236 360.808 355.26 360.877C355.284 360.945 355.321 361.008 355.369 361.062L357.337 363.284C357.434 363.394 357.571 363.46 357.718 363.469C357.864 363.477 358.008 363.428 358.118 363.331L362.138 359.758L364.683 362.63L360.664 366.203C360.554 366.301 360.488 366.438 360.479 366.585C360.474 366.657 360.484 366.73 360.507 366.798C360.531 366.867 360.568 366.93 360.617 366.984L362.584 369.204C362.632 369.259 362.69 369.303 362.755 369.336C362.82 369.368 362.891 369.387 362.964 369.392C363.111 369.4 363.255 369.35 363.366 369.253L367.385 365.68L370.056 368.699L367.823 373.319C367.761 373.445 367.749 373.589 367.789 373.723L368.383 375.666C368.411 375.755 368.46 375.835 368.526 375.899C368.592 375.964 368.674 376.011 368.763 376.037C368.812 376.05 368.862 376.057 368.912 376.057C369.048 376.058 369.179 376.008 369.281 375.918C372.403 373.147 373.923 369.108 373.559 364.541Z" fill="#4FB463"/>
<path d="M397.383 347.22C394.257 344.449 390.065 343.424 385.575 344.335C381.227 345.228 376.947 347.832 373.517 351.704C370.087 355.576 368.015 360.129 367.662 364.553C367.298 369.119 368.819 373.159 371.942 375.941C372.044 376.031 372.175 376.08 372.311 376.079C372.355 376.08 372.4 376.074 372.443 376.064C372.53 376.043 372.61 376.001 372.678 375.942C372.745 375.883 372.797 375.808 372.829 375.724L373.568 373.782C373.595 373.709 373.607 373.633 373.602 373.556C373.598 373.479 373.578 373.404 373.544 373.335L371.172 368.693L373.832 365.691L377.851 369.264C377.961 369.361 378.104 369.411 378.251 369.403C378.324 369.398 378.395 369.379 378.46 369.347C378.526 369.315 378.584 369.27 378.632 369.215L380.6 366.996C380.648 366.942 380.686 366.878 380.709 366.81C380.733 366.741 380.743 366.668 380.738 366.596C380.729 366.449 380.662 366.312 380.553 366.214L376.533 362.641L379.079 359.77L383.098 363.342C383.209 363.439 383.352 363.489 383.499 363.48C383.645 363.471 383.782 363.405 383.88 363.296L385.847 361.074C385.896 361.02 385.933 360.956 385.957 360.888C385.981 360.819 385.99 360.746 385.986 360.674C385.977 360.527 385.91 360.39 385.8 360.292L381.781 356.719L384.324 353.848L388.344 357.421C388.454 357.518 388.598 357.568 388.744 357.559C388.891 357.55 389.028 357.483 389.125 357.374L391.092 355.154C391.189 355.043 391.238 354.899 391.229 354.752C391.225 354.68 391.207 354.609 391.175 354.543C391.143 354.478 391.098 354.42 391.043 354.373L387.024 350.8L389.567 347.928L393.587 351.501C393.697 351.598 393.84 351.647 393.986 351.639C394.133 351.63 394.27 351.564 394.368 351.454L397.427 348C397.476 347.946 397.513 347.883 397.537 347.814C397.562 347.746 397.572 347.673 397.568 347.601C397.563 347.528 397.545 347.457 397.513 347.392C397.482 347.327 397.437 347.268 397.383 347.22Z" fill="#4FB463"/>
<path d="M380.921 361.411L383.099 363.34C383.208 363.438 383.352 363.487 383.499 363.479C383.646 363.47 383.783 363.403 383.88 363.293L385.847 361.074C385.882 361.03 385.911 360.983 385.934 360.933C384.25 360.895 382.568 361.056 380.921 361.411Z" fill="#62E07B"/>
<path d="M355.293 360.929C355.315 360.98 355.344 361.028 355.381 361.069L357.348 363.289C357.445 363.399 357.582 363.465 357.729 363.474C357.875 363.483 358.019 363.433 358.129 363.336L360.304 361.407C358.658 361.051 356.977 360.891 355.293 360.929Z" fill="#62E07B"/>
<path d="M370.614 368.967C369.33 366.323 367.173 364.253 364.447 362.875L360.673 366.225C360.563 366.323 360.497 366.46 360.487 366.607C360.483 366.679 360.493 366.752 360.516 366.821C360.54 366.889 360.577 366.952 360.626 367.006L361.729 368.25L365.262 367.281L365.389 367.489L367.399 365.702L367.622 365.95C367.617 367.844 367.993 369.719 368.727 371.464L368.325 372.294L368.439 372.482C368.508 372.598 368.617 372.684 368.745 372.726C368.873 372.767 369.012 372.759 369.136 372.705L370.616 372.035L372.095 372.705C372.218 372.759 372.357 372.767 372.485 372.726C372.614 372.684 372.722 372.598 372.791 372.482L372.97 372.189L372.543 371.365C373.251 369.648 373.613 367.808 373.608 365.95L373.832 365.702L375.841 367.489L375.969 367.281L379.504 368.25L380.604 367.006C380.653 366.952 380.69 366.889 380.714 366.821C380.738 366.752 380.748 366.679 380.743 366.607C380.734 366.46 380.667 366.323 380.557 366.225L376.786 362.875C374.053 364.244 371.896 366.314 370.614 368.967Z" fill="#62E07B"/>
<path d="M371.436 374.469C369.189 366.285 359.545 362.293 349.005 365.187C338.466 368.081 332.209 376.434 334.455 384.614C334.495 384.755 334.589 384.876 334.717 384.949C334.8 384.995 334.894 385.02 334.989 385.02C335.039 385.021 335.088 385.015 335.136 385.002L339.584 383.781C339.724 383.742 339.842 383.65 339.915 383.525C339.987 383.4 340.008 383.251 339.973 383.111L338.548 377.924L342.248 376.91L343.671 382.095C343.71 382.234 343.802 382.352 343.927 382.425C344.052 382.498 344.2 382.519 344.341 382.483L347.201 381.697C347.341 381.659 347.459 381.567 347.531 381.442C347.604 381.316 347.624 381.168 347.587 381.028L346.165 375.843L349.863 374.827L351.288 380.014C351.327 380.153 351.419 380.271 351.544 380.343C351.669 380.415 351.817 380.436 351.957 380.4L354.818 379.614C354.957 379.575 355.076 379.483 355.148 379.358C355.22 379.233 355.24 379.084 355.204 378.944L353.78 373.757L357.48 372.741L358.904 377.928C358.942 378.068 359.034 378.187 359.16 378.259C359.285 378.332 359.434 378.351 359.574 378.315L362.435 377.531C362.574 377.492 362.692 377.4 362.765 377.275C362.837 377.15 362.858 377.001 362.823 376.861L361.398 371.674L365.23 370.622L368.406 375.827C368.474 375.943 368.583 376.03 368.712 376.071C368.84 376.112 368.979 376.105 369.102 376.05L371.094 375.157C371.229 375.109 371.34 375.011 371.404 374.882C371.468 374.754 371.479 374.606 371.436 374.469Z" fill="#4FB463"/>
<path d="M392.223 365.187C381.683 362.284 372.039 366.285 369.79 374.469C369.755 374.597 369.767 374.734 369.824 374.854C369.881 374.974 369.979 375.069 370.1 375.123L372.092 376.016C372.216 376.071 372.355 376.079 372.483 376.038C372.612 375.996 372.721 375.909 372.789 375.793L375.964 370.59L379.796 371.642L378.371 376.827C378.336 376.967 378.357 377.116 378.43 377.241C378.502 377.366 378.621 377.458 378.76 377.497L381.62 378.283C381.761 378.319 381.909 378.298 382.035 378.225C382.16 378.153 382.252 378.034 382.29 377.894L383.715 372.707L387.415 373.723L385.99 378.91C385.955 379.05 385.976 379.198 386.048 379.324C386.12 379.449 386.238 379.541 386.377 379.58L389.237 380.364C389.377 380.4 389.525 380.379 389.651 380.307C389.776 380.235 389.868 380.117 389.907 379.978L391.332 374.791L395.029 375.807L393.607 380.992C393.571 381.132 393.591 381.28 393.663 381.406C393.735 381.531 393.854 381.623 393.993 381.661L396.854 382.447C396.994 382.482 397.142 382.462 397.267 382.389C397.393 382.316 397.484 382.198 397.524 382.059L398.946 376.874L402.646 377.888L401.221 383.075C401.186 383.215 401.207 383.364 401.28 383.489C401.352 383.614 401.471 383.706 401.61 383.745L406.058 384.966C406.106 384.979 406.156 384.986 406.206 384.986C406.301 384.987 406.395 384.961 406.478 384.913C406.541 384.877 406.597 384.829 406.642 384.771C406.687 384.714 406.72 384.648 406.739 384.578C409.017 376.434 402.762 368.074 392.223 365.187Z" fill="#4FB463"/>
<path d="M373.562 411.519C373.471 411.658 373.349 411.774 373.205 411.858C373.061 411.941 372.899 411.99 372.733 411.999H368.491C368.325 411.99 368.163 411.941 368.02 411.858C367.876 411.774 367.754 411.658 367.664 411.519L365.536 407.774C365.387 407.511 365.512 407.294 365.818 407.294H375.415C375.719 407.294 375.846 407.517 375.694 407.774L373.562 411.519Z" fill="#B56D3B"/>
<path d="M373.528 406.794C373.449 406.938 373.335 407.059 373.196 407.147C373.056 407.235 372.897 407.285 372.733 407.294H368.49C368.326 407.284 368.168 407.234 368.029 407.146C367.889 407.059 367.775 406.937 367.696 406.794L365.503 402.254C365.467 402.203 365.447 402.142 365.445 402.079C365.444 402.016 365.461 401.955 365.494 401.901C365.528 401.848 365.576 401.806 365.633 401.78C365.69 401.755 365.753 401.746 365.815 401.756H375.417C375.479 401.746 375.543 401.755 375.6 401.78C375.657 401.806 375.705 401.848 375.738 401.901C375.772 401.955 375.789 402.016 375.787 402.079C375.786 402.142 375.766 402.203 375.73 402.254L373.528 406.794Z" fill="#8A532D"/>
<path d="M373.548 401.269C373.462 401.411 373.343 401.529 373.201 401.614C373.059 401.699 372.898 401.747 372.733 401.756H368.49C368.325 401.747 368.165 401.698 368.023 401.613C367.881 401.528 367.762 401.41 367.675 401.269L365.525 397.25C365.487 397.202 365.465 397.143 365.461 397.082C365.457 397.021 365.472 396.96 365.503 396.907C365.534 396.854 365.581 396.812 365.637 396.787C365.693 396.761 365.755 396.753 365.815 396.763H375.417C375.478 396.753 375.54 396.761 375.595 396.787C375.651 396.812 375.698 396.854 375.729 396.907C375.761 396.96 375.775 397.021 375.772 397.082C375.768 397.143 375.745 397.202 375.707 397.25L373.548 401.269Z" fill="#B56D3B"/>
<path d="M373.562 396.292C373.471 396.432 373.349 396.548 373.205 396.632C373.061 396.716 372.899 396.765 372.733 396.775H368.491C368.325 396.765 368.163 396.716 368.02 396.632C367.876 396.548 367.754 396.432 367.664 396.292L365.536 392.55C365.387 392.284 365.512 392.067 365.818 392.067H375.415C375.719 392.067 375.846 392.291 375.694 392.55L373.562 396.292Z" fill="#8A532D"/>
<path d="M373.562 391.585C373.472 391.725 373.349 391.842 373.205 391.926C373.061 392.01 372.9 392.058 372.733 392.067H368.491C368.324 392.058 368.163 392.01 368.019 391.926C367.876 391.842 367.754 391.725 367.664 391.585L365.536 387.843C365.387 387.579 365.512 387.36 365.818 387.36H375.415C375.719 387.36 375.846 387.584 375.694 387.843L373.562 391.585Z" fill="#B56D3B"/>
<path d="M373.528 386.862C373.449 387.006 373.334 387.128 373.195 387.215C373.056 387.302 372.897 387.352 372.733 387.36H368.49C368.327 387.351 368.168 387.301 368.029 387.214C367.89 387.127 367.775 387.006 367.696 386.862L365.503 382.323C365.467 382.271 365.447 382.211 365.445 382.148C365.444 382.085 365.461 382.023 365.494 381.97C365.528 381.917 365.576 381.875 365.633 381.849C365.69 381.823 365.753 381.815 365.815 381.825H375.417C375.479 381.815 375.543 381.823 375.6 381.849C375.657 381.875 375.705 381.917 375.738 381.97C375.772 382.023 375.789 382.085 375.787 382.148C375.786 382.211 375.766 382.271 375.73 382.323L373.528 386.862Z" fill="#8A532D"/>
<path d="M373.562 381.342C373.472 381.483 373.349 381.599 373.205 381.683C373.061 381.767 372.9 381.816 372.733 381.825H368.491C368.324 381.815 368.163 381.767 368.019 381.683C367.876 381.599 367.754 381.482 367.664 381.342L365.536 377.6C365.387 377.334 365.512 377.118 365.818 377.118H375.415C375.719 377.118 375.846 377.341 375.694 377.6L373.562 381.342Z" fill="#B56D3B"/>
<path d="M373.562 376.637C373.471 376.777 373.349 376.893 373.205 376.976C373.061 377.06 372.899 377.108 372.733 377.117H368.491C368.325 377.108 368.163 377.06 368.02 376.976C367.876 376.893 367.754 376.777 367.664 376.637L365.536 372.893C365.387 372.629 365.512 372.413 365.818 372.413H375.415C375.719 372.413 375.846 372.636 375.694 372.893L373.562 376.637Z" fill="#8A532D"/>
<path d="M373.562 451.105C373.471 451.244 373.35 451.361 373.206 451.445C373.063 451.529 372.901 451.577 372.735 451.587H368.493C368.327 451.578 368.166 451.53 368.022 451.446C367.879 451.363 367.757 451.247 367.667 451.107L365.539 447.362C365.389 447.099 365.514 446.882 365.82 446.882H375.415C375.719 446.882 375.846 447.106 375.694 447.362L373.562 451.105Z" fill="#B56D3B"/>
<path d="M373.528 446.382C373.449 446.526 373.334 446.647 373.195 446.734C373.056 446.821 372.897 446.871 372.733 446.88H368.49C368.327 446.871 368.168 446.82 368.029 446.733C367.89 446.646 367.775 446.525 367.695 446.382L365.503 441.843C365.467 441.791 365.447 441.73 365.446 441.667C365.445 441.605 365.462 441.543 365.495 441.49C365.528 441.437 365.576 441.395 365.633 441.368C365.69 441.342 365.753 441.333 365.815 441.342H375.417C375.479 441.333 375.542 441.342 375.599 441.368C375.656 441.395 375.704 441.437 375.737 441.49C375.771 441.543 375.788 441.605 375.786 441.667C375.785 441.73 375.765 441.791 375.73 441.843L373.528 446.382Z" fill="#8A532D"/>
<path d="M373.562 440.869C373.471 441.008 373.349 441.125 373.205 441.208C373.061 441.291 372.899 441.34 372.733 441.349H368.491C368.325 441.34 368.163 441.291 368.02 441.208C367.876 441.124 367.754 441.008 367.664 440.869L365.536 437.124C365.387 436.861 365.512 436.644 365.818 436.644H375.415C375.719 436.644 375.846 436.867 375.694 437.124L373.562 440.869Z" fill="#B56D3B"/>
<path d="M373.548 436.148C373.462 436.29 373.343 436.408 373.201 436.494C373.059 436.579 372.899 436.628 372.733 436.637H368.49C368.325 436.628 368.165 436.578 368.023 436.493C367.881 436.408 367.762 436.29 367.675 436.148L365.525 432.142C365.486 432.094 365.463 432.035 365.459 431.973C365.455 431.912 365.469 431.85 365.501 431.797C365.532 431.744 365.579 431.702 365.636 431.676C365.692 431.65 365.755 431.642 365.815 431.653H375.417C375.478 431.642 375.541 431.65 375.597 431.676C375.653 431.702 375.7 431.744 375.732 431.797C375.763 431.85 375.778 431.912 375.774 431.973C375.769 432.035 375.746 432.094 375.707 432.142L373.548 436.148Z" fill="#8A532D"/>
<path d="M373.562 431.174C373.471 431.313 373.349 431.429 373.205 431.513C373.061 431.596 372.899 431.644 372.733 431.654H368.491C368.325 431.644 368.163 431.596 368.02 431.513C367.876 431.429 367.754 431.313 367.664 431.174L365.536 427.429C365.387 427.165 365.512 426.949 365.818 426.949H375.415C375.719 426.949 375.846 427.172 375.694 427.429L373.562 431.174Z" fill="#B56D3B"/>
<path d="M373.528 426.448C373.449 426.593 373.335 426.714 373.195 426.802C373.056 426.889 372.897 426.94 372.733 426.949H368.49C368.326 426.939 368.167 426.888 368.028 426.801C367.889 426.713 367.775 426.592 367.695 426.448L365.503 421.911C365.467 421.859 365.447 421.798 365.446 421.736C365.445 421.673 365.462 421.611 365.495 421.558C365.528 421.505 365.576 421.463 365.633 421.437C365.69 421.411 365.753 421.401 365.815 421.411H375.417C375.479 421.401 375.542 421.411 375.599 421.437C375.656 421.463 375.704 421.505 375.737 421.558C375.771 421.611 375.788 421.673 375.786 421.736C375.785 421.798 375.765 421.859 375.73 421.911L373.528 426.448Z" fill="#8A532D"/>
<path d="M373.562 420.931C373.471 421.07 373.349 421.187 373.205 421.27C373.061 421.353 372.899 421.402 372.733 421.411H368.491C368.325 421.402 368.163 421.353 368.02 421.27C367.876 421.186 367.754 421.07 367.664 420.931L365.536 417.186C365.387 416.923 365.512 416.706 365.818 416.706H375.415C375.719 416.706 375.846 416.929 375.694 417.186L373.562 420.931Z" fill="#B56D3B"/>
<path d="M373.562 416.224C373.472 416.364 373.349 416.481 373.205 416.565C373.061 416.648 372.9 416.697 372.733 416.706H368.491C368.324 416.697 368.163 416.648 368.019 416.564C367.876 416.481 367.754 416.364 367.664 416.224L365.536 412.481C365.387 412.216 365.512 411.999 365.818 411.999H375.415C375.719 411.999 375.846 412.222 375.694 412.481L373.562 416.224Z" fill="#8A532D"/>
<path d="M391.559 454.671C391.037 454.448 378.644 449.223 370.728 449.223C362.812 449.223 350.204 454.446 349.673 454.669C349.369 454.796 349.226 455.042 349.325 455.272C349.405 455.402 349.519 455.507 349.656 455.576C349.792 455.644 349.945 455.674 350.097 455.66H391.131C391.282 455.673 391.434 455.643 391.57 455.575C391.706 455.507 391.82 455.403 391.901 455.274C391.999 455.044 391.861 454.798 391.559 454.671Z" fill="#FFD161"/>
</g>
<defs>
<filter id="filter0_d_393_151" x="0" y="0" width="411.206" height="523.837" filterUnits="userSpaceOnUse" color-interpolation-filters="sRGB">
<feFlood flood-opacity="0" result="BackgroundImageFix"/>
<feColorMatrix in="SourceAlpha" type="matrix" values="0 0 0 0 0 0 0 0 0 0 0 0 0 0 0 0 0 0 127 0" result="hardAlpha"/>
<feOffset dy="4"/>
<feGaussianBlur stdDeviation="2"/>
<feComposite in2="hardAlpha" operator="out"/>
<feColorMatrix type="matrix" values="0 0 0 0 0 0 0 0 0 0 0 0 0 0 0 0 0 0 0.25 0"/>
<feBlend mode="normal" in2="BackgroundImageFix" result="effect1_dropShadow_393_151"/>
<feBlend mode="normal" in="SourceGraphic" in2="effect1_dropShadow_393_151" result="shape"/>
</filter>
</defs>
</svg>
