<svg width="404" height="516" viewBox="0 0 404 516" fill="none" xmlns="http://www.w3.org/2000/svg">
<path d="M57 482.018C107.941 485.146 375.5 539.599 375.5 391.5C375.5 290.439 74 275.75 63.5 164.842C53 53.9342 306.09 74.0593 339 70.0004" stroke="#19181E" stroke-width="4" stroke-linecap="round" stroke-dasharray="18 18"/>
<path d="M67.3987 108.134H53.8617C54.6747 157.866 32.149 183.936 32.149 183.936H47.3639C50.4064 172.544 60.6375 171.669 60.6375 171.669C60.6375 171.669 70.8623 172.544 73.911 183.936H89.1279C89.1279 183.936 66.5857 157.866 67.3987 108.134ZM55.7615 159.399L57.9516 138.586H63.3191L65.5113 159.399H55.7615Z" fill="#FF9B29"/>
<path d="M60.6292 99.2697C60.4832 99.2692 60.3434 99.2109 60.2404 99.1075C60.1374 99.0041 60.0796 98.864 60.0796 98.7181V87.5517C60.0796 87.4057 60.1374 87.2657 60.2404 87.1623C60.3434 87.0589 60.4832 87.0005 60.6292 87C60.7755 87 60.9158 87.0581 61.0193 87.1616C61.1228 87.265 61.1809 87.4053 61.1809 87.5517V98.7181C61.1809 98.8644 61.1228 99.0047 61.0193 99.1082C60.9158 99.2116 60.7755 99.2697 60.6292 99.2697Z" fill="#FFB561"/>
<path d="M63.3191 140.559H57.9516L55.7615 155.456H65.5093L63.3191 140.559ZM58.8994 141.654H62.3734L64.24 154.361H57.0287L58.8994 141.654Z" fill="#FF9B29"/>
<path d="M67.3987 104.308H53.8617C54.6747 154.121 32.149 180.11 32.149 180.11H47.3639C50.4064 168.718 60.6375 167.842 60.6375 167.842C60.6375 167.842 70.8623 168.718 73.911 180.11H89.1279C89.1279 180.11 66.5857 154.04 67.3987 104.308ZM55.7615 155.573L57.9516 140.565H63.3191L65.5113 155.573H55.7615Z" fill="#FFD161"/>
<path d="M52.6339 185.805H32.149L34.669 180.11H50.5516L52.6339 185.805Z" fill="#FF9B29"/>
<path d="M59.5403 106.602H56.0726C56.0726 107.914 56.0602 109.229 56.0311 110.542H59.5403V106.602Z" fill="#FF9B29"/>
<path d="M65.2293 110.544C65.2003 109.229 65.1858 107.915 65.1858 106.603H61.7325V110.544H65.2293Z" fill="#FF9B29"/>
<path d="M59.5404 112.077H55.9876C55.9607 112.734 55.9254 113.831 55.886 114.707H59.5404V112.077Z" fill="#FF9B29"/>
<path d="M59.5403 116.241H55.8071C55.7574 116.897 55.6993 117.774 55.6371 118.651H59.5424L59.5403 116.241Z" fill="#FF9B29"/>
<path d="M77.75 178.022H84.7415C83.6319 176.269 82.2527 174.288 80.7449 171.669H74.8361L77.75 178.022Z" fill="#FF9B29"/>
<path d="M59.5403 164.659H52.6402L50.1721 170.134H51.0017C53.4004 167.936 56.3509 166.431 59.5383 165.779L59.5403 164.659Z" fill="#FF9B29"/>
<path d="M74.1454 170.134H79.9029C79.0318 168.382 78.1275 166.411 77.2067 164.659H71.7189L74.1454 170.134Z" fill="#FF9B29"/>
<path d="M61.7325 138.593H65.2148L66.0838 144.508H69.9539C68.2162 137.886 66.9452 131.152 66.1502 124.353H61.7325V138.593Z" fill="#FF9B29"/>
<path d="M68.6203 164.659H61.7325V165.762C64.9159 166.415 67.8622 167.92 70.2567 170.117H71.0863L68.6203 164.659Z" fill="#FF9B29"/>
<path d="M68.0561 157.866H68.6783L71.0489 163.124H76.5242C76.3355 162.686 76.1447 162.271 75.9539 161.834C73.7561 156.695 71.896 151.417 70.3852 146.036H66.3223L68.0561 157.866Z" fill="#FF9B29"/>
<path d="M61.7325 122.814H65.9822C65.8971 121.937 65.8162 120.842 65.7436 120.184H61.7284L61.7325 122.814Z" fill="#FF9B29"/>
<path d="M59.5404 120.184H55.5148C55.4422 120.842 55.3613 121.937 55.2742 122.814H59.5404V120.184Z" fill="#FF9B29"/>
<path d="M61.7325 118.651H65.6254C65.5632 117.774 65.5051 116.897 65.4554 116.241H61.7222L61.7325 118.651Z" fill="#FF9B29"/>
<path d="M61.7325 114.707H65.3745C65.3351 113.831 65.2998 112.734 65.2728 112.077H61.7325V114.707Z" fill="#FF9B29"/>
<path d="M59.5424 157.866H55.7615L53.3453 163.124H59.5424V157.866Z" fill="#FF9B29"/>
<path d="M52.5966 157.866H53.2188L54.9569 146.044H50.8918C49.376 151.436 47.5117 156.723 45.3107 161.873C45.1261 162.3 44.9395 162.703 44.7549 163.132H50.2199L52.5966 157.866Z" fill="#FF9B29"/>
<path d="M49.5354 164.659H44.0601C43.1455 166.411 42.2412 168.392 41.3639 170.134H47.1089L49.5354 164.659Z" fill="#FF9B29"/>
<path d="M40.5259 171.669C39.014 174.297 37.6347 176.269 36.5231 178.022H43.5083L46.4119 171.669H40.5259Z" fill="#FF9B29"/>
<path d="M67.9151 163.124L65.4989 157.866H61.7325V163.124H67.9151Z" fill="#FF9B29"/>
<path d="M56.058 138.593H59.5403V124.353H55.1123C54.3188 131.151 53.0506 137.886 51.3169 144.508H55.1973L56.058 138.593Z" fill="#FF9B29"/>
<path d="M69.3482 131.356H51.9267C51.7497 132.452 51.5637 133.547 51.3688 134.644H69.9186C69.7167 133.543 69.5266 132.447 69.3482 131.356Z" fill="#FF9B29"/>
<path d="M76.7504 158.088C76.1282 156.553 75.5247 154.801 74.9315 153.268H65.1526L65.5052 155.678H55.7574L56.11 153.268H46.3373C46.3373 153.268 46.3373 153.231 46.3373 153.237C45.7462 154.915 45.1406 156.537 44.5267 158.059V158.086H76.7545L76.7504 158.088Z" fill="#FF9B29"/>
<path d="M80.6806 151.848H40.5881V156.668H80.6806V151.848Z" fill="#FFD161"/>
<path d="M80.6785 156.667H40.5881L43.9895 159.297H77.2875L80.6785 156.667Z" fill="#FF9B29"/>
<path d="M60.6313 104.892C63.6163 104.892 66.0361 102.472 66.0361 99.4874C66.0361 96.5024 63.6163 94.0825 60.6313 94.0825C57.6463 94.0825 55.2264 96.5024 55.2264 99.4874C55.2264 102.472 57.6463 104.892 60.6313 104.892Z" fill="#FFD161"/>
<path d="M67.4962 99.2676H53.7664V107.155H67.4962V99.2676Z" fill="#FFD161"/>
<path d="M67.4962 100.947H53.7664V105.475H67.4962V100.947Z" fill="#FF9B29"/>
<path d="M68.6617 102.883H52.5966V106.133H68.6617V102.883Z" fill="#FFD161"/>
<path d="M67.3821 108.25H53.8741L52.5966 106.133H68.6638L67.3821 108.25Z" fill="#FF9B29"/>
<path d="M72.0237 132.46H49.2388V136.403H72.0237V132.46Z" fill="#FFD161"/>
<path d="M72.0237 136.402H49.2388L50.5205 138.507H70.7482L72.0237 136.402Z" fill="#FF9B29"/>
<path d="M68.6639 126.653H52.5074V128.185H68.6639V126.653Z" fill="#FFD161"/>
<path d="M48.9091 185.805H28.4242L30.9441 180.11H47.366L48.9091 185.805Z" fill="#FFB561"/>
<path d="M68.5747 185.805H89.0596L86.5397 180.11H70.657L68.5747 185.805Z" fill="#FF9B29"/>
<path d="M72.2996 185.805H92.7844L90.2645 180.11H73.8447L72.2996 185.805Z" fill="#FFB561"/>
<path d="M58.6339 98.2225C59.3132 98.2225 59.8638 97.6719 59.8638 96.9926C59.8638 96.3134 59.3132 95.7627 58.6339 95.7627C57.9547 95.7627 57.4041 96.3134 57.4041 96.9926C57.4041 97.6719 57.9547 98.2225 58.6339 98.2225Z" fill="white"/>
<path d="M96.2749 185.807H25V190.7H96.2749V185.807Z" fill="#ADADAD"/>
<path d="M233.648 297.117L188.168 212.909L142.715 297.117H233.648Z" fill="#71A3E3"/>
<path d="M166.131 253.622L183.474 234.601L188.099 247.939L193.455 234.601L210.217 253.622L188.168 212.798L166.131 253.622Z" fill="white"/>
<path d="M153.504 277.08L159.361 289.27L174.859 269.853L186.891 283.152L201.216 275.941L188.099 247.942L193.454 234.604L210.217 253.678L233.648 297.117H142.724L153.504 277.08Z" fill="#5C84B8"/>
<path d="M220.067 271.557L216.286 264.94L181.533 297.117H233.649L220.067 271.557Z" fill="#4E709C"/>
<path d="M261.37 297.117L228.783 253.732L196.217 297.117H261.37Z" fill="#71A3E3"/>
<path d="M212.994 274.655L225.42 264.856L228.733 271.727L232.571 264.856L244.581 274.655L228.783 253.622L212.994 274.655Z" fill="#E3E3E3"/>
<path d="M203.947 286.768L208.143 293.033L219.248 283.024L227.868 289.87L238.131 286.155L228.734 271.727L232.571 264.856L244.581 274.711L261.37 297.117H196.222L203.947 286.768Z" fill="#5C84B8"/>
<path d="M162.068 288.962H161.635H161.209L160.692 297.117H161.635H162.582L162.068 288.962Z" fill="#8A532D"/>
<path d="M164.778 285.735H165.762C166.008 285.735 166.104 285.257 165.917 285.024L163.949 282.564C163.762 282.332 163.866 281.853 164.102 281.853H164.55C164.796 281.853 164.892 281.375 164.705 281.142L163.108 279.147C162.921 278.901 163.024 278.436 163.263 278.436C163.509 278.436 163.605 277.959 163.418 277.725L161.785 275.685C161.768 275.66 161.745 275.638 161.718 275.624C161.691 275.609 161.66 275.601 161.63 275.601C161.599 275.601 161.568 275.609 161.541 275.624C161.514 275.638 161.491 275.66 161.475 275.685L159.846 277.725C159.659 277.959 159.763 278.436 160.001 278.436C160.247 278.436 160.341 278.913 160.156 279.147L158.562 281.142C158.375 281.388 158.478 281.853 158.717 281.853H159.16C159.406 281.853 159.502 282.345 159.315 282.564L157.347 285.024C157.16 285.27 157.263 285.735 157.502 285.735H158.486C158.732 285.735 158.828 286.212 158.641 286.446L154.86 291.149C154.673 291.383 154.776 291.86 155.015 291.86H168.249C168.495 291.86 168.591 291.383 168.402 291.149L164.619 286.446C164.437 286.214 164.542 285.735 164.778 285.735Z" fill="#62E07B"/>
<path d="M171.413 291.065H171.103H170.793L170.419 297.117H171.103H171.787L171.413 291.065Z" fill="#8A532D"/>
<path d="M173.369 288.834H174.082C174.257 288.834 174.328 288.49 174.195 288.32L172.771 286.549C172.636 286.382 172.709 286.035 172.882 286.035H173.204C173.376 286.035 173.45 285.69 173.317 285.521L172.163 284.077C172.028 283.907 172.102 283.562 172.274 283.562C172.446 283.562 172.52 283.218 172.385 283.048L171.204 281.572C171.192 281.553 171.176 281.537 171.156 281.526C171.137 281.515 171.114 281.509 171.092 281.509C171.069 281.509 171.047 281.515 171.028 281.526C171.008 281.537 170.992 281.553 170.98 281.572L169.802 283.048C169.666 283.218 169.74 283.562 169.912 283.562C170.085 283.562 170.158 283.907 170.026 284.077L168.872 285.521C168.736 285.69 168.813 286.035 168.985 286.035H169.305C169.477 286.035 169.551 286.382 169.418 286.549L167.994 288.32C167.858 288.49 167.934 288.834 168.107 288.834H168.818C168.99 288.834 169.064 289.181 168.928 289.348L166.193 292.753C166.058 292.92 166.134 293.267 166.306 293.267H175.88C176.052 293.267 176.126 292.92 175.993 292.753L173.255 289.348C173.123 289.181 173.204 288.834 173.369 288.834Z" fill="#62E07B"/>
<path d="M234.849 292.908H234.63H234.411L234.146 297.117H234.63H235.115L234.849 292.908Z" fill="#8A532D"/>
<path d="M236.239 291.258H236.731C236.854 291.258 236.908 291.012 236.809 290.891L235.803 289.639C235.707 289.521 235.759 289.275 235.882 289.275H236.111C236.231 289.275 236.286 289.029 236.19 288.911L235.373 287.887C235.277 287.769 235.329 287.526 235.452 287.526C235.575 287.526 235.626 287.28 235.533 287.162L234.696 286.116C234.688 286.103 234.676 286.092 234.662 286.085C234.648 286.077 234.632 286.073 234.616 286.073C234.601 286.073 234.585 286.077 234.571 286.085C234.557 286.092 234.545 286.103 234.536 286.116L233.703 287.162C233.607 287.28 233.661 287.526 233.781 287.526C233.904 287.526 233.956 287.772 233.86 287.887L233.046 288.911C232.95 289.031 233.001 289.275 233.124 289.275H233.351C233.474 289.275 233.525 289.521 233.432 289.639L232.423 290.891C232.327 291.012 232.381 291.258 232.502 291.258H232.994C233.117 291.258 233.169 291.504 233.073 291.622L231.137 294.03C231.041 294.148 231.095 294.394 231.218 294.394H237.995C238.116 294.394 238.17 294.148 238.074 294.03L236.135 291.619C236.064 291.501 236.116 291.258 236.239 291.258Z" fill="#62E07B"/>
<path d="M223.801 282.911H223.58H223.361L223.098 287.12H223.58H224.064L223.801 282.911Z" fill="#8A532D"/>
<path d="M225.191 281.26H225.683C225.804 281.26 225.858 281.014 225.762 280.896L224.753 279.641C224.657 279.523 224.711 279.277 224.832 279.277H225.061C225.184 279.277 225.235 279.031 225.139 278.913L224.323 277.892C224.227 277.772 224.281 277.528 224.401 277.528C224.522 277.528 224.576 277.282 224.48 277.164L223.644 276.121C223.636 276.107 223.624 276.096 223.61 276.088C223.597 276.08 223.581 276.076 223.565 276.076C223.549 276.076 223.533 276.08 223.52 276.088C223.506 276.096 223.494 276.107 223.486 276.121L222.65 277.164C222.556 277.285 222.608 277.528 222.731 277.528C222.852 277.528 222.906 277.774 222.81 277.892L221.993 278.916C221.897 279.034 221.951 279.277 222.074 279.277H222.301C222.421 279.277 222.475 279.523 222.379 279.641L221.373 280.896C221.277 281.014 221.329 281.26 221.452 281.26H221.944C222.064 281.26 222.119 281.506 222.023 281.624L220.087 284.032C219.991 284.153 220.045 284.396 220.165 284.396H226.943C227.066 284.396 227.117 284.15 227.021 284.032L225.085 281.624C225.014 281.503 225.068 281.26 225.191 281.26Z" fill="#62E07B"/>
<path d="M180.756 290.013H180.385H180.016L179.57 297.117H180.385H181.204L180.756 290.013Z" fill="#8A532D"/>
<path d="M183.1 287.257H183.954C184.161 287.257 184.249 286.844 184.087 286.642L182.387 284.529C182.225 284.328 182.313 283.914 182.52 283.914H182.906C183.11 283.914 183.201 283.501 183.039 283.299L181.659 281.577C181.499 281.373 181.588 280.962 181.794 280.962C181.998 280.962 182.089 280.549 181.927 280.347L180.515 278.586C180.5 278.564 180.481 278.545 180.457 278.533C180.434 278.52 180.408 278.513 180.381 278.513C180.354 278.513 180.328 278.52 180.305 278.533C180.281 278.545 180.261 278.564 180.247 278.586L178.84 280.347C178.677 280.549 178.768 280.962 178.973 280.962C179.179 280.962 179.268 281.373 179.108 281.575L177.73 283.297C177.568 283.499 177.659 283.912 177.863 283.912H178.247C178.453 283.912 178.542 284.323 178.382 284.524L176.682 286.64C176.52 286.842 176.608 287.255 176.815 287.255H177.666C177.87 287.255 177.961 287.668 177.799 287.87L174.532 291.934C174.37 292.136 174.458 292.549 174.665 292.549H186.102C186.308 292.549 186.397 292.136 186.234 291.934L182.965 287.87C182.805 287.671 182.896 287.257 183.1 287.257Z" fill="#62E07B"/>
<path d="M228.898 237.925C228.899 238.618 229.175 239.283 229.666 239.774C230.157 240.264 230.822 240.54 231.516 240.54H256.903C257.246 240.54 257.587 240.472 257.904 240.341C258.222 240.21 258.51 240.017 258.753 239.775C258.997 239.532 259.189 239.243 259.321 238.926C259.453 238.608 259.52 238.268 259.52 237.925C259.52 237.23 259.245 236.565 258.754 236.074C258.263 235.583 257.597 235.307 256.903 235.307H250.896C250.202 235.307 249.537 235.032 249.046 234.541C248.556 234.051 248.281 233.386 248.281 232.692C248.28 231.998 248.004 231.333 247.513 230.842C247.022 230.351 246.357 230.075 245.663 230.075H218.141C217.447 230.075 216.782 230.351 216.291 230.842C215.801 231.333 215.526 231.998 215.526 232.692C215.526 233.386 215.801 234.051 216.292 234.541C216.782 235.032 217.447 235.307 218.141 235.307H226.281C226.975 235.307 227.641 235.583 228.132 236.074C228.622 236.565 228.898 237.23 228.898 237.925Z" fill="white"/>
<path d="M182.564 194.552C182.564 194.086 182.473 193.624 182.295 193.193C182.116 192.762 181.855 192.37 181.525 192.041C181.196 191.711 180.804 191.449 180.373 191.27C179.943 191.092 179.481 191 179.014 191H144.552C144.086 191 143.624 191.091 143.192 191.27C142.761 191.448 142.37 191.71 142.04 192.04C141.71 192.37 141.448 192.761 141.27 193.192C141.091 193.624 141 194.086 141 194.552C141 195.019 141.092 195.48 141.27 195.911C141.449 196.342 141.711 196.733 142.041 197.063C142.37 197.393 142.762 197.654 143.193 197.833C143.624 198.011 144.086 198.102 144.552 198.102H152.705C153.646 198.103 154.549 198.477 155.215 199.143C155.881 199.809 156.254 200.713 156.254 201.654C156.255 202.596 156.63 203.499 157.296 204.165C157.962 204.831 158.865 205.206 159.807 205.207H197.162C198.104 205.207 199.007 204.832 199.674 204.166C200.34 203.5 200.714 202.596 200.714 201.654C200.714 200.712 200.34 199.809 199.674 199.142C199.007 198.476 198.104 198.102 197.162 198.102H186.114C185.173 198.101 184.27 197.727 183.605 197.062C182.939 196.396 182.565 195.493 182.564 194.552Z" fill="white"/>
<path d="M236.832 272.386V256.603" stroke="#4A4A4A" stroke-width="3" stroke-miterlimit="10"/>
<path d="M261.56 297.117V289.75" stroke="#4A4A4A" stroke-width="3" stroke-miterlimit="10"/>
<path d="M233.11 251.935L264 293.105" stroke="#4A4A4A" stroke-width="3" stroke-miterlimit="10"/>
<path d="M234.596 272.52H239.068" stroke="#4A4A4A" stroke-width="3" stroke-miterlimit="10"/>
<path d="M247.09 270.283V273.966" stroke="#4A4A4A" stroke-width="3" stroke-miterlimit="10"/>
<path d="M250.716 274.803C250.716 274.274 250.386 273.77 249.857 273.77H244.199C243.936 273.787 243.688 273.903 243.506 274.095C243.324 274.286 243.22 274.539 243.215 274.803V275.787H250.713V274.803H250.716Z" fill="#FF6650"/>
<path d="M243.275 275.809V279.095C243.273 279.218 243.296 279.34 243.343 279.454C243.389 279.567 243.459 279.67 243.546 279.757C243.634 279.843 243.738 279.91 243.852 279.955C243.967 280 244.089 280.021 244.212 280.018H249.87C250.399 280.018 250.655 279.624 250.655 279.095V275.809H243.275Z" fill="#E3E3E3"/>
<path d="M248.386 276.273H245.548V278.51H248.386V276.273Z" fill="#4A4A4A"/>
<path d="M47.7046 515.68C72.193 515.68 92.0447 495.828 92.0447 471.34C92.0447 446.852 72.193 427 47.7046 427C23.2162 427 3.3645 446.852 3.3645 471.34C3.3645 495.828 23.2162 515.68 47.7046 515.68Z" fill="#414141"/>
<path d="M47.7046 427C41.7048 426.993 35.7664 428.208 30.2516 430.571L38.9054 439.398L47.7027 436.101H67.2498V431.534C61.169 428.543 54.4813 426.992 47.7046 427Z" fill="#FFD161"/>
<path d="M49.7489 436.164C44.6408 432.617 38.1595 430.829 31.0261 430.251C14.8047 436.841 3.3644 452.755 3.3644 471.344C3.3579 477.657 4.70283 483.898 7.30878 489.649C9.91472 495.399 13.7213 500.525 18.4727 504.682C6.6519 454.552 49.7489 436.164 49.7489 436.164Z" fill="#FF6650"/>
<path d="M45.6602 436.164C50.7683 432.617 57.2496 430.829 64.3811 430.251C80.6044 436.841 92.0446 452.755 92.0446 471.344C92.0512 477.657 90.7062 483.898 88.1003 489.649C85.4943 495.399 81.6877 500.525 76.9363 504.682C88.7629 454.552 45.6602 436.164 45.6602 436.164Z" fill="#38D4B8"/>
<path d="M47.7045 439.458C52.6011 439.458 56.5706 437.982 56.5706 436.161C56.5706 434.34 52.6011 432.864 47.7045 432.864C42.8079 432.864 38.8384 434.34 38.8384 436.161C38.8384 437.982 42.8079 439.458 47.7045 439.458Z" fill="white"/>
<path d="M94.7871 513.619C93.6128 513.119 65.8192 501.4 48.0679 501.4C30.3165 501.4 2.04294 513.116 0.847657 513.613C0.164914 513.898 -0.150653 514.449 0.0692782 514.965C0.28921 515.481 0.996825 515.837 1.80005 515.837H93.8232C94.6226 515.837 95.3264 515.483 95.5444 514.971C95.7624 514.458 95.4564 513.9 94.7871 513.619Z" fill="#FFD161"/>
<path d="M284.024 1.66162L307.23 8.73599L284.024 15.8103V1.66162Z" fill="#FF6650"/>
<path d="M284.321 35.7879V0" stroke="#8A532D" stroke-width="7" stroke-miterlimit="10"/>
<path d="M298.021 92.2253L284.11 29.8193H334.086L370.147 92.2253H298.021Z" fill="#FFB561"/>
<path d="M248.049 92.2251L284.11 29.7627L320.175 92.2251H248.049Z" fill="#FFD161"/>
<path d="M273.668 92.2136L284.11 48.7241L299.504 92.2255L273.668 92.2136Z" fill="#8A532D"/>
<path d="M284.11 48.7241L276.748 92.2136L268.716 92.2255L284.11 48.7241Z" fill="#6E4224"/>
<path d="M289.143 21.6157L284.146 30.2684L279.149 21.6157H289.143Z" fill="#FFD161"/>
<path d="M322.909 92.1779L332.902 87.2051V92.1779H322.909Z" fill="#FFD161"/>
<path d="M338.868 21.6157L333.872 30.2684L328.875 21.6157H338.868Z" fill="#FFB561"/>
<path d="M322.879 82.1191H320.175V92.2254H322.879V82.1191Z" fill="#8A532D"/>
<path d="M248.049 82.1191H245.344V92.2254H248.049V82.1191Z" fill="#8A532D"/>
<path d="M323.762 90.6294H319.286V92.2256H323.762V90.6294Z" fill="#FFD161"/>
<path d="M373.631 92.1779L383.621 87.2051V92.1779H373.631Z" fill="#FFB561"/>
<path d="M373.598 82.1191H370.893V92.2254H373.598V82.1191Z" fill="#6E4224"/>
<path d="M374.484 90.6294H370.007V92.2256H374.484V90.6294Z" fill="#FFB561"/>
<path d="M244.993 92.1779L235 87.2051V92.1779H244.993Z" fill="#FFD161"/>
<path d="M248.617 90.6294H244.14V92.2256H248.617V90.6294Z" fill="#FFD161"/>
<path d="M369.559 364.541C369.204 360.118 367.125 355.556 363.702 351.693C360.279 347.83 356.001 345.217 351.644 344.324C347.156 343.413 342.962 344.438 339.836 347.207C339.726 347.304 339.66 347.441 339.651 347.588C339.642 347.734 339.692 347.879 339.789 347.988L342.848 351.443C342.946 351.552 343.084 351.619 343.23 351.628C343.303 351.633 343.375 351.623 343.444 351.599C343.513 351.576 343.576 351.538 343.63 351.49L347.649 347.917L350.193 350.789L346.173 354.361C346.118 354.409 346.074 354.467 346.042 354.532C346.01 354.597 345.992 354.668 345.988 354.741C345.979 354.888 346.028 355.032 346.124 355.143L348.091 357.362C348.189 357.472 348.326 357.538 348.473 357.547C348.619 357.556 348.763 357.506 348.873 357.409L352.892 353.837L355.436 356.708L351.416 360.281C351.307 360.379 351.24 360.516 351.231 360.663C351.226 360.735 351.236 360.808 351.26 360.877C351.284 360.945 351.321 361.008 351.369 361.062L353.337 363.284C353.434 363.394 353.571 363.46 353.718 363.469C353.864 363.477 354.008 363.428 354.118 363.331L358.138 359.758L360.683 362.63L356.664 366.203C356.554 366.301 356.488 366.438 356.479 366.585C356.474 366.657 356.484 366.73 356.507 366.798C356.531 366.867 356.568 366.93 356.617 366.984L358.584 369.204C358.632 369.259 358.69 369.303 358.755 369.336C358.82 369.368 358.891 369.387 358.964 369.392C359.111 369.4 359.255 369.35 359.366 369.253L363.385 365.68L366.056 368.699L363.823 373.319C363.761 373.445 363.749 373.589 363.789 373.723L364.383 375.666C364.411 375.755 364.46 375.835 364.526 375.899C364.592 375.964 364.674 376.011 364.763 376.037C364.812 376.05 364.862 376.057 364.912 376.057C365.048 376.058 365.179 376.008 365.281 375.918C368.403 373.147 369.923 369.108 369.559 364.541Z" fill="#4FB463"/>
<path d="M393.383 347.22C390.257 344.449 386.065 343.424 381.575 344.335C377.227 345.228 372.947 347.832 369.517 351.704C366.087 355.576 364.015 360.129 363.662 364.553C363.298 369.119 364.819 373.159 367.942 375.941C368.044 376.031 368.175 376.08 368.311 376.079C368.355 376.08 368.4 376.074 368.443 376.064C368.53 376.043 368.61 376.001 368.678 375.942C368.745 375.883 368.797 375.808 368.829 375.724L369.568 373.782C369.595 373.709 369.607 373.633 369.602 373.556C369.598 373.479 369.578 373.404 369.544 373.335L367.172 368.693L369.832 365.691L373.851 369.264C373.961 369.361 374.104 369.411 374.251 369.403C374.324 369.398 374.395 369.379 374.46 369.347C374.526 369.315 374.584 369.27 374.632 369.215L376.6 366.996C376.648 366.942 376.686 366.878 376.709 366.81C376.733 366.741 376.743 366.668 376.738 366.596C376.729 366.449 376.662 366.312 376.553 366.214L372.533 362.641L375.079 359.77L379.098 363.342C379.209 363.439 379.352 363.489 379.499 363.48C379.645 363.471 379.782 363.405 379.88 363.296L381.847 361.074C381.896 361.02 381.933 360.956 381.957 360.888C381.981 360.819 381.99 360.746 381.986 360.674C381.977 360.527 381.91 360.39 381.8 360.292L377.781 356.719L380.324 353.848L384.344 357.421C384.454 357.518 384.598 357.568 384.744 357.559C384.891 357.55 385.028 357.483 385.125 357.374L387.092 355.154C387.189 355.043 387.238 354.899 387.229 354.752C387.225 354.68 387.207 354.609 387.175 354.543C387.143 354.478 387.098 354.42 387.043 354.373L383.024 350.8L385.567 347.928L389.587 351.501C389.697 351.598 389.84 351.647 389.986 351.639C390.133 351.63 390.27 351.564 390.368 351.454L393.427 348C393.476 347.946 393.513 347.883 393.537 347.814C393.562 347.746 393.572 347.673 393.568 347.601C393.563 347.528 393.545 347.457 393.513 347.392C393.482 347.327 393.437 347.268 393.383 347.22Z" fill="#4FB463"/>
<path d="M376.921 361.411L379.099 363.34C379.208 363.438 379.352 363.487 379.499 363.479C379.646 363.47 379.783 363.403 379.88 363.293L381.847 361.074C381.882 361.03 381.911 360.983 381.934 360.933C380.25 360.895 378.568 361.056 376.921 361.411Z" fill="#62E07B"/>
<path d="M351.293 360.929C351.315 360.98 351.344 361.028 351.381 361.069L353.348 363.289C353.445 363.399 353.582 363.465 353.729 363.474C353.875 363.483 354.019 363.433 354.129 363.336L356.304 361.407C354.658 361.051 352.977 360.891 351.293 360.929Z" fill="#62E07B"/>
<path d="M366.614 368.967C365.33 366.323 363.173 364.253 360.447 362.875L356.673 366.225C356.563 366.323 356.497 366.46 356.487 366.607C356.483 366.679 356.493 366.752 356.516 366.821C356.54 366.889 356.577 366.952 356.626 367.006L357.729 368.25L361.262 367.281L361.389 367.489L363.399 365.702L363.622 365.95C363.617 367.844 363.993 369.719 364.727 371.464L364.325 372.294L364.439 372.482C364.508 372.598 364.617 372.684 364.745 372.726C364.873 372.767 365.012 372.759 365.136 372.705L366.616 372.035L368.095 372.705C368.218 372.759 368.357 372.767 368.485 372.726C368.614 372.684 368.722 372.598 368.791 372.482L368.97 372.189L368.543 371.365C369.251 369.648 369.613 367.808 369.608 365.95L369.832 365.702L371.841 367.489L371.969 367.281L375.504 368.25L376.604 367.006C376.653 366.952 376.69 366.889 376.714 366.821C376.738 366.752 376.748 366.679 376.743 366.607C376.734 366.46 376.667 366.323 376.557 366.225L372.786 362.875C370.053 364.244 367.896 366.314 366.614 368.967Z" fill="#62E07B"/>
<path d="M367.436 374.469C365.189 366.285 355.545 362.293 345.005 365.187C334.466 368.081 328.209 376.434 330.455 384.614C330.495 384.755 330.589 384.876 330.717 384.949C330.8 384.995 330.894 385.02 330.989 385.02C331.039 385.021 331.088 385.015 331.136 385.002L335.584 383.781C335.724 383.742 335.842 383.65 335.915 383.525C335.987 383.4 336.008 383.251 335.973 383.111L334.548 377.924L338.248 376.91L339.671 382.095C339.71 382.234 339.802 382.352 339.927 382.425C340.052 382.498 340.2 382.519 340.341 382.483L343.201 381.697C343.341 381.659 343.459 381.567 343.531 381.442C343.604 381.316 343.624 381.168 343.587 381.028L342.165 375.843L345.863 374.827L347.288 380.014C347.327 380.153 347.419 380.271 347.544 380.343C347.669 380.415 347.817 380.436 347.957 380.4L350.818 379.614C350.957 379.575 351.076 379.483 351.148 379.358C351.22 379.233 351.24 379.084 351.204 378.944L349.78 373.757L353.48 372.741L354.904 377.928C354.942 378.068 355.034 378.187 355.16 378.259C355.285 378.332 355.434 378.351 355.574 378.315L358.435 377.531C358.574 377.492 358.692 377.4 358.765 377.275C358.837 377.15 358.858 377.001 358.823 376.861L357.398 371.674L361.23 370.622L364.406 375.827C364.474 375.943 364.583 376.03 364.712 376.071C364.84 376.112 364.979 376.105 365.102 376.05L367.094 375.157C367.229 375.109 367.34 375.011 367.404 374.882C367.468 374.754 367.479 374.606 367.436 374.469Z" fill="#4FB463"/>
<path d="M388.223 365.187C377.683 362.284 368.039 366.285 365.79 374.469C365.755 374.597 365.767 374.734 365.824 374.854C365.881 374.974 365.979 375.069 366.1 375.123L368.092 376.016C368.216 376.071 368.355 376.079 368.483 376.038C368.612 375.996 368.721 375.909 368.789 375.793L371.964 370.59L375.796 371.642L374.371 376.827C374.336 376.967 374.357 377.116 374.43 377.241C374.502 377.366 374.621 377.458 374.76 377.497L377.62 378.283C377.761 378.319 377.909 378.298 378.035 378.225C378.16 378.153 378.252 378.034 378.29 377.894L379.715 372.707L383.415 373.723L381.99 378.91C381.955 379.05 381.976 379.198 382.048 379.324C382.12 379.449 382.238 379.541 382.377 379.58L385.237 380.364C385.377 380.4 385.525 380.379 385.651 380.307C385.776 380.235 385.868 380.117 385.907 379.978L387.332 374.791L391.029 375.807L389.607 380.992C389.571 381.132 389.591 381.28 389.663 381.406C389.735 381.531 389.854 381.623 389.993 381.661L392.854 382.447C392.994 382.482 393.142 382.462 393.267 382.389C393.393 382.316 393.484 382.198 393.524 382.059L394.946 376.874L398.646 377.888L397.221 383.075C397.186 383.215 397.207 383.364 397.28 383.489C397.352 383.614 397.471 383.706 397.61 383.745L402.058 384.966C402.106 384.979 402.156 384.986 402.206 384.986C402.301 384.987 402.395 384.961 402.478 384.913C402.541 384.877 402.597 384.829 402.642 384.771C402.687 384.714 402.72 384.648 402.739 384.578C405.017 376.434 398.762 368.074 388.223 365.187Z" fill="#4FB463"/>
<path d="M369.562 411.519C369.471 411.658 369.349 411.774 369.205 411.858C369.061 411.941 368.899 411.99 368.733 411.999H364.491C364.325 411.99 364.163 411.941 364.02 411.858C363.876 411.774 363.754 411.658 363.664 411.519L361.536 407.774C361.387 407.511 361.512 407.294 361.818 407.294H371.415C371.719 407.294 371.846 407.517 371.694 407.774L369.562 411.519Z" fill="#B56D3B"/>
<path d="M369.528 406.794C369.449 406.938 369.335 407.059 369.196 407.147C369.056 407.235 368.897 407.285 368.733 407.294H364.49C364.326 407.284 364.168 407.234 364.029 407.146C363.889 407.059 363.775 406.937 363.696 406.794L361.503 402.254C361.467 402.203 361.447 402.142 361.445 402.079C361.444 402.016 361.461 401.955 361.494 401.901C361.528 401.848 361.576 401.806 361.633 401.78C361.69 401.755 361.753 401.746 361.815 401.756H371.417C371.479 401.746 371.543 401.755 371.6 401.78C371.657 401.806 371.705 401.848 371.738 401.901C371.772 401.955 371.789 402.016 371.787 402.079C371.786 402.142 371.766 402.203 371.73 402.254L369.528 406.794Z" fill="#8A532D"/>
<path d="M369.548 401.269C369.462 401.411 369.343 401.529 369.201 401.614C369.059 401.699 368.898 401.747 368.733 401.756H364.49C364.325 401.747 364.165 401.698 364.023 401.613C363.881 401.528 363.762 401.41 363.675 401.269L361.525 397.25C361.487 397.202 361.465 397.143 361.461 397.082C361.457 397.021 361.472 396.96 361.503 396.907C361.534 396.854 361.581 396.812 361.637 396.787C361.693 396.761 361.755 396.753 361.815 396.763H371.417C371.478 396.753 371.54 396.761 371.595 396.787C371.651 396.812 371.698 396.854 371.729 396.907C371.761 396.96 371.775 397.021 371.772 397.082C371.768 397.143 371.745 397.202 371.707 397.25L369.548 401.269Z" fill="#B56D3B"/>
<path d="M369.562 396.292C369.471 396.432 369.349 396.548 369.205 396.632C369.061 396.716 368.899 396.765 368.733 396.775H364.491C364.325 396.765 364.163 396.716 364.02 396.632C363.876 396.548 363.754 396.432 363.664 396.292L361.536 392.55C361.387 392.284 361.512 392.067 361.818 392.067H371.415C371.719 392.067 371.846 392.291 371.694 392.55L369.562 396.292Z" fill="#8A532D"/>
<path d="M369.562 391.585C369.472 391.725 369.349 391.842 369.205 391.926C369.061 392.01 368.9 392.058 368.733 392.067H364.491C364.324 392.058 364.163 392.01 364.019 391.926C363.876 391.842 363.754 391.725 363.664 391.585L361.536 387.843C361.387 387.579 361.512 387.36 361.818 387.36H371.415C371.719 387.36 371.846 387.584 371.694 387.843L369.562 391.585Z" fill="#B56D3B"/>
<path d="M369.528 386.862C369.449 387.006 369.334 387.128 369.195 387.215C369.056 387.302 368.897 387.352 368.733 387.36H364.49C364.327 387.351 364.168 387.301 364.029 387.214C363.89 387.127 363.775 387.006 363.696 386.862L361.503 382.323C361.467 382.271 361.447 382.211 361.445 382.148C361.444 382.085 361.461 382.023 361.494 381.97C361.528 381.917 361.576 381.875 361.633 381.849C361.69 381.823 361.753 381.815 361.815 381.825H371.417C371.479 381.815 371.543 381.823 371.6 381.849C371.657 381.875 371.705 381.917 371.738 381.97C371.772 382.023 371.789 382.085 371.787 382.148C371.786 382.211 371.766 382.271 371.73 382.323L369.528 386.862Z" fill="#8A532D"/>
<path d="M369.562 381.342C369.472 381.483 369.349 381.599 369.205 381.683C369.061 381.767 368.9 381.816 368.733 381.825H364.491C364.324 381.815 364.163 381.767 364.019 381.683C363.876 381.599 363.754 381.482 363.664 381.342L361.536 377.6C361.387 377.334 361.512 377.118 361.818 377.118H371.415C371.719 377.118 371.846 377.341 371.694 377.6L369.562 381.342Z" fill="#B56D3B"/>
<path d="M369.562 376.637C369.471 376.777 369.349 376.893 369.205 376.976C369.061 377.06 368.899 377.108 368.733 377.117H364.491C364.325 377.108 364.163 377.06 364.02 376.976C363.876 376.893 363.754 376.777 363.664 376.637L361.536 372.893C361.387 372.629 361.512 372.413 361.818 372.413H371.415C371.719 372.413 371.846 372.636 371.694 372.893L369.562 376.637Z" fill="#8A532D"/>
<path d="M369.562 451.105C369.471 451.244 369.35 451.361 369.206 451.445C369.063 451.529 368.901 451.577 368.735 451.587H364.493C364.327 451.578 364.166 451.53 364.022 451.446C363.879 451.363 363.757 451.247 363.667 451.107L361.539 447.362C361.389 447.099 361.514 446.882 361.82 446.882H371.415C371.719 446.882 371.846 447.106 371.694 447.362L369.562 451.105Z" fill="#B56D3B"/>
<path d="M369.528 446.382C369.449 446.526 369.334 446.647 369.195 446.734C369.056 446.821 368.897 446.871 368.733 446.88H364.49C364.327 446.871 364.168 446.82 364.029 446.733C363.89 446.646 363.775 446.525 363.695 446.382L361.503 441.843C361.467 441.791 361.447 441.73 361.446 441.667C361.445 441.605 361.462 441.543 361.495 441.49C361.528 441.437 361.576 441.395 361.633 441.368C361.69 441.342 361.753 441.333 361.815 441.342H371.417C371.479 441.333 371.542 441.342 371.599 441.368C371.656 441.395 371.704 441.437 371.737 441.49C371.771 441.543 371.788 441.605 371.786 441.667C371.785 441.73 371.765 441.791 371.73 441.843L369.528 446.382Z" fill="#8A532D"/>
<path d="M369.562 440.869C369.471 441.008 369.349 441.125 369.205 441.208C369.061 441.291 368.899 441.34 368.733 441.349H364.491C364.325 441.34 364.163 441.291 364.02 441.208C363.876 441.124 363.754 441.008 363.664 440.869L361.536 437.124C361.387 436.861 361.512 436.644 361.818 436.644H371.415C371.719 436.644 371.846 436.867 371.694 437.124L369.562 440.869Z" fill="#B56D3B"/>
<path d="M369.548 436.148C369.462 436.29 369.343 436.408 369.201 436.494C369.059 436.579 368.899 436.628 368.733 436.637H364.49C364.325 436.628 364.165 436.578 364.023 436.493C363.881 436.408 363.762 436.29 363.675 436.148L361.525 432.142C361.486 432.094 361.463 432.035 361.459 431.973C361.455 431.912 361.469 431.85 361.501 431.797C361.532 431.744 361.579 431.702 361.636 431.676C361.692 431.65 361.755 431.642 361.815 431.653H371.417C371.478 431.642 371.541 431.65 371.597 431.676C371.653 431.702 371.7 431.744 371.732 431.797C371.763 431.85 371.778 431.912 371.774 431.973C371.769 432.035 371.746 432.094 371.707 432.142L369.548 436.148Z" fill="#8A532D"/>
<path d="M369.562 431.174C369.471 431.313 369.349 431.429 369.205 431.513C369.061 431.596 368.899 431.644 368.733 431.654H364.491C364.325 431.644 364.163 431.596 364.02 431.513C363.876 431.429 363.754 431.313 363.664 431.174L361.536 427.429C361.387 427.165 361.512 426.949 361.818 426.949H371.415C371.719 426.949 371.846 427.172 371.694 427.429L369.562 431.174Z" fill="#B56D3B"/>
<path d="M369.528 426.448C369.449 426.593 369.335 426.714 369.195 426.802C369.056 426.889 368.897 426.94 368.733 426.949H364.49C364.326 426.939 364.167 426.888 364.028 426.801C363.889 426.713 363.775 426.592 363.695 426.448L361.503 421.911C361.467 421.859 361.447 421.798 361.446 421.736C361.445 421.673 361.462 421.611 361.495 421.558C361.528 421.505 361.576 421.463 361.633 421.437C361.69 421.411 361.753 421.401 361.815 421.411H371.417C371.479 421.401 371.542 421.411 371.599 421.437C371.656 421.463 371.704 421.505 371.737 421.558C371.771 421.611 371.788 421.673 371.786 421.736C371.785 421.798 371.765 421.859 371.73 421.911L369.528 426.448Z" fill="#8A532D"/>
<path d="M369.562 420.931C369.471 421.07 369.349 421.187 369.205 421.27C369.061 421.353 368.899 421.402 368.733 421.411H364.491C364.325 421.402 364.163 421.353 364.02 421.27C363.876 421.186 363.754 421.07 363.664 420.931L361.536 417.186C361.387 416.923 361.512 416.706 361.818 416.706H371.415C371.719 416.706 371.846 416.929 371.694 417.186L369.562 420.931Z" fill="#B56D3B"/>
<path d="M369.562 416.224C369.472 416.364 369.349 416.481 369.205 416.565C369.061 416.648 368.9 416.697 368.733 416.706H364.491C364.324 416.697 364.163 416.648 364.019 416.564C363.876 416.481 363.754 416.364 363.664 416.224L361.536 412.481C361.387 412.216 361.512 411.999 361.818 411.999H371.415C371.719 411.999 371.846 412.222 371.694 412.481L369.562 416.224Z" fill="#8A532D"/>
<path d="M387.559 454.671C387.037 454.448 374.644 449.223 366.728 449.223C358.812 449.223 346.204 454.446 345.673 454.669C345.369 454.796 345.226 455.042 345.325 455.272C345.405 455.402 345.519 455.507 345.656 455.576C345.792 455.644 345.945 455.674 346.097 455.66H387.131C387.282 455.673 387.434 455.643 387.57 455.575C387.706 455.507 387.82 455.403 387.901 455.274C387.999 455.044 387.861 454.798 387.559 454.671Z" fill="#FFD161"/>
</svg>
