<svg width="385" height="463" viewBox="0 0 385 463" fill="none" xmlns="http://www.w3.org/2000/svg">
<path fill-rule="evenodd" clip-rule="evenodd" d="M81.4812 453.42C75.3098 453.472 69.5498 453.448 64.285 453.375C63.1805 453.359 62.2727 454.242 62.2573 455.347C62.2419 456.451 63.1247 457.359 64.2292 457.374C69.5226 457.448 75.3126 457.472 81.5151 457.419C82.6196 457.41 83.5074 456.507 83.4981 455.403C83.4887 454.298 82.5857 453.41 81.4812 453.42ZM96.8088 455.145C96.8422 456.249 97.7643 457.117 98.8684 457.083C104.408 456.916 110.169 456.684 116.106 456.373C117.209 456.315 118.056 455.374 117.999 454.271C117.941 453.168 117 452.321 115.897 452.378C109.991 452.687 104.26 452.918 98.7474 453.085C97.6434 453.119 96.7754 454.041 96.8088 455.145ZM48.9704 454.997C49.0149 453.893 48.1563 452.962 47.0527 452.918C43.8073 452.787 40.9797 452.644 38.6183 452.504C37.5157 452.438 36.5688 453.279 36.5035 454.382C36.4382 455.484 37.2791 456.431 38.3817 456.497C40.77 456.638 43.6227 456.782 46.8913 456.914C47.995 456.959 48.9258 456.1 48.9704 454.997ZM131.264 453.424C131.347 454.526 132.308 455.351 133.409 455.268C139.049 454.841 144.8 454.339 150.629 453.753C151.728 453.642 152.529 452.661 152.419 451.562C152.308 450.463 151.327 449.662 150.228 449.773C144.434 450.356 138.717 450.855 133.108 451.279C132.006 451.362 131.181 452.323 131.264 453.424ZM165.578 450.061C165.718 451.157 166.72 451.931 167.816 451.791C173.497 451.064 179.221 450.249 184.959 449.339C186.05 449.166 186.794 448.142 186.621 447.051C186.448 445.96 185.423 445.216 184.332 445.389C178.636 446.292 172.952 447.101 167.308 447.824C166.212 447.964 165.437 448.966 165.578 450.061ZM199.678 444.761C199.887 445.845 200.936 446.555 202.021 446.345C207.693 445.249 213.352 444.051 218.969 442.742C220.045 442.491 220.714 441.416 220.463 440.34C220.213 439.265 219.137 438.596 218.062 438.846C212.497 440.143 206.888 441.331 201.262 442.418C200.177 442.627 199.468 443.676 199.678 444.761ZM233.307 437.058C233.604 438.122 234.708 438.743 235.772 438.445C241.381 436.875 246.919 435.18 252.357 433.352C253.404 433 253.967 431.866 253.616 430.819C253.264 429.772 252.129 429.209 251.082 429.561C245.714 431.366 240.242 433.04 234.694 434.593C233.63 434.891 233.009 435.994 233.307 437.058ZM266.023 426.239C266.438 427.263 267.604 427.756 268.628 427.341C274.081 425.129 279.392 422.759 284.529 420.221C285.519 419.731 285.925 418.532 285.435 417.542C284.946 416.551 283.746 416.145 282.756 416.635C277.715 419.126 272.494 421.456 267.124 423.634C266.101 424.049 265.608 425.215 266.023 426.239ZM297.049 411.167C297.625 412.109 298.856 412.406 299.799 411.829C304.838 408.747 309.641 405.459 314.166 401.952C315.039 401.276 315.199 400.02 314.522 399.146C313.846 398.273 312.589 398.114 311.716 398.791C307.317 402.2 302.636 405.405 297.711 408.417C296.769 408.993 296.473 410.224 297.049 411.167ZM324.458 390.36C325.246 391.134 326.512 391.123 327.286 390.334C331.42 386.125 335.192 381.654 338.553 376.905C339.191 376.003 338.977 374.755 338.076 374.117C337.174 373.479 335.926 373.692 335.288 374.594C332.059 379.157 328.426 383.465 324.432 387.532C323.658 388.32 323.67 389.586 324.458 390.36ZM344.732 362.687C345.733 363.153 346.923 362.72 347.39 361.719C349.833 356.472 351.824 350.947 353.313 345.13C353.587 344.06 352.942 342.971 351.872 342.697C350.802 342.422 349.713 343.068 349.439 344.138C348.01 349.713 346.104 355.005 343.764 360.03C343.297 361.031 343.731 362.221 344.732 362.687ZM354.005 329.696C355.106 329.783 356.069 328.961 356.156 327.859C356.384 324.968 356.5 322.015 356.5 319C356.5 315.602 356.151 312.346 355.473 309.225C355.239 308.146 354.174 307.461 353.094 307.696C352.015 307.93 351.33 308.995 351.565 310.075C352.18 312.907 352.5 315.878 352.5 319C352.5 321.912 352.388 324.76 352.168 327.545C352.082 328.646 352.904 329.609 354.005 329.696ZM346.842 294.372C347.724 293.707 347.899 292.453 347.234 291.571C343.53 286.662 338.826 282.238 333.319 278.212C332.428 277.56 331.176 277.754 330.524 278.646C329.872 279.538 330.067 280.789 330.959 281.441C336.22 285.287 340.62 289.447 344.041 293.98C344.706 294.862 345.961 295.037 346.842 294.372ZM317.797 271.062C318.291 270.073 317.89 268.872 316.901 268.379C311.496 265.679 305.663 263.172 299.486 260.819C298.453 260.426 297.298 260.944 296.905 261.976C296.512 263.008 297.03 264.164 298.062 264.557C304.141 266.873 309.849 269.328 315.114 271.957C316.102 272.451 317.303 272.05 317.797 271.062ZM282.918 257.184C283.247 256.13 282.658 255.008 281.604 254.68C275.749 252.855 269.684 251.118 263.461 249.444C262.394 249.158 261.297 249.79 261.01 250.856C260.723 251.923 261.355 253.02 262.422 253.307C268.605 254.97 274.618 256.692 280.413 258.499C281.468 258.827 282.589 258.239 282.918 257.184ZM246.643 247.201C246.904 246.128 246.245 245.047 245.172 244.786C239.151 243.324 233.034 241.897 226.862 240.485C225.786 240.239 224.713 240.912 224.467 241.989C224.221 243.066 224.894 244.138 225.971 244.385C232.132 245.794 238.231 247.217 244.228 248.673C245.301 248.934 246.383 248.275 246.643 247.201ZM210.024 238.733C210.266 237.655 209.588 236.586 208.51 236.344L208.146 236.263C202.158 234.92 196.158 233.576 190.178 232.211C189.101 231.965 188.029 232.639 187.783 233.716C187.538 234.793 188.211 235.865 189.288 236.111C195.276 237.477 201.284 238.824 207.271 240.165L207.635 240.247C208.713 240.489 209.783 239.811 210.024 238.733ZM173.362 230.344C173.621 229.27 172.961 228.19 171.887 227.931C165.744 226.449 159.666 224.927 153.692 223.346C152.624 223.063 151.53 223.7 151.247 224.768C150.965 225.836 151.601 226.93 152.669 227.213C158.677 228.803 164.784 230.332 170.949 231.819C172.023 232.078 173.103 231.418 173.362 230.344ZM137.029 220.771C137.348 219.713 136.748 218.598 135.691 218.279C129.567 216.436 123.614 214.505 117.88 212.463C116.84 212.093 115.696 212.636 115.325 213.676C114.955 214.717 115.498 215.861 116.538 216.231C122.344 218.299 128.361 220.251 134.538 222.11C135.596 222.428 136.711 221.828 137.029 220.771ZM101.58 208.254C102.025 207.244 101.567 206.063 100.557 205.617C94.6411 203.008 89.0825 200.229 83.9491 197.249C82.9939 196.694 81.7699 197.019 81.2153 197.974C80.6607 198.93 80.9855 200.154 81.9408 200.708C87.2227 203.775 92.9161 206.619 98.9426 209.277C99.9532 209.723 101.134 209.265 101.58 208.254ZM69.0686 189.604C69.7775 188.757 69.6654 187.495 68.8184 186.787C63.9246 182.691 59.7473 178.276 56.3865 173.491C55.7516 172.587 54.5042 172.369 53.6003 173.004C52.6964 173.639 52.4783 174.886 53.1132 175.79C56.7051 180.904 61.1331 185.571 66.2512 189.854C67.0983 190.563 68.3597 190.451 69.0686 189.604ZM47.2382 159.677C48.3029 159.383 48.9279 158.282 48.634 157.217C47.8476 154.368 47.2942 151.4 46.9904 148.305C46.6991 145.336 46.6175 142.475 46.7325 139.717C46.7786 138.614 45.9213 137.682 44.8177 137.636C43.7141 137.59 42.7821 138.447 42.736 139.55C42.6128 142.502 42.7009 145.55 43.0096 148.695C43.3353 152.015 43.9298 155.208 44.7781 158.281C45.072 159.346 46.1734 159.971 47.2382 159.677ZM47.5585 124.258C48.5874 124.66 49.7473 124.152 50.1493 123.123C52.2098 117.85 55.1498 113.011 58.8612 108.567C59.5692 107.719 59.4557 106.457 58.6079 105.749C57.76 105.042 56.4988 105.155 55.7908 106.003C51.8269 110.75 48.6545 115.958 46.4236 121.668C46.0216 122.696 46.5297 123.856 47.5585 124.258ZM68.6596 96.49C69.3129 97.3806 70.5646 97.5729 71.4552 96.9196C75.9046 93.6554 80.8628 90.6704 86.252 87.9423C87.2375 87.4434 87.632 86.2401 87.1331 85.2546C86.6343 84.2691 85.431 83.8746 84.4455 84.3735C78.8918 87.1848 73.7415 90.2814 69.0892 93.6943C68.1986 94.3477 68.0062 95.5993 68.6596 96.49ZM99.6893 79.8315C100.074 80.8671 101.225 81.395 102.26 81.0106C107.586 79.0338 113.174 77.2397 118.968 75.6117C120.031 75.313 120.651 74.2087 120.352 73.1453C120.053 72.0819 118.949 71.4621 117.885 71.7609C112.001 73.4144 106.309 75.2413 100.868 77.2606C99.8329 77.6449 99.305 78.796 99.6893 79.8315ZM133.61 69.8763C133.844 70.9559 134.908 71.6418 135.988 71.4082C141.642 70.1849 147.423 69.0903 153.286 68.1107C154.375 67.9286 155.111 66.8979 154.929 65.8084C154.747 64.7189 153.716 63.9833 152.626 64.1654C146.708 65.1543 140.865 66.2606 135.142 67.4986C134.063 67.7322 133.377 68.7967 133.61 69.8763ZM168.467 63.8215C168.608 64.9171 169.61 65.6913 170.705 65.5507C176.524 64.8043 182.377 64.1544 188.223 63.5884C189.323 63.482 190.128 62.5045 190.021 61.405C189.915 60.3056 188.937 59.5006 187.838 59.6071C181.954 60.1766 176.06 60.831 170.196 61.5832C169.101 61.7238 168.326 62.7259 168.467 63.8215ZM203.663 60.2689C203.741 61.3708 204.697 62.2007 205.799 62.1227C211.741 61.702 217.632 61.3563 223.427 61.0718C224.53 61.0177 225.381 60.0794 225.326 58.9762C225.272 57.873 224.334 57.0225 223.231 57.0767C217.41 57.3624 211.491 57.7098 205.516 58.1327C204.415 58.2107 203.585 59.1671 203.663 60.2689ZM238.981 58.4338C239.015 59.5379 239.938 60.405 241.042 60.3707C247.129 60.1814 253.045 60.0486 258.729 59.9542C259.833 59.9359 260.714 59.0257 260.696 57.9213C260.677 56.8169 259.767 55.9364 258.663 55.9547C252.962 56.0494 247.027 56.1826 240.918 56.3727C239.814 56.407 238.946 57.3298 238.981 58.4338ZM274.403 57.7713C274.41 58.8759 275.311 59.7656 276.415 59.7585C281.259 59.7277 285.835 59.7135 290.099 59.7002C291.469 59.6959 292.806 59.6918 294.11 59.6872C295.215 59.6833 296.107 58.7848 296.103 57.6802C296.099 56.5757 295.201 55.6834 294.096 55.6872C292.796 55.6918 291.461 55.696 290.093 55.7002C285.828 55.7135 281.242 55.7277 276.39 55.7586C275.285 55.7656 274.396 56.6668 274.403 57.7713ZM309.693 57.555C309.722 58.6592 310.641 59.5306 311.745 59.5014C315.495 59.4024 318.55 59.2463 320.736 58.9861C321.833 58.8556 322.616 57.8607 322.486 56.7638C322.355 55.667 321.361 54.8836 320.264 55.0141C318.271 55.2512 315.372 55.4042 311.64 55.5028C310.536 55.532 309.664 56.4508 309.693 57.555Z" fill="#19181E"/>
<path d="M80.3987 145.134H66.8618C67.6748 194.866 45.1491 220.936 45.1491 220.936H60.3639C63.4065 209.544 73.6375 208.669 73.6375 208.669C73.6375 208.669 83.8623 209.544 86.9111 220.936H102.128C102.128 220.936 79.5857 194.866 80.3987 145.134ZM68.7615 196.399L70.9517 175.586H76.3192L78.5114 196.399H68.7615Z" fill="#FF9B29"/>
<path d="M73.6292 136.27C73.4832 136.269 73.3434 136.211 73.2404 136.107C73.1374 136.004 73.0796 135.864 73.0796 135.718V124.552C73.0796 124.406 73.1374 124.266 73.2404 124.162C73.3434 124.059 73.4832 124 73.6292 124C73.7755 124 73.9158 124.058 74.0193 124.161C74.1227 124.265 74.1809 124.405 74.1809 124.552V135.718C74.1809 135.864 74.1227 136.005 74.0193 136.108C73.9158 136.212 73.7755 136.27 73.6292 136.27Z" fill="#FFB561"/>
<path d="M76.3192 177.559H70.9517L68.7615 192.456H78.5093L76.3192 177.559ZM71.8995 178.654H75.3734L77.24 191.361H70.0287L71.8995 178.654Z" fill="#FF9B29"/>
<path d="M80.3987 141.307H66.8618C67.6748 191.121 45.1491 217.11 45.1491 217.11H60.3639C63.4065 205.718 73.6375 204.842 73.6375 204.842C73.6375 204.842 83.8623 205.718 86.9111 217.11H102.128C102.128 217.11 79.5857 191.04 80.3987 141.307ZM68.7615 192.573L70.9517 177.565H76.3192L78.5114 192.573H68.7615Z" fill="#FFD161"/>
<path d="M65.6339 222.805H45.1491L47.669 217.11H63.5516L65.6339 222.805Z" fill="#FF9B29"/>
<path d="M72.5403 143.601H69.0726C69.0726 144.914 69.0602 146.229 69.0311 147.542H72.5403V143.601Z" fill="#FF9B29"/>
<path d="M78.2293 147.544C78.2003 146.229 78.1858 144.915 78.1858 143.603H74.7325V147.544H78.2293Z" fill="#FF9B29"/>
<path d="M72.5403 149.077H68.9876C68.9606 149.734 68.9253 150.831 68.8859 151.706H72.5403V149.077Z" fill="#FF9B29"/>
<path d="M72.5403 153.241H68.8071C68.7574 153.896 68.6993 154.774 68.6371 155.651H72.5424L72.5403 153.241Z" fill="#FF9B29"/>
<path d="M90.75 215.022H97.7414C96.6319 213.269 95.2527 211.288 93.7449 208.669H87.836L90.75 215.022Z" fill="#FF9B29"/>
<path d="M72.5403 201.658H65.6402L63.1721 207.134H64.0017C66.4003 204.936 69.3509 203.431 72.5383 202.778L72.5403 201.658Z" fill="#FF9B29"/>
<path d="M87.1454 207.134H92.9028C92.0318 205.381 91.1275 203.411 90.2066 201.658H84.7188L87.1454 207.134Z" fill="#FF9B29"/>
<path d="M74.7325 175.593H78.2148L79.0838 181.508H82.9539C81.2162 174.886 79.9452 168.152 79.1502 161.353H74.7325V175.593Z" fill="#FF9B29"/>
<path d="M81.6203 201.658H74.7325V202.762C77.9159 203.415 80.8622 204.92 83.2567 207.117H84.0863L81.6203 201.658Z" fill="#FF9B29"/>
<path d="M81.0562 194.866H81.6784L84.049 200.124H89.5243C89.3356 199.686 89.1447 199.271 88.9539 198.834C86.7562 193.695 84.896 188.417 83.3853 183.036H79.3223L81.0562 194.866Z" fill="#FF9B29"/>
<path d="M74.7325 159.814H78.9822C78.8971 158.936 78.8162 157.841 78.7436 157.184H74.7284L74.7325 159.814Z" fill="#FF9B29"/>
<path d="M72.5403 157.184H68.5147C68.4421 157.841 68.3612 158.936 68.2741 159.814H72.5403V157.184Z" fill="#FF9B29"/>
<path d="M74.7326 155.651H78.6255C78.5632 154.774 78.5051 153.896 78.4554 153.241H74.7222L74.7326 155.651Z" fill="#FF9B29"/>
<path d="M74.7325 151.706H78.3745C78.3351 150.831 78.2998 149.734 78.2728 149.077H74.7325V151.706Z" fill="#FF9B29"/>
<path d="M72.5424 194.866H68.7615L66.3453 200.124H72.5424V194.866Z" fill="#FF9B29"/>
<path d="M65.5966 194.866H66.2188L67.9568 183.044H63.8918C62.3759 188.436 60.5116 193.723 58.3106 198.873C58.1261 199.3 57.9394 199.703 57.7548 200.132H63.2198L65.5966 194.866Z" fill="#FF9B29"/>
<path d="M62.5354 201.658H57.06C56.1454 203.411 55.2411 205.392 54.3638 207.134H60.1088L62.5354 201.658Z" fill="#FF9B29"/>
<path d="M53.5259 208.669C52.014 211.297 50.6348 213.269 49.5231 215.022H56.5083L59.4119 208.669H53.5259Z" fill="#FF9B29"/>
<path d="M80.9151 200.124L78.4989 194.866H74.7325V200.124H80.9151Z" fill="#FF9B29"/>
<path d="M69.0581 175.593H72.5403V161.353H68.1123C67.3189 168.151 66.0506 174.886 64.3169 181.508H68.1974L69.0581 175.593Z" fill="#FF9B29"/>
<path d="M82.3483 168.357H64.9267C64.7497 169.452 64.5638 170.547 64.3688 171.644H82.9186C82.7167 170.543 82.5266 169.447 82.3483 168.357Z" fill="#FF9B29"/>
<path d="M89.7504 195.088C89.1282 193.554 88.5246 191.801 87.9315 190.268H78.1526L78.5051 192.678H68.7573L69.1099 190.268H59.3373C59.3373 190.268 59.3373 190.231 59.3373 190.237C58.7462 191.915 58.1406 193.537 57.5267 195.059V195.086H89.7545L89.7504 195.088Z" fill="#FF9B29"/>
<path d="M93.6806 188.848H53.5881V193.668H93.6806V188.848Z" fill="#FFD161"/>
<path d="M93.6785 193.668L53.5881 193.668L56.9895 196.297H90.2875L93.6785 193.668Z" fill="#FF9B29"/>
<path d="M73.6312 141.892C76.6162 141.892 79.0361 139.473 79.0361 136.488C79.0361 133.503 76.6162 131.083 73.6312 131.083C70.6462 131.083 68.2264 133.503 68.2264 136.488C68.2264 139.473 70.6462 141.892 73.6312 141.892Z" fill="#FFD161"/>
<path d="M80.4962 136.268H66.7663V144.155H80.4962V136.268Z" fill="#FFD161"/>
<path d="M80.4962 137.947H66.7663V142.475H80.4962V137.947Z" fill="#FF9B29"/>
<path d="M81.6618 139.883H65.5966V143.133H81.6618V139.883Z" fill="#FFD161"/>
<path d="M80.3821 145.25H66.8742L65.5966 143.133L81.6638 143.133L80.3821 145.25Z" fill="#FF9B29"/>
<path d="M85.0237 169.46H62.2388V173.403H85.0237V169.46Z" fill="#FFD161"/>
<path d="M85.0237 173.403H62.2388L63.5205 175.508H83.7482L85.0237 173.403Z" fill="#FF9B29"/>
<path d="M81.6639 163.653H65.5074V165.185H81.6639V163.653Z" fill="#FFD161"/>
<path d="M61.909 222.805H41.4242L43.9441 217.11H60.366L61.909 222.805Z" fill="#FFB561"/>
<path d="M81.5747 222.805H102.06L99.5396 217.11H83.657L81.5747 222.805Z" fill="#FF9B29"/>
<path d="M85.2995 222.805H105.784L103.265 217.11H86.8447L85.2995 222.805Z" fill="#FFB561"/>
<path d="M71.634 135.222C72.3132 135.222 72.8639 134.672 72.8639 133.993C72.8639 133.313 72.3132 132.763 71.634 132.763C70.9547 132.763 70.4041 133.313 70.4041 133.993C70.4041 134.672 70.9547 135.222 71.634 135.222Z" fill="white"/>
<path d="M109.275 222.807H38V227.7H109.275V222.807Z" fill="#ADADAD"/>
<path d="M337.648 280.117L292.168 195.909L246.715 280.117H337.648Z" fill="#71A3E3"/>
<path d="M270.131 236.622L287.474 217.601L292.099 230.939L297.455 217.601L314.217 236.622L292.168 195.798L270.131 236.622Z" fill="white"/>
<path d="M257.504 260.08L263.361 272.27L278.859 252.853L290.891 266.151L305.216 258.941L292.099 230.941L297.455 217.603L314.217 236.678L337.648 280.117L246.724 280.117L257.504 260.08Z" fill="#5C84B8"/>
<path d="M324.067 254.557L320.286 247.94L285.533 280.117L337.648 280.117L324.067 254.557Z" fill="#4E709C"/>
<path d="M365.37 280.117L332.783 236.733L300.217 280.117H365.37Z" fill="#71A3E3"/>
<path d="M316.994 257.655L329.42 247.857L332.733 254.727L336.571 247.857L348.581 257.655L332.783 236.622L316.994 257.655Z" fill="#E3E3E3"/>
<path d="M307.946 269.768L312.143 276.033L323.248 266.023L331.867 272.87L342.131 269.155L332.733 254.727L336.571 247.857L348.581 257.711L365.37 280.117L300.222 280.117L307.946 269.768Z" fill="#5C84B8"/>
<path d="M266.067 271.962H265.209L264.692 280.117H266.582L266.067 271.962Z" fill="#8A532D"/>
<path d="M268.778 268.735H269.762C270.008 268.735 270.104 268.257 269.917 268.024L267.949 265.564C267.762 265.332 267.866 264.853 268.102 264.853H268.55C268.796 264.853 268.892 264.375 268.705 264.142L267.108 262.147C266.921 261.901 267.024 261.436 267.263 261.436C267.509 261.436 267.605 260.959 267.418 260.725L265.785 258.686C265.768 258.66 265.745 258.638 265.718 258.624C265.691 258.609 265.66 258.601 265.63 258.601C265.599 258.601 265.568 258.609 265.541 258.624C265.514 258.638 265.491 258.66 265.475 258.686L263.846 260.725C263.659 260.959 263.762 261.436 264.001 261.436C264.247 261.436 264.341 261.913 264.156 262.147L262.562 264.142C262.375 264.388 262.478 264.853 262.717 264.853H263.16C263.406 264.853 263.502 265.345 263.315 265.564L261.347 268.024C261.16 268.27 261.263 268.735 261.502 268.735H262.486C262.732 268.735 262.828 269.212 262.641 269.446L258.86 274.149C258.673 274.383 258.776 274.86 259.015 274.86H272.249C272.495 274.86 272.591 274.383 272.402 274.149L268.618 269.446C268.436 269.214 268.542 268.735 268.778 268.735Z" fill="#62E07B"/>
<path d="M275.413 274.066H274.793L274.419 280.117H275.787L275.413 274.066Z" fill="#8A532D"/>
<path d="M277.369 271.834H278.082C278.257 271.834 278.328 271.49 278.195 271.32L276.771 269.549C276.636 269.382 276.709 269.035 276.882 269.035H277.204C277.376 269.035 277.45 268.69 277.317 268.521L276.163 267.077C276.028 266.907 276.102 266.562 276.274 266.562C276.446 266.562 276.52 266.218 276.385 266.048L275.204 264.572C275.192 264.553 275.176 264.537 275.156 264.526C275.137 264.515 275.114 264.509 275.092 264.509C275.069 264.509 275.047 264.515 275.028 264.526C275.008 264.537 274.992 264.553 274.98 264.572L273.802 266.048C273.666 266.218 273.74 266.562 273.912 266.562C274.085 266.562 274.158 266.907 274.026 267.077L272.872 268.521C272.736 268.69 272.813 269.035 272.985 269.035H273.305C273.477 269.035 273.551 269.382 273.418 269.549L271.994 271.32C271.858 271.49 271.935 271.834 272.107 271.834H272.818C272.99 271.834 273.064 272.181 272.928 272.348L270.193 275.753C270.058 275.92 270.134 276.267 270.306 276.267H279.88C280.053 276.267 280.126 275.92 279.993 275.753L277.256 272.348C277.123 272.181 277.204 271.834 277.369 271.834Z" fill="#62E07B"/>
<path d="M338.849 275.908H338.411L338.145 280.117H339.115L338.849 275.908Z" fill="#8A532D"/>
<path d="M340.239 274.257H340.731C340.854 274.257 340.908 274.011 340.81 273.891L339.803 272.639C339.708 272.521 339.759 272.275 339.882 272.275H340.111C340.232 272.275 340.286 272.029 340.19 271.91L339.373 270.887C339.277 270.769 339.329 270.525 339.452 270.525C339.575 270.525 339.626 270.279 339.533 270.161L338.696 269.116C338.688 269.103 338.676 269.092 338.662 269.084C338.648 269.077 338.632 269.073 338.617 269.073C338.601 269.073 338.585 269.077 338.571 269.084C338.557 269.092 338.545 269.103 338.537 269.116L337.703 270.161C337.607 270.279 337.661 270.525 337.781 270.525C337.904 270.525 337.956 270.772 337.86 270.887L337.046 271.91C336.95 272.031 337.002 272.275 337.125 272.275H337.351C337.474 272.275 337.526 272.521 337.432 272.639L336.423 273.891C336.327 274.011 336.382 274.257 336.502 274.257H336.994C337.117 274.257 337.169 274.503 337.073 274.621L335.137 277.03C335.041 277.148 335.095 277.394 335.218 277.394H341.995C342.116 277.394 342.17 277.148 342.074 277.03L340.136 274.619C340.064 274.501 340.116 274.257 340.239 274.257Z" fill="#62E07B"/>
<path d="M327.801 265.91H327.361L327.098 270.119H328.064L327.801 265.91Z" fill="#8A532D"/>
<path d="M329.191 264.26H329.683C329.804 264.26 329.858 264.014 329.762 263.896L328.753 262.641C328.657 262.523 328.711 262.277 328.832 262.277H329.061C329.184 262.277 329.235 262.031 329.139 261.913L328.323 260.892C328.227 260.772 328.281 260.528 328.401 260.528C328.522 260.528 328.576 260.282 328.48 260.164L327.644 259.121C327.636 259.107 327.624 259.096 327.61 259.088C327.597 259.08 327.581 259.076 327.565 259.076C327.549 259.076 327.533 259.08 327.52 259.088C327.506 259.096 327.494 259.107 327.486 259.121L326.65 260.164C326.556 260.285 326.608 260.528 326.731 260.528C326.852 260.528 326.906 260.774 326.81 260.892L325.993 261.915C325.897 262.034 325.951 262.277 326.074 262.277H326.301C326.421 262.277 326.475 262.523 326.379 262.641L325.373 263.896C325.277 264.014 325.329 264.26 325.452 264.26H325.944C326.064 264.26 326.118 264.506 326.023 264.624L324.087 267.032C323.991 267.153 324.045 267.396 324.165 267.396H330.943C331.066 267.396 331.117 267.15 331.021 267.032L329.085 264.624C329.014 264.503 329.068 264.26 329.191 264.26Z" fill="#62E07B"/>
<path d="M284.756 273.012H284.016L283.57 280.117H285.204L284.756 273.012Z" fill="#8A532D"/>
<path d="M287.1 270.257H287.954C288.161 270.257 288.249 269.844 288.087 269.642L286.387 267.529C286.225 267.327 286.313 266.914 286.52 266.914H286.906C287.11 266.914 287.201 266.501 287.039 266.299L285.659 264.577C285.499 264.373 285.588 263.962 285.794 263.962C285.998 263.962 286.089 263.549 285.927 263.347L284.515 261.586C284.5 261.563 284.481 261.545 284.457 261.532C284.434 261.52 284.408 261.513 284.381 261.513C284.354 261.513 284.328 261.52 284.305 261.532C284.281 261.545 284.261 261.563 284.247 261.586L282.84 263.347C282.677 263.549 282.768 263.962 282.973 263.962C283.179 263.962 283.268 264.373 283.108 264.575L281.73 266.297C281.568 266.498 281.659 266.912 281.863 266.912H282.247C282.453 266.912 282.542 267.323 282.382 267.524L280.682 269.64C280.52 269.842 280.608 270.255 280.815 270.255H281.666C281.87 270.255 281.961 270.668 281.799 270.87L278.532 274.934C278.37 275.136 278.458 275.549 278.665 275.549H290.102C290.308 275.549 290.397 275.136 290.234 274.934L286.965 270.87C286.805 270.671 286.896 270.257 287.1 270.257Z" fill="#62E07B"/>
<path d="M332.898 220.924C332.899 221.618 333.175 222.283 333.666 222.774C334.157 223.264 334.822 223.539 335.516 223.539H360.903C361.246 223.54 361.587 223.472 361.904 223.341C362.222 223.21 362.51 223.017 362.754 222.774C362.997 222.532 363.189 222.243 363.321 221.926C363.453 221.608 363.52 221.268 363.52 220.924C363.52 220.23 363.245 219.565 362.754 219.074C362.263 218.583 361.597 218.307 360.903 218.307H354.896C354.202 218.307 353.537 218.032 353.046 217.541C352.556 217.051 352.281 216.386 352.281 215.692C352.28 214.998 352.004 214.333 351.513 213.842C351.022 213.351 350.357 213.075 349.663 213.075H322.141C321.447 213.075 320.782 213.351 320.291 213.842C319.801 214.333 319.526 214.998 319.526 215.692C319.526 216.386 319.801 217.051 320.292 217.541C320.782 218.032 321.447 218.307 322.141 218.307H330.281C330.975 218.307 331.641 218.583 332.132 219.074C332.622 219.565 332.898 220.23 332.898 220.924Z" fill="white"/>
<path d="M286.564 177.552C286.564 177.086 286.473 176.624 286.295 176.193C286.116 175.762 285.855 175.37 285.525 175.041C285.196 174.711 284.804 174.449 284.373 174.27C283.943 174.092 283.481 174 283.014 174H248.552C248.086 174 247.624 174.091 247.192 174.27C246.761 174.448 246.37 174.71 246.04 175.04C245.71 175.37 245.448 175.761 245.27 176.192C245.091 176.624 245 177.086 245 177.552C245 178.019 245.092 178.48 245.27 178.911C245.449 179.342 245.711 179.733 246.041 180.063C246.37 180.393 246.762 180.654 247.193 180.833C247.624 181.011 248.086 181.102 248.552 181.102H256.705C257.646 181.103 258.549 181.477 259.215 182.143C259.881 182.809 260.254 183.713 260.254 184.654C260.255 185.596 260.63 186.499 261.296 187.165C261.962 187.831 262.865 188.206 263.807 188.206H301.162C302.104 188.206 303.007 187.832 303.674 187.166C304.34 186.5 304.714 185.596 304.714 184.654C304.714 183.712 304.34 182.809 303.674 182.142C303.007 181.476 302.104 181.102 301.162 181.102H290.114C289.173 181.101 288.27 180.727 287.605 180.062C286.939 179.396 286.565 178.493 286.564 177.552Z" fill="white"/>
<path fill-rule="evenodd" clip-rule="evenodd" d="M342.332 239.603V255.387H339.332V239.603H342.332Z" fill="#4A4A4A"/>
<path fill-rule="evenodd" clip-rule="evenodd" d="M367.06 272.749V280.117H364.06V272.749H367.06Z" fill="#4A4A4A"/>
<path fill-rule="evenodd" clip-rule="evenodd" d="M366.8 277.005L335.91 235.835L338.31 234.034L369.2 275.205L366.8 277.005Z" fill="#4A4A4A"/>
<path fill-rule="evenodd" clip-rule="evenodd" d="M343.068 257.019H338.596V254.019H343.068V257.019Z" fill="#4A4A4A"/>
<path fill-rule="evenodd" clip-rule="evenodd" d="M349.59 256.966V253.283H352.59V256.966H349.59Z" fill="#4A4A4A"/>
<path d="M354.716 257.803C354.716 257.274 354.386 256.769 353.857 256.769H348.199C347.936 256.787 347.689 256.903 347.506 257.094C347.324 257.286 347.22 257.538 347.215 257.803V258.786H354.714V257.803H354.716Z" fill="#FF6650"/>
<path d="M347.274 258.809V262.095C347.273 262.218 347.296 262.34 347.343 262.454C347.389 262.567 347.459 262.67 347.546 262.757C347.634 262.843 347.738 262.91 347.852 262.955C347.967 263 348.089 263.021 348.212 263.018H353.87C354.399 263.018 354.654 262.624 354.654 262.095V258.809H347.274Z" fill="#E3E3E3"/>
<path d="M352.386 259.274H349.548V261.51H352.386V259.274Z" fill="#4A4A4A"/>
<path d="M48 50.1823V87.5803C48 88.8579 48.5075 90.0831 49.4109 90.9865C50.3143 91.8899 51.5395 92.3974 52.8171 92.3974H96.5481C97.1808 92.3976 97.8074 92.2732 98.392 92.0312C98.9766 91.7892 99.5078 91.4344 99.9553 90.9871C100.403 90.5397 100.758 90.0086 101 89.4241C101.242 88.8396 101.367 88.213 101.367 87.5803V50.1823H48Z" fill="#19181E"/>
<path d="M101.367 39.6198C101.367 38.9871 101.242 38.3606 101 37.776C100.758 37.1915 100.403 36.6604 99.9553 36.2131C99.5078 35.7658 98.9766 35.411 98.392 35.169C97.8074 34.927 97.1808 34.8025 96.5481 34.8028H52.8171C51.5395 34.8028 50.3143 35.3103 49.4109 36.2136C48.5075 37.117 48 38.3423 48 39.6198V46.9736H101.367V39.6198Z" fill="#FF6650"/>
<path d="M101.367 46.9736H48L48 50.1808H101.367L101.367 46.9736Z" fill="#CF5341"/>
<path d="M57.1357 41.6422C58.5235 41.6422 59.6485 40.5172 59.6485 39.1294C59.6485 37.7416 58.5235 36.6165 57.1357 36.6165C55.7479 36.6165 54.6229 37.7416 54.6229 39.1294C54.6229 40.5172 55.7479 41.6422 57.1357 41.6422Z" fill="#CF5341"/>
<path d="M65.9099 41.6422C67.2977 41.6422 68.4228 40.5172 68.4228 39.1294C68.4228 37.7416 67.2977 36.6165 65.9099 36.6165C64.5221 36.6165 63.3971 37.7416 63.3971 39.1294C63.3971 40.5172 64.5221 41.6422 65.9099 41.6422Z" fill="#CF5341"/>
<path d="M74.6842 41.6422C76.072 41.6422 77.197 40.5172 77.197 39.1294C77.197 37.7416 76.072 36.6165 74.6842 36.6165C73.2964 36.6165 72.1713 37.7416 72.1713 39.1294C72.1713 40.5172 73.2964 41.6422 74.6842 41.6422Z" fill="#CF5341"/>
<path d="M85.9251 39.5329C86.1475 38.163 85.2173 36.8723 83.8474 36.6499C82.4775 36.4276 81.1868 37.3578 80.9644 38.7277C80.742 40.0976 81.6723 41.3883 83.0422 41.6107C84.412 41.833 85.7028 40.9028 85.9251 39.5329Z" fill="#CF5341"/>
<path d="M92.231 41.6422C93.6188 41.6422 94.7439 40.5172 94.7439 39.1294C94.7439 37.7416 93.6188 36.6165 92.231 36.6165C90.8432 36.6165 89.7182 37.7416 89.7182 39.1294C89.7182 40.5172 90.8432 41.6422 92.231 41.6422Z" fill="#CF5341"/>
<path d="M57.1054 40.1819C56.8052 40.1819 56.5172 40.0627 56.3048 39.8503C56.0925 39.638 55.9733 39.35 55.9733 39.0497V31.1322C55.9733 30.9835 56.0025 30.8363 56.0594 30.6989C56.1163 30.5616 56.1997 30.4368 56.3048 30.3316C56.41 30.2265 56.5348 30.1431 56.6722 30.0862C56.8095 30.0293 56.9568 30 57.1054 30C57.4056 30.0004 57.6933 30.1199 57.9056 30.3321C58.1178 30.5443 58.2373 30.8321 58.2377 31.1322V39.0577C58.2352 39.3565 58.1148 39.6422 57.9028 39.8527C57.6908 40.0632 57.4042 40.1815 57.1054 40.1819Z" fill="#E3E3E3"/>
<path d="M65.9736 40.1819C65.8249 40.1819 65.6777 40.1527 65.5404 40.0958C65.403 40.0389 65.2782 39.9555 65.1731 39.8503C65.0679 39.7452 64.9845 39.6204 64.9276 39.483C64.8707 39.3457 64.8414 39.1984 64.8414 39.0497V31.1322C64.8414 30.9835 64.8707 30.8363 64.9276 30.6989C64.9845 30.5616 65.0679 30.4368 65.1731 30.3316C65.2782 30.2265 65.403 30.1431 65.5404 30.0862C65.6777 30.0293 65.8249 30 65.9736 30C66.2738 30.0004 66.5615 30.1199 66.7738 30.3321C66.986 30.5443 67.1054 30.8321 67.1059 31.1322V39.0577C67.1033 39.3565 66.983 39.6422 66.771 39.8527C66.5589 40.0632 66.2724 40.1815 65.9736 40.1819Z" fill="#E3E3E3"/>
<path d="M74.6523 40.1819C74.3522 40.1815 74.0644 40.0621 73.8522 39.8499C73.6399 39.6376 73.5205 39.3499 73.5201 39.0497V31.1322C73.5205 30.8321 73.6399 30.5443 73.8522 30.3321C74.0644 30.1199 74.3522 30.0004 74.6523 30C74.801 30 74.9482 30.0293 75.0856 30.0862C75.223 30.1431 75.3478 30.2265 75.4529 30.3316C75.558 30.4368 75.6414 30.5616 75.6983 30.6989C75.7552 30.8363 75.7845 30.9835 75.7845 31.1322V39.0577C75.7824 39.3566 75.6622 39.6425 75.4501 39.8531C75.238 40.0638 74.9512 40.182 74.6523 40.1819Z" fill="#E3E3E3"/>
<path d="M83.5205 40.1819C83.2203 40.1815 82.9326 40.0621 82.7204 39.8499C82.5081 39.6376 82.3887 39.3499 82.3883 39.0497V31.1322C82.3887 30.8321 82.5081 30.5443 82.7204 30.3321C82.9326 30.1199 83.2203 30.0004 83.5205 30C83.8208 30 84.1088 30.1193 84.3211 30.3316C84.5334 30.544 84.6527 30.8319 84.6527 31.1322V39.0577C84.6506 39.3566 84.5304 39.6425 84.3183 39.8531C84.1062 40.0638 83.8194 40.182 83.5205 40.1819Z" fill="#E3E3E3"/>
<path d="M92.2008 40.1819C91.9005 40.1819 91.6125 40.0627 91.4002 39.8503C91.1879 39.638 91.0686 39.35 91.0686 39.0497V31.1322C91.0686 30.8319 91.1879 30.544 91.4002 30.3316C91.6125 30.1193 91.9005 30 92.2008 30C92.35 29.9992 92.4979 30.0278 92.636 30.0844C92.7741 30.1409 92.8997 30.2242 93.0055 30.3294C93.1113 30.4346 93.1953 30.5597 93.2526 30.6975C93.3099 30.8353 93.3394 30.983 93.3394 31.1322V39.0577C93.3373 39.3577 93.2162 39.6446 93.0027 39.8554C92.7892 40.0662 92.5008 40.1836 92.2008 40.1819Z" fill="#E3E3E3"/>
<path d="M60.5005 73.1912C60.5007 73.4312 60.4536 73.6689 60.3619 73.8907C60.2702 74.1125 60.1357 74.314 59.9661 74.4838C59.7965 74.6536 59.595 74.7882 59.3733 74.8801C59.1516 74.972 58.914 75.0193 58.674 75.0193H53.4604C52.9756 75.0193 52.5106 74.8267 52.1677 74.4839C51.8249 74.141 51.6323 73.676 51.6323 73.1912V67.9776C51.6323 67.4928 51.8249 67.0278 52.1677 66.685C52.5106 66.3421 52.9756 66.1495 53.4604 66.1495H58.674C58.914 66.1495 59.1516 66.1968 59.3733 66.2887C59.595 66.3806 59.7965 66.5153 59.9661 66.6851C60.1357 66.8548 60.2702 67.0564 60.3619 67.2782C60.4536 67.5 60.5007 67.7376 60.5005 67.9776V73.1912Z" fill="#808080"/>
<path d="M72.9564 73.1912C72.9564 73.6758 72.764 74.1405 72.4215 74.4833C72.079 74.8261 71.6145 75.0189 71.1299 75.0193H65.9147C65.6747 75.0193 65.4371 74.972 65.2154 74.8801C64.9937 74.7882 64.7923 74.6536 64.6226 74.4838C64.453 74.314 64.3185 74.1125 64.2268 73.8907C64.1351 73.6689 64.088 73.4312 64.0882 73.1912V67.9776C64.088 67.7376 64.1351 67.5 64.2268 67.2782C64.3185 67.0564 64.453 66.8548 64.6226 66.6851C64.7923 66.5153 64.9937 66.3806 65.2154 66.2887C65.4371 66.1968 65.6747 66.1495 65.9147 66.1495H71.1299C71.6145 66.15 72.079 66.3427 72.4215 66.6855C72.764 67.0283 72.9564 67.4931 72.9564 67.9776V73.1912Z" fill="#808080"/>
<path d="M85.218 73.1912C85.218 73.676 85.0254 74.141 84.6826 74.4839C84.3398 74.8267 83.8748 75.0193 83.3899 75.0193H78.1764C77.9364 75.0193 77.6987 74.972 77.477 74.8801C77.2553 74.7882 77.0539 74.6536 76.8842 74.4838C76.7146 74.314 76.5801 74.1125 76.4884 73.8907C76.3967 73.6689 76.3496 73.4312 76.3499 73.1912V67.9776C76.3496 67.7376 76.3967 67.5 76.4884 67.2782C76.5801 67.0564 76.7146 66.8548 76.8842 66.6851C77.0539 66.5153 77.2553 66.3806 77.477 66.2887C77.6987 66.1968 77.9364 66.1495 78.1764 66.1495H83.3899C83.8748 66.1495 84.3398 66.3421 84.6826 66.685C85.0254 67.0278 85.218 67.4928 85.218 67.9776V73.1912Z" fill="#808080"/>
<path d="M97.6723 73.1912C97.6725 73.4312 97.6254 73.6689 97.5338 73.8907C97.4421 74.1125 97.3076 74.314 97.1379 74.4838C96.9683 74.6536 96.7669 74.7882 96.5452 74.8801C96.3235 74.972 96.0858 75.0193 95.8458 75.0193H90.6323C90.1477 75.0189 89.6831 74.8261 89.3406 74.4833C88.9981 74.1405 88.8057 73.6758 88.8057 73.1912V67.9776C88.8057 67.4931 88.9981 67.0283 89.3406 66.6855C89.6831 66.3427 90.1477 66.15 90.6323 66.1495H95.8474C96.0874 66.1495 96.3251 66.1968 96.5468 66.2887C96.7685 66.3806 96.9699 66.5153 97.1395 66.6851C97.3091 66.8548 97.4437 67.0564 97.5353 67.2782C97.627 67.5 97.6741 67.7376 97.6739 67.9776L97.6723 73.1912Z" fill="#808080"/>
<path d="M72.9851 59.9837C72.9851 60.2237 72.9378 60.4613 72.8459 60.683C72.754 60.9047 72.6193 61.1062 72.4495 61.2758C72.2798 61.4454 72.0782 61.5799 71.8564 61.6716C71.6346 61.7633 71.3969 61.8104 71.157 61.8102H65.9498C65.7098 61.8104 65.4722 61.7633 65.2505 61.6716C65.0288 61.5799 64.8274 61.4453 64.6577 61.2757C64.4881 61.106 64.3536 60.9046 64.2618 60.6829C64.1701 60.4612 64.123 60.2236 64.1233 59.9837V54.7685C64.1249 54.2852 64.3181 53.8223 64.6605 53.4811C65.0028 53.1399 65.4664 52.9484 65.9498 52.9484H71.1633C71.6479 52.9484 72.1126 53.1408 72.4554 53.4832C72.7982 53.8257 72.991 54.2903 72.9914 54.7749L72.9851 59.9837Z" fill="#808080"/>
<path d="M85.2499 59.9837C85.2499 60.2237 85.2026 60.4613 85.1107 60.683C85.0188 60.9047 84.8841 61.1062 84.7143 61.2758C84.5446 61.4454 84.343 61.5799 84.1212 61.6716C83.8995 61.7633 83.6618 61.8104 83.4218 61.8102H78.2114C77.9715 61.8104 77.7338 61.7633 77.5122 61.6716C77.2905 61.5799 77.089 61.4453 76.9194 61.2757C76.7497 61.106 76.6152 60.9046 76.5235 60.6829C76.4318 60.4612 76.3847 60.2236 76.3849 59.9837V54.7685C76.3866 54.2852 76.5797 53.8223 76.9221 53.4811C77.2644 53.1399 77.7281 52.9484 78.2114 52.9484H83.425C83.9095 52.9484 84.3743 53.1408 84.717 53.4832C85.0598 53.8257 85.2526 54.2903 85.2531 54.7749L85.2499 59.9837Z" fill="#FFD161"/>
<path d="M97.7026 59.9837C97.7028 60.2236 97.6557 60.4612 97.564 60.6829C97.4723 60.9046 97.3377 61.106 97.1681 61.2757C96.9984 61.4453 96.797 61.5799 96.5753 61.6716C96.3536 61.7633 96.116 61.8104 95.8761 61.8102H90.6609C90.4211 61.8102 90.1835 61.7629 89.9619 61.6712C89.7403 61.5794 89.539 61.4448 89.3694 61.2752C89.1998 61.1056 89.0652 60.9043 88.9734 60.6827C88.8817 60.4611 88.8344 60.2235 88.8344 59.9837V54.7685C88.8365 54.2853 89.0298 53.8226 89.3721 53.4816C89.7144 53.1405 90.1777 52.9488 90.6609 52.9484H95.8761C96.3605 52.9484 96.8251 53.1408 97.1676 53.4833C97.5102 53.8259 97.7026 54.2905 97.7026 54.7749V59.9837Z" fill="#808080"/>
<path d="M60.5355 86.4003C60.5355 86.8847 60.3431 87.3493 60.0006 87.6919C59.658 88.0344 59.1934 88.2268 58.709 88.2268H53.4954C53.0109 88.2268 52.5461 88.0345 52.2034 87.692C51.8606 87.3495 51.6678 86.8849 51.6674 86.4003V81.1852C51.6674 80.9452 51.7146 80.7075 51.8065 80.4858C51.8984 80.2641 52.0331 80.0627 52.2029 79.8931C52.3727 79.7234 52.5742 79.5889 52.796 79.4972C53.0177 79.4055 53.2555 79.3584 53.4954 79.3587H58.709C58.9489 79.3584 59.1865 79.4055 59.4082 79.4973C59.6299 79.589 59.8314 79.7235 60.001 79.8932C60.1707 80.0628 60.3052 80.2642 60.3969 80.4859C60.4886 80.7076 60.5357 80.9452 60.5355 81.1852V86.4003Z" fill="#808080"/>
<path d="M72.9851 86.4003C72.9846 86.8849 72.7919 87.3495 72.4491 87.692C72.1063 88.0345 71.6415 88.2268 71.157 88.2268H65.9498C65.4653 88.2268 65.0007 88.0344 64.6582 87.6919C64.3157 87.3493 64.1233 86.8847 64.1233 86.4003V81.1852C64.123 80.9452 64.1701 80.7076 64.2618 80.4859C64.3536 80.2642 64.4881 80.0628 64.6577 79.8932C64.8274 79.7235 65.0288 79.589 65.2505 79.4973C65.4722 79.4055 65.7098 79.3584 65.9498 79.3587H71.1633C71.4033 79.3584 71.641 79.4055 71.8628 79.4972C72.0846 79.5889 72.2861 79.7234 72.4559 79.8931C72.6257 80.0627 72.7604 80.2641 72.8522 80.4858C72.9441 80.7075 72.9914 80.9452 72.9914 81.1852L72.9851 86.4003Z" fill="#2FB49F"/>
<path d="M85.2499 86.4003C85.2494 86.8849 85.0567 87.3495 84.7139 87.692C84.3711 88.0345 83.9063 88.2268 83.4218 88.2268H78.2114C77.727 88.2268 77.2624 88.0344 76.9199 87.6919C76.5773 87.3493 76.3849 86.8847 76.3849 86.4003V81.1852C76.3847 80.9452 76.4318 80.7076 76.5235 80.4859C76.6152 80.2642 76.7497 80.0628 76.9194 79.8932C77.089 79.7235 77.2905 79.589 77.5122 79.4973C77.7338 79.4055 77.9715 79.3584 78.2114 79.3587H83.425C83.665 79.3584 83.9026 79.4055 84.1244 79.4972C84.3462 79.5889 84.5477 79.7234 84.7175 79.8931C84.8873 80.0627 85.022 80.2641 85.1139 80.4858C85.2058 80.7075 85.2531 80.9452 85.2531 81.1852L85.2499 86.4003Z" fill="#808080"/>
<path d="M97.7026 86.4003C97.7026 86.8847 97.5102 87.3493 97.1676 87.6919C96.8251 88.0344 96.3605 88.2268 95.8761 88.2268H90.6609C90.1766 88.2264 89.7123 88.0339 89.3698 87.6914C89.0274 87.349 88.8348 86.8846 88.8344 86.4003V81.1852C88.8344 80.7007 89.0268 80.2362 89.3694 79.8936C89.7119 79.5511 90.1765 79.3587 90.6609 79.3587H95.8761C96.116 79.3584 96.3536 79.4055 96.5753 79.4973C96.797 79.589 96.9984 79.7235 97.1681 79.8932C97.3377 80.0628 97.4723 80.2642 97.564 80.4859C97.6557 80.7076 97.7028 80.9452 97.7026 81.1852V86.4003Z" fill="#808080"/>
<path d="M98.5609 109.613C108.828 109.613 117.151 101.29 117.151 91.0231C117.151 80.7562 108.828 72.4332 98.5609 72.4332C88.294 72.4332 79.971 80.7562 79.971 91.0231C79.971 101.29 88.294 109.613 98.5609 109.613Z" fill="#4A4A4A"/>
<path d="M98.5609 105.659C106.644 105.659 113.197 99.1063 113.197 91.0231C113.197 82.9399 106.644 76.3872 98.5609 76.3872C90.4777 76.3872 83.925 82.9399 83.925 91.0231C83.925 99.1063 90.4777 105.659 98.5609 105.659Z" fill="white"/>
<path d="M98.5609 93.7907C100.089 93.7907 101.329 92.5516 101.329 91.0231C101.329 89.4946 100.089 88.2555 98.5609 88.2555C97.0324 88.2555 95.7933 89.4946 95.7933 91.0231C95.7933 92.5516 97.0324 93.7907 98.5609 93.7907Z" fill="#4A4A4A"/>
<path d="M98.6166 91.6235C98.4663 91.6235 98.3221 91.5637 98.2158 91.4574C98.1095 91.3511 98.0497 91.2069 98.0497 91.0566V79.1692C98.0497 79.0948 98.0644 79.0211 98.0929 78.9524C98.1214 78.8838 98.1632 78.8214 98.2159 78.7689C98.2685 78.7163 98.3311 78.6747 98.3998 78.6464C98.4686 78.6181 98.5423 78.6036 98.6166 78.6038C98.7666 78.6038 98.9104 78.6634 99.0164 78.7694C99.1224 78.8754 99.1819 79.0192 99.1819 79.1692V91.0566C99.1821 91.1309 99.1677 91.2046 99.1394 91.2734C99.1111 91.3422 99.0695 91.4047 99.0169 91.4573C98.9644 91.51 98.902 91.5518 98.8333 91.5803C98.7647 91.6088 98.691 91.6235 98.6166 91.6235Z" fill="#4A4A4A"/>
<path d="M104.684 96.9692C104.396 96.9691 104.117 96.8752 103.888 96.7017L97.7647 92.0837C97.4852 91.8724 97.3011 91.5588 97.2527 91.2119C97.2044 90.8649 97.2957 90.5129 97.5067 90.2333C97.718 89.9538 98.0315 89.7697 98.3785 89.7213C98.7255 89.673 99.0775 89.7643 99.3571 89.9753L105.48 94.5933C105.618 94.6977 105.735 94.8283 105.823 94.9777C105.911 95.1272 105.968 95.2925 105.992 95.4642C106.016 95.6359 106.006 95.8107 105.963 95.9785C105.919 96.1463 105.843 96.3039 105.738 96.4421C105.615 96.6057 105.456 96.7385 105.273 96.83C105.09 96.9215 104.888 96.9692 104.684 96.9692Z" fill="#4A4A4A"/>
<path d="M47.7045 462.68C72.1929 462.68 92.0446 442.828 92.0446 418.34C92.0446 393.852 72.1929 374 47.7045 374C23.2162 374 3.36444 393.852 3.36444 418.34C3.36444 442.828 23.2162 462.68 47.7045 462.68Z" fill="#414141"/>
<path d="M47.7045 374C41.7048 373.993 35.7664 375.208 30.2516 377.571L38.9054 386.398L47.7026 383.101H67.2498V378.534C61.169 375.543 54.4813 373.992 47.7045 374Z" fill="#FFD161"/>
<path d="M49.7489 383.164C44.6408 379.617 38.1595 377.829 31.0261 377.251C14.8047 383.841 3.36441 399.755 3.36441 418.344C3.35791 424.657 4.70284 430.898 7.30879 436.649C9.91473 442.399 13.7213 447.525 18.4727 451.682C6.65191 401.553 49.7489 383.164 49.7489 383.164Z" fill="#FF6650"/>
<path d="M45.6602 383.164C50.7683 379.617 57.2496 377.829 64.3811 377.251C80.6044 383.841 92.0447 399.755 92.0447 418.344C92.0512 424.657 90.7062 430.898 88.1003 436.649C85.4944 442.399 81.6877 447.525 76.9363 451.682C88.7629 401.553 45.6602 383.164 45.6602 383.164Z" fill="#38D4B8"/>
<path d="M47.7045 386.458C52.6011 386.458 56.5706 384.981 56.5706 383.161C56.5706 381.34 52.6011 379.864 47.7045 379.864C42.8079 379.864 38.8384 381.34 38.8384 383.161C38.8384 384.981 42.8079 386.458 47.7045 386.458Z" fill="white"/>
<path d="M94.7871 460.619C93.6128 460.12 65.8192 448.4 48.0679 448.4C30.3166 448.4 2.04294 460.116 0.847658 460.613C0.164914 460.898 -0.150653 461.449 0.0692782 461.965C0.28921 462.481 0.996825 462.837 1.80005 462.837H93.8232C94.6226 462.837 95.3264 462.483 95.5444 461.971C95.7624 461.458 95.4564 460.9 94.7871 460.619Z" fill="#FFD161"/>
<path d="M285.024 1.66166L308.23 8.73603L285.024 15.8104V1.66166Z" fill="#FF6650"/>
<path fill-rule="evenodd" clip-rule="evenodd" d="M288.821 0.00012207V35.7881H281.821V0.00012207H288.821Z" fill="#8A532D"/>
<path d="M299.021 92.2253L285.11 29.8193H335.086L371.147 92.2253H299.021Z" fill="#FFB561"/>
<path d="M249.049 92.2253L285.11 29.7628L321.175 92.2253H249.049Z" fill="#FFD161"/>
<path d="M274.668 92.2136L285.11 48.7242L300.504 92.2255L274.668 92.2136Z" fill="#8A532D"/>
<path d="M285.11 48.7242L277.748 92.2136L269.716 92.2255L285.11 48.7242Z" fill="#6E4224"/>
<path d="M290.143 21.6156L285.146 30.2683L280.149 21.6156H290.143Z" fill="#FFD161"/>
<path d="M323.909 92.178L333.903 87.2052V92.178H323.909Z" fill="#FFD161"/>
<path d="M339.868 21.6156L334.872 30.2683L329.875 21.6156H339.868Z" fill="#FFB561"/>
<path d="M323.88 82.1194H321.175V92.2253L323.88 92.2256V82.1194Z" fill="#8A532D"/>
<path d="M249.049 82.1194H246.344V92.2256L249.049 92.2253V82.1194Z" fill="#8A532D"/>
<path d="M324.762 90.6294H320.286V92.2256H324.762V90.6294Z" fill="#FFD161"/>
<path d="M374.631 92.178L384.621 87.2052V92.178H374.631Z" fill="#FFB561"/>
<path d="M374.598 82.1194H371.893V92.2256H374.598V82.1194Z" fill="#6E4224"/>
<path d="M375.484 90.6294H371.007V92.2256H375.484V90.6294Z" fill="#FFB561"/>
<path d="M245.993 92.178L236 87.2052V92.178H245.993Z" fill="#FFD161"/>
<path d="M249.617 90.6294H245.14V92.2256H249.617V90.6294Z" fill="#FFD161"/>
<path d="M327.559 338.541C327.204 334.118 325.125 329.556 321.702 325.693C318.279 321.83 314.001 319.217 309.644 318.324C305.156 317.413 300.962 318.438 297.836 321.207C297.726 321.304 297.66 321.441 297.651 321.588C297.642 321.734 297.692 321.878 297.789 321.988L300.848 325.443C300.946 325.552 301.084 325.619 301.23 325.628C301.303 325.633 301.375 325.623 301.444 325.599C301.513 325.575 301.576 325.538 301.63 325.49L305.649 321.917L308.193 324.788L304.173 328.361C304.118 328.409 304.073 328.467 304.042 328.532C304.01 328.597 303.992 328.668 303.988 328.741C303.979 328.887 304.028 329.032 304.124 329.143L306.091 331.362C306.189 331.472 306.326 331.538 306.473 331.547C306.619 331.555 306.763 331.506 306.873 331.409L310.892 327.836L313.436 330.708L309.416 334.281C309.307 334.379 309.24 334.516 309.231 334.663C309.226 334.735 309.236 334.808 309.26 334.876C309.284 334.945 309.321 335.008 309.369 335.062L311.337 337.284C311.434 337.394 311.571 337.46 311.718 337.469C311.864 337.477 312.008 337.428 312.118 337.331L316.138 333.758L318.683 336.63L314.664 340.203C314.554 340.301 314.488 340.438 314.478 340.585C314.474 340.657 314.484 340.73 314.507 340.798C314.531 340.867 314.568 340.93 314.617 340.984L316.584 343.204C316.632 343.259 316.69 343.303 316.755 343.335C316.82 343.368 316.891 343.387 316.964 343.391C317.111 343.4 317.255 343.35 317.366 343.253L321.385 339.68L324.056 342.699L321.823 347.319C321.761 347.445 321.749 347.589 321.789 347.723L322.383 349.666C322.411 349.754 322.46 349.835 322.526 349.899C322.592 349.964 322.674 350.011 322.763 350.037C322.812 350.05 322.862 350.057 322.912 350.057C323.048 350.058 323.179 350.008 323.281 349.918C326.403 347.147 327.923 343.108 327.559 338.541Z" fill="#4FB463"/>
<path d="M351.383 321.22C348.257 318.449 344.065 317.424 339.575 318.335C335.227 319.228 330.947 321.832 327.517 325.704C324.087 329.576 322.015 334.129 321.662 338.553C321.298 343.119 322.819 347.159 325.943 349.941C326.044 350.031 326.175 350.08 326.311 350.079C326.355 350.08 326.4 350.074 326.443 350.064C326.53 350.043 326.611 350.001 326.678 349.942C326.745 349.883 326.797 349.808 326.829 349.724L327.568 347.782C327.595 347.709 327.607 347.633 327.603 347.556C327.598 347.479 327.578 347.404 327.544 347.335L325.172 342.693L327.832 339.691L331.851 343.264C331.961 343.361 332.104 343.411 332.251 343.403C332.324 343.398 332.395 343.379 332.46 343.347C332.526 343.315 332.585 343.27 332.633 343.215L334.6 340.996C334.648 340.941 334.686 340.878 334.709 340.81C334.733 340.741 334.743 340.668 334.738 340.596C334.729 340.449 334.663 340.312 334.553 340.214L330.534 336.641L333.079 333.77L337.099 337.342C337.209 337.439 337.353 337.489 337.499 337.48C337.645 337.471 337.782 337.405 337.88 337.295L339.847 335.074C339.896 335.02 339.933 334.956 339.957 334.888C339.981 334.819 339.99 334.746 339.986 334.674C339.977 334.527 339.91 334.39 339.8 334.292L335.781 330.719L338.324 327.848L342.344 331.421C342.454 331.518 342.598 331.568 342.744 331.559C342.891 331.55 343.028 331.483 343.125 331.374L345.093 329.154C345.189 329.043 345.238 328.899 345.229 328.752C345.225 328.68 345.207 328.609 345.175 328.543C345.143 328.478 345.098 328.42 345.043 328.372L341.024 324.8L343.567 321.928L347.587 325.501C347.697 325.598 347.84 325.647 347.987 325.639C348.133 325.63 348.27 325.564 348.368 325.454L351.428 322C351.476 321.946 351.513 321.883 351.538 321.814C351.562 321.746 351.572 321.673 351.568 321.601C351.564 321.528 351.545 321.457 351.513 321.392C351.482 321.327 351.437 321.268 351.383 321.22Z" fill="#4FB463"/>
<path d="M334.921 335.411L337.099 337.34C337.208 337.438 337.352 337.487 337.499 337.478C337.646 337.47 337.783 337.403 337.88 337.293L339.847 335.074C339.882 335.03 339.911 334.983 339.934 334.933C338.25 334.895 336.568 335.056 334.921 335.411Z" fill="#62E07B"/>
<path d="M309.293 334.929C309.315 334.98 309.344 335.027 309.381 335.069L311.348 337.289C311.445 337.399 311.582 337.465 311.729 337.474C311.875 337.483 312.019 337.433 312.129 337.336L314.304 335.406C312.659 335.051 310.977 334.891 309.293 334.929Z" fill="#62E07B"/>
<path d="M324.614 342.967C323.33 340.323 321.173 338.253 318.446 336.876L314.673 340.225C314.563 340.323 314.496 340.46 314.487 340.607C314.483 340.679 314.492 340.752 314.516 340.821C314.54 340.889 314.577 340.953 314.626 341.007L315.729 342.25L319.262 341.281L319.389 341.489L321.398 339.703L321.622 339.95C321.617 341.844 321.992 343.719 322.727 345.464L322.325 346.294L322.439 346.482C322.508 346.598 322.617 346.684 322.745 346.726C322.873 346.767 323.012 346.759 323.136 346.705L324.616 346.035L326.094 346.705C326.218 346.759 326.357 346.767 326.485 346.726C326.613 346.684 326.722 346.598 326.791 346.482L326.97 346.189L326.543 345.365C327.251 343.648 327.613 341.808 327.608 339.95L327.832 339.703L329.841 341.489L329.969 341.281L333.503 342.25L334.604 341.007C334.653 340.953 334.69 340.889 334.714 340.821C334.738 340.752 334.747 340.679 334.743 340.607C334.734 340.46 334.667 340.323 334.557 340.225L330.786 336.876C328.053 338.244 325.896 340.314 324.614 342.967Z" fill="#62E07B"/>
<path d="M325.436 348.469C323.189 340.285 313.545 336.293 303.005 339.187C292.466 342.081 286.209 350.434 288.455 358.614C288.495 358.755 288.589 358.876 288.717 358.949C288.8 358.995 288.894 359.02 288.989 359.02C289.039 359.021 289.088 359.015 289.136 359.002L293.584 357.781C293.724 357.742 293.842 357.65 293.915 357.525C293.987 357.4 294.008 357.251 293.973 357.111L292.548 351.924L296.248 350.91L297.671 356.095C297.71 356.234 297.802 356.352 297.927 356.425C298.052 356.498 298.2 356.518 298.341 356.483L301.201 355.697C301.341 355.659 301.459 355.567 301.531 355.442C301.604 355.316 301.624 355.168 301.587 355.028L300.165 349.843L303.863 348.827L305.288 354.014C305.327 354.153 305.419 354.271 305.544 354.343C305.669 354.415 305.817 354.436 305.957 354.4L308.818 353.614C308.957 353.575 309.076 353.483 309.148 353.358C309.22 353.233 309.24 353.084 309.204 352.944L307.78 347.757L311.48 346.741L312.904 351.928C312.942 352.068 313.034 352.187 313.16 352.259C313.285 352.332 313.434 352.351 313.574 352.314L316.435 351.531C316.574 351.491 316.692 351.4 316.765 351.275C316.837 351.149 316.858 351.001 316.823 350.861L315.398 345.674L319.23 344.622L322.406 349.827C322.474 349.943 322.583 350.03 322.712 350.071C322.84 350.112 322.979 350.105 323.102 350.05L325.094 349.157C325.229 349.109 325.34 349.011 325.404 348.882C325.468 348.754 325.479 348.606 325.436 348.469Z" fill="#4FB463"/>
<path d="M346.222 339.187C335.683 336.284 326.039 340.285 323.79 348.469C323.755 348.597 323.767 348.734 323.824 348.854C323.881 348.974 323.979 349.069 324.1 349.123L326.092 350.017C326.215 350.071 326.355 350.079 326.483 350.038C326.612 349.997 326.72 349.91 326.789 349.793L329.964 344.59L333.796 345.642L332.371 350.827C332.336 350.967 332.357 351.116 332.43 351.241C332.502 351.366 332.621 351.458 332.76 351.497L335.62 352.283C335.761 352.319 335.909 352.298 336.034 352.225C336.16 352.153 336.251 352.034 336.29 351.895L337.715 346.707L341.415 347.723L339.99 352.911C339.955 353.05 339.976 353.199 340.048 353.324C340.12 353.449 340.238 353.541 340.377 353.58L343.237 354.364C343.377 354.4 343.525 354.38 343.651 354.307C343.776 354.235 343.868 354.117 343.907 353.978L345.332 348.791L349.029 349.807L347.607 354.992C347.571 355.132 347.591 355.28 347.663 355.406C347.735 355.531 347.854 355.623 347.993 355.662L350.854 356.448C350.994 356.483 351.142 356.462 351.267 356.389C351.392 356.317 351.484 356.198 351.524 356.059L352.946 350.874L356.646 351.888L355.221 357.075C355.186 357.215 355.207 357.364 355.28 357.489C355.352 357.614 355.471 357.706 355.61 357.745L360.058 358.966C360.106 358.98 360.156 358.986 360.205 358.986C360.301 358.987 360.395 358.961 360.478 358.913C360.541 358.877 360.597 358.829 360.642 358.771C360.687 358.714 360.72 358.648 360.739 358.578C363.017 350.434 356.762 342.074 346.222 339.187Z" fill="#4FB463"/>
<path d="M327.561 385.519C327.471 385.658 327.349 385.775 327.205 385.858C327.061 385.941 326.899 385.99 326.733 385.999H322.49C322.325 385.99 322.163 385.941 322.02 385.858C321.876 385.775 321.754 385.658 321.664 385.519L319.536 381.774C319.387 381.511 319.512 381.294 319.818 381.294H329.415C329.719 381.294 329.846 381.517 329.694 381.774L327.561 385.519Z" fill="#B56D3B"/>
<path d="M327.528 380.794C327.449 380.938 327.335 381.06 327.195 381.147C327.056 381.235 326.897 381.285 326.733 381.294H322.49C322.326 381.285 322.167 381.234 322.028 381.146C321.889 381.059 321.775 380.938 321.695 380.794L319.503 376.254C319.467 376.203 319.447 376.142 319.445 376.079C319.444 376.017 319.461 375.955 319.494 375.902C319.527 375.849 319.576 375.806 319.633 375.781C319.69 375.755 319.753 375.746 319.815 375.756H329.417C329.479 375.746 329.542 375.755 329.6 375.781C329.657 375.806 329.705 375.849 329.738 375.902C329.772 375.955 329.789 376.017 329.787 376.079C329.785 376.142 329.766 376.203 329.73 376.254L327.528 380.794Z" fill="#8A532D"/>
<path d="M327.548 375.269C327.462 375.411 327.343 375.529 327.201 375.614C327.059 375.699 326.898 375.747 326.733 375.756H322.49C322.325 375.747 322.165 375.698 322.023 375.613C321.881 375.528 321.762 375.41 321.675 375.269L319.525 371.25C319.487 371.202 319.465 371.143 319.461 371.082C319.457 371.021 319.472 370.96 319.503 370.907C319.535 370.854 319.581 370.812 319.637 370.787C319.693 370.761 319.755 370.753 319.815 370.763H329.417C329.478 370.753 329.54 370.761 329.595 370.787C329.651 370.812 329.698 370.854 329.729 370.907C329.761 370.96 329.775 371.021 329.772 371.082C329.768 371.143 329.745 371.202 329.707 371.25L327.548 375.269Z" fill="#B56D3B"/>
<path d="M327.561 370.292C327.471 370.432 327.349 370.548 327.205 370.632C327.061 370.716 326.899 370.765 326.733 370.774H322.49C322.324 370.765 322.163 370.716 322.02 370.632C321.876 370.548 321.754 370.432 321.664 370.292L319.536 366.549C319.387 366.284 319.512 366.067 319.818 366.067H329.415C329.719 366.067 329.846 366.29 329.694 366.549L327.561 370.292Z" fill="#8A532D"/>
<path d="M327.561 365.585C327.471 365.725 327.349 365.842 327.205 365.926C327.061 366.01 326.899 366.058 326.733 366.067H322.49C322.324 366.058 322.163 366.009 322.019 365.926C321.876 365.842 321.754 365.725 321.664 365.585L319.536 361.843C319.387 361.579 319.512 361.36 319.818 361.36H329.415C329.719 361.36 329.846 361.584 329.694 361.843L327.561 365.585Z" fill="#B56D3B"/>
<path d="M327.528 360.862C327.449 361.006 327.334 361.128 327.195 361.215C327.056 361.302 326.897 361.352 326.733 361.36H322.49C322.327 361.351 322.168 361.301 322.029 361.214C321.89 361.127 321.775 361.006 321.695 360.862L319.503 356.323C319.467 356.271 319.447 356.21 319.445 356.148C319.444 356.085 319.461 356.023 319.494 355.97C319.527 355.917 319.576 355.875 319.633 355.849C319.69 355.823 319.753 355.815 319.815 355.825H329.417C329.479 355.815 329.542 355.823 329.6 355.849C329.657 355.875 329.705 355.917 329.738 355.97C329.772 356.023 329.789 356.085 329.787 356.148C329.785 356.21 329.766 356.271 329.73 356.323L327.528 360.862Z" fill="#8A532D"/>
<path d="M327.561 355.342C327.471 355.483 327.349 355.599 327.205 355.683C327.061 355.767 326.899 355.815 326.733 355.825H322.49C322.324 355.815 322.163 355.767 322.019 355.683C321.876 355.599 321.754 355.482 321.664 355.342L319.536 351.6C319.387 351.334 319.512 351.118 319.818 351.118H329.415C329.719 351.118 329.846 351.341 329.694 351.6L327.561 355.342Z" fill="#B56D3B"/>
<path d="M327.561 350.637C327.471 350.777 327.349 350.893 327.205 350.977C327.061 351.06 326.899 351.108 326.733 351.118H322.49C322.325 351.108 322.163 351.06 322.02 350.977C321.876 350.893 321.754 350.777 321.664 350.637L319.536 346.893C319.387 346.629 319.512 346.413 319.818 346.413H329.415C329.719 346.413 329.846 346.636 329.694 346.893L327.561 350.637Z" fill="#8A532D"/>
<path d="M327.561 425.105C327.471 425.245 327.35 425.361 327.206 425.445C327.062 425.529 326.901 425.577 326.735 425.587H322.493C322.327 425.578 322.166 425.53 322.022 425.446C321.878 425.363 321.757 425.247 321.666 425.107L319.538 421.363C319.389 421.099 319.514 420.882 319.82 420.882H329.415C329.719 420.882 329.846 421.106 329.694 421.363L327.561 425.105Z" fill="#B56D3B"/>
<path d="M327.528 420.382C327.449 420.526 327.334 420.647 327.195 420.734C327.056 420.821 326.897 420.871 326.733 420.88H322.49C322.327 420.871 322.168 420.82 322.029 420.733C321.89 420.646 321.775 420.525 321.695 420.382L319.503 415.843C319.467 415.791 319.448 415.73 319.446 415.667C319.445 415.605 319.462 415.543 319.495 415.49C319.528 415.437 319.576 415.395 319.633 415.368C319.69 415.342 319.753 415.333 319.815 415.342H329.417C329.479 415.333 329.542 415.342 329.599 415.368C329.656 415.395 329.704 415.437 329.737 415.49C329.771 415.543 329.788 415.605 329.786 415.667C329.785 415.73 329.765 415.791 329.73 415.843L327.528 420.382Z" fill="#8A532D"/>
<path d="M327.561 414.869C327.471 415.009 327.349 415.125 327.205 415.208C327.061 415.292 326.899 415.34 326.733 415.349H322.49C322.325 415.34 322.163 415.292 322.02 415.208C321.876 415.125 321.754 415.008 321.664 414.869L319.536 411.124C319.387 410.861 319.512 410.644 319.818 410.644H329.415C329.719 410.644 329.846 410.868 329.694 411.124L327.561 414.869Z" fill="#B56D3B"/>
<path d="M327.548 410.148C327.462 410.29 327.343 410.409 327.201 410.494C327.059 410.579 326.898 410.628 326.733 410.637H322.49C322.325 410.628 322.165 410.579 322.023 410.493C321.881 410.408 321.761 410.29 321.675 410.148L319.525 406.142C319.486 406.094 319.463 406.035 319.459 405.974C319.455 405.912 319.469 405.85 319.501 405.797C319.532 405.744 319.579 405.702 319.635 405.676C319.692 405.65 319.754 405.643 319.815 405.653H329.417C329.478 405.643 329.541 405.65 329.597 405.676C329.653 405.702 329.7 405.744 329.732 405.797C329.763 405.85 329.778 405.912 329.773 405.974C329.769 406.035 329.746 406.094 329.707 406.142L327.548 410.148Z" fill="#8A532D"/>
<path d="M327.561 405.173C327.471 405.313 327.349 405.429 327.205 405.512C327.061 405.596 326.899 405.644 326.733 405.653H322.49C322.325 405.644 322.163 405.596 322.02 405.512C321.876 405.429 321.754 405.313 321.664 405.173L319.536 401.429C319.387 401.165 319.512 400.949 319.818 400.949H329.415C329.719 400.949 329.846 401.172 329.694 401.429L327.561 405.173Z" fill="#B56D3B"/>
<path d="M327.528 400.449C327.449 400.593 327.335 400.714 327.195 400.802C327.056 400.889 326.897 400.94 326.733 400.949H322.49C322.326 400.939 322.167 400.889 322.028 400.801C321.889 400.714 321.775 400.592 321.695 400.449L319.503 395.911C319.467 395.859 319.448 395.799 319.446 395.736C319.445 395.673 319.462 395.612 319.495 395.559C319.528 395.505 319.576 395.463 319.633 395.437C319.69 395.411 319.753 395.402 319.815 395.411H329.417C329.479 395.402 329.542 395.411 329.599 395.437C329.656 395.463 329.704 395.505 329.737 395.559C329.771 395.612 329.788 395.673 329.786 395.736C329.785 395.799 329.765 395.859 329.73 395.911L327.528 400.449Z" fill="#8A532D"/>
<path d="M327.561 394.931C327.471 395.07 327.349 395.186 327.205 395.27C327.061 395.353 326.899 395.402 326.733 395.411H322.49C322.325 395.402 322.163 395.353 322.02 395.27C321.876 395.186 321.754 395.07 321.664 394.931L319.536 391.186C319.387 390.922 319.512 390.706 319.818 390.706H329.415C329.719 390.706 329.846 390.929 329.694 391.186L327.561 394.931Z" fill="#B56D3B"/>
<path d="M327.561 390.224C327.471 390.364 327.349 390.481 327.205 390.565C327.061 390.648 326.899 390.697 326.733 390.706H322.49C322.324 390.697 322.163 390.648 322.019 390.564C321.876 390.48 321.754 390.364 321.664 390.224L319.536 386.481C319.387 386.216 319.512 385.999 319.818 385.999H329.415C329.719 385.999 329.846 386.222 329.694 386.481L327.561 390.224Z" fill="#8A532D"/>
<path d="M345.559 428.671C345.037 428.448 332.644 423.223 324.728 423.223C316.812 423.223 304.205 428.446 303.673 428.669C303.369 428.796 303.226 429.042 303.325 429.272C303.405 429.402 303.52 429.507 303.656 429.576C303.792 429.644 303.945 429.674 304.097 429.66H345.131C345.282 429.673 345.434 429.643 345.57 429.575C345.706 429.507 345.82 429.403 345.901 429.274C345.999 429.044 345.861 428.799 345.559 428.671Z" fill="#FFD161"/>
</svg>
