<svg id="Layer_1" data-name="Layer 1" xmlns="http://www.w3.org/2000/svg" viewBox="0 0 384.62 462.84"><path d="M38.5,454.5c50.94,3,316,7.38,316-135.5,0-97.5-299-63.5-309.5-170.5S287.59,60.92,320.5,57" style="fill:none;stroke:#ebe2d4;stroke-linecap:round;stroke-width:4px;stroke-dasharray:18,18"/><path d="M80.4,145.13H66.86c.81,49.74-21.71,75.81-21.71,75.81H60.36c3-11.4,13.28-12.27,13.28-12.27s10.22.87,13.27,12.27h15.22S79.59,194.87,80.4,145.13ZM68.76,196.4,71,175.59h5.37l2.19,20.81Z" style="fill:#ff9b29"/><path d="M73.63,136.27a.55.55,0,0,1-.39-.16.59.59,0,0,1-.16-.39V124.55a.59.59,0,0,1,.16-.39.55.55,0,0,1,.94.39v11.17a.59.59,0,0,1-.16.39A.55.55,0,0,1,73.63,136.27Z" style="fill:#ffb561"/><path d="M76.32,177.56H71l-2.19,14.9h9.75Zm-4.42,1.09h3.47l1.87,12.71H70Z" style="fill:#ff9b29"/><path d="M80.4,141.31H66.86c.81,49.81-21.71,75.8-21.71,75.8H60.36c3-11.39,13.28-12.27,13.28-12.27s10.22.88,13.27,12.27h15.22S79.59,191,80.4,141.31ZM68.76,192.57l2.19-15h5.37l2.19,15Z" style="fill:#ffd161"/><path d="M65.63,222.8H45.15l2.52-5.69H63.55Z" style="fill:#ff9b29"/><path d="M72.54,143.6H69.07c0,1.31,0,2.63,0,3.94h3.51Z" style="fill:#ff9b29"/><path d="M78.23,147.54c0-1.31,0-2.63,0-3.94H74.73v3.94Z" style="fill:#ff9b29"/><path d="M72.54,149.08H69c0,.65-.06,1.75-.1,2.63h3.65Z" style="fill:#ff9b29"/><path d="M72.54,153.24H68.81c0,.66-.11,1.53-.17,2.41h3.9Z" style="fill:#ff9b29"/><path d="M90.75,215h7c-1.11-1.75-2.49-3.73-4-6.35h-5.9Z" style="fill:#ff9b29"/><path d="M72.54,201.66h-6.9l-2.47,5.47H64a18,18,0,0,1,8.54-4.35Z" style="fill:#ff9b29"/><path d="M87.15,207.13H92.9c-.87-1.75-1.77-3.72-2.69-5.47H84.72Z" style="fill:#ff9b29"/><path d="M74.73,175.59h3.48l.87,5.92H83a148.28,148.28,0,0,1-3.8-20.16H74.73Z" style="fill:#ff9b29"/><path d="M81.62,201.66H74.73v1.1a17.91,17.91,0,0,1,8.53,4.36h.83Z" style="fill:#ff9b29"/><path d="M81.06,194.87h.62l2.37,5.25h5.47c-.18-.43-.38-.85-.57-1.29A129.68,129.68,0,0,1,83.39,183H79.32Z" style="fill:#ff9b29"/><path d="M74.73,159.81H79c-.08-.87-.16-2-.24-2.63h-4Z" style="fill:#ff9b29"/><path d="M72.54,157.18h-4c-.07.66-.15,1.76-.24,2.63h4.27Z" style="fill:#ff9b29"/><path d="M74.73,155.65h3.9c-.07-.88-.12-1.75-.17-2.41H74.72Z" style="fill:#ff9b29"/><path d="M74.73,151.71h3.64c0-.88-.07-2-.1-2.63H74.73Z" style="fill:#ff9b29"/><path d="M72.54,194.87H68.76l-2.41,5.25h6.19Z" style="fill:#ff9b29"/><path d="M65.6,194.87h.62L68,183H63.89a128.1,128.1,0,0,1-5.58,15.83c-.18.43-.37.83-.56,1.26h5.47Z" style="fill:#ff9b29"/><path d="M62.54,201.66H57.06c-.91,1.75-1.82,3.73-2.7,5.47h5.75Z" style="fill:#ff9b29"/><path d="M53.53,208.67c-1.52,2.63-2.9,4.6-4,6.35h7l2.9-6.35Z" style="fill:#ff9b29"/><path d="M80.92,200.12l-2.42-5.25H74.73v5.25Z" style="fill:#ff9b29"/><path d="M69.06,175.59h3.48V161.35H68.11a146.73,146.73,0,0,1-3.79,20.16H68.2Z" style="fill:#ff9b29"/><path d="M82.35,168.36H64.93c-.18,1.09-.37,2.19-.56,3.28H82.92C82.72,170.54,82.53,169.45,82.35,168.36Z" style="fill:#ff9b29"/><path d="M89.75,195.09c-.62-1.54-1.23-3.29-1.82-4.82H78.15l.36,2.41H68.76l.35-2.41H59.34v0c-.59,1.67-1.2,3.3-1.81,4.82v0Z" style="fill:#ff9b29"/><path d="M93.68,188.85H53.59v4.82H93.68Z" style="fill:#ffd161"/><path d="M93.68,193.67H53.59L57,196.3h33.3Z" style="fill:#ff9b29"/><path d="M73.63,141.89a5.41,5.41,0,1,0-5.4-5.4A5.41,5.41,0,0,0,73.63,141.89Z" style="fill:#ffd161"/><path d="M80.5,136.27H66.77v7.88H80.5Z" style="fill:#ffd161"/><path d="M80.5,138H66.77v4.52H80.5Z" style="fill:#ff9b29"/><path d="M81.66,139.88H65.6v3.25H81.66Z" style="fill:#ffd161"/><path d="M80.38,145.25H66.87l-1.27-2.12H81.66Z" style="fill:#ff9b29"/><path d="M85,169.46H62.24v3.94H85Z" style="fill:#ffd161"/><path d="M85,173.4H62.24l1.28,2.11H83.75Z" style="fill:#ff9b29"/><path d="M81.66,163.65H65.51v1.53H81.66Z" style="fill:#ffd161"/><path d="M61.91,222.8H41.42l2.52-5.69H60.37Z" style="fill:#ffb561"/><path d="M81.57,222.8h20.49l-2.52-5.69H83.66Z" style="fill:#ff9b29"/><path d="M85.3,222.8h20.48l-2.52-5.69H86.84Z" style="fill:#ffb561"/><path d="M71.63,135.22A1.23,1.23,0,1,0,70.4,134,1.23,1.23,0,0,0,71.63,135.22Z" style="fill:#fff"/><path d="M109.27,222.81H38v4.89h71.27Z" style="fill:#adadad"/><path d="M337.65,280.12l-45.48-84.21-45.46,84.21Z" style="fill:#71a3e3"/><path d="M270.13,236.62l17.34-19,4.63,13.34,5.35-13.34,16.77,19L292.17,195.8Z" style="fill:#fff"/><path d="M257.5,260.08l5.86,12.19,15.5-19.42,12,13.3,14.33-7.21-13.12-28,5.35-13.34,16.77,19.08,23.43,43.44H246.72Z" style="fill:#5c84b8"/><path d="M324.07,254.56l-3.78-6.62-34.76,32.18h52.12Z" style="fill:#4e709c"/><path d="M365.37,280.12l-32.59-43.39-32.56,43.39Z" style="fill:#71a3e3"/><path d="M317,257.65l12.43-9.79,3.31,6.87,3.84-6.87,12,9.79-15.8-21Z" style="fill:#e3e3e3"/><path d="M308,269.77l4.19,6.26,11.11-10,8.62,6.85,10.26-3.72-9.4-14.42,3.84-6.87,12,9.85,16.79,22.41H300.22Z" style="fill:#5c84b8"/><path d="M266.07,272h-.86l-.52,8.16h1.89Z" style="fill:#8a532d"/><path d="M268.78,268.73h1c.25,0,.34-.47.16-.71l-2-2.46c-.19-.23-.08-.71.15-.71h.45c.25,0,.34-.48.15-.71l-1.59-2c-.19-.25-.09-.71.15-.71s.34-.48.16-.72l-1.64-2-.06-.06-.09,0-.09,0-.07.06-1.62,2c-.19.24-.09.72.15.72s.34.47.16.71l-1.6,2c-.19.25-.08.71.16.71h.44c.25,0,.34.49.15.71l-2,2.46c-.19.25-.09.71.15.71h1c.24,0,.34.48.15.72l-3.78,4.7c-.19.23-.08.71.15.71h13.24c.25,0,.34-.48.15-.71l-3.78-4.7C268.44,269.21,268.54,268.73,268.78,268.73Z" style="fill:#62e07b"/><path d="M275.41,274.07h-.62l-.37,6.05h1.37Z" style="fill:#8a532d"/><path d="M277.37,271.83h.71c.18,0,.25-.34.12-.51l-1.43-1.77c-.13-.17-.06-.52.11-.52h.32c.18,0,.25-.34.12-.51l-1.16-1.44c-.13-.17-.06-.52.11-.52s.25-.34.11-.51l-1.18-1.48,0,0a.1.1,0,0,0-.07,0,.07.07,0,0,0-.06,0,.1.1,0,0,0,0,0l-1.18,1.48c-.13.17-.06.51.11.51s.25.35.12.52l-1.16,1.44c-.13.17-.06.51.11.51h.32c.18,0,.25.35.12.52L272,271.32c-.13.17-.06.51.12.51h.71c.17,0,.24.35.11.52l-2.74,3.4c-.13.17-.06.52.12.52h9.57c.17,0,.25-.35.11-.52l-2.73-3.4C277.12,272.18,277.2,271.83,277.37,271.83Z" style="fill:#62e07b"/><path d="M338.85,275.91h-.44l-.26,4.21h1Z" style="fill:#8a532d"/><path d="M340.24,274.26h.49c.12,0,.18-.25.08-.37l-1-1.25c-.09-.12,0-.37.08-.37h.23c.12,0,.18-.24.08-.36l-.82-1c-.09-.12,0-.37.08-.37s.18-.24.08-.36l-.83-1a.08.08,0,0,0,0,0h-.09l0,0-.84,1c-.09.12,0,.36.08.36s.18.25.08.37l-.81,1c-.1.12-.05.36.07.36h.23c.12,0,.18.25.08.37l-1,1.25c-.09.12,0,.37.08.37H337c.13,0,.18.24.08.36L335.14,277c-.1.12,0,.36.08.36H342c.12,0,.17-.24.07-.36l-1.93-2.41C340.06,274.5,340.12,274.26,340.24,274.26Z" style="fill:#62e07b"/><path d="M327.8,265.91h-.44l-.26,4.21h1Z" style="fill:#8a532d"/><path d="M329.19,264.26h.49c.12,0,.18-.25.08-.36l-1-1.26c-.09-.12,0-.36.08-.36h.23c.12,0,.18-.25.08-.37l-.82-1c-.09-.12,0-.36.08-.36s.18-.25.08-.37l-.84-1,0,0h-.09l0,0-.84,1c-.09.12,0,.37.08.37s.18.24.08.36l-.82,1c-.09.11,0,.36.08.36h.23c.12,0,.18.24.08.36l-1,1.26c-.09.11,0,.36.08.36h.49c.12,0,.18.25.08.36L324.09,267c-.1.12,0,.37.08.37h6.77c.13,0,.18-.25.08-.37l-1.93-2.41C329,264.5,329.07,264.26,329.19,264.26Z" style="fill:#62e07b"/><path d="M284.76,273H284l-.45,7.11h1.63Z" style="fill:#8a532d"/><path d="M287.1,270.26H288c.21,0,.3-.42.14-.62l-1.7-2.11c-.17-.2-.08-.62.13-.62h.39c.2,0,.29-.41.13-.61l-1.38-1.72c-.16-.21-.07-.62.13-.62s.3-.41.14-.61l-1.42-1.76a.1.1,0,0,0-.05-.06l-.08,0-.08,0a.1.1,0,0,0-.05.06l-1.41,1.76c-.16.2-.07.61.13.61s.3.41.14.61l-1.38,1.73c-.16.2-.07.61.13.61h.39c.2,0,.29.41.13.61l-1.7,2.12c-.16.2-.07.61.14.61h.85c.2,0,.29.42.13.62l-3.27,4.06c-.16.21-.07.62.14.62H290.1c.21,0,.3-.41.13-.62L287,270.87C286.81,270.67,286.9,270.26,287.1,270.26Z" style="fill:#62e07b"/><path d="M332.9,220.92a2.57,2.57,0,0,0,.77,1.85,2.61,2.61,0,0,0,1.85.77H360.9a2.59,2.59,0,0,0,1-.2,2.45,2.45,0,0,0,.85-.57,2.5,2.5,0,0,0,.57-.84,2.67,2.67,0,0,0,.2-1,2.63,2.63,0,0,0-.77-1.85,2.6,2.6,0,0,0-1.85-.76h-6a2.63,2.63,0,0,1-2.62-2.62,2.63,2.63,0,0,0-2.62-2.62H322.14a2.61,2.61,0,0,0-2.61,2.62,2.6,2.6,0,0,0,.76,1.85,2.63,2.63,0,0,0,1.85.77h8.14a2.61,2.61,0,0,1,2.62,2.61Z" style="fill:#fff"/><path d="M286.56,177.55a3.59,3.59,0,0,0-1-2.51,3.62,3.62,0,0,0-1.16-.77A3.51,3.51,0,0,0,283,174H248.55a3.55,3.55,0,0,0-3.55,3.55,3.51,3.51,0,0,0,.27,1.36,3.55,3.55,0,0,0,3.28,2.19h8.15a3.55,3.55,0,0,1,3.55,3.55,3.56,3.56,0,0,0,1.05,2.51,3.52,3.52,0,0,0,2.51,1.05h37.35a3.56,3.56,0,0,0,0-7.11H290.11a3.55,3.55,0,0,1-3.55-3.55Z" style="fill:#fff"/><path d="M340.83,255.39V239.6" style="fill:none;stroke:#4a4a4a;stroke-miterlimit:10;stroke-width:3px"/><path d="M365.56,280.12v-7.37" style="fill:none;stroke:#4a4a4a;stroke-miterlimit:10;stroke-width:3px"/><path d="M337.11,234.93,368,276.1" style="fill:none;stroke:#4a4a4a;stroke-miterlimit:10;stroke-width:3px"/><path d="M338.6,255.52h4.47" style="fill:none;stroke:#4a4a4a;stroke-miterlimit:10;stroke-width:3px"/><path d="M351.09,253.28V257" style="fill:none;stroke:#4a4a4a;stroke-miterlimit:10;stroke-width:3px"/><path d="M354.72,257.8a.94.94,0,0,0-.86-1H348.2a1.06,1.06,0,0,0-.69.32,1,1,0,0,0-.29.71v1h7.49v-1Z" style="fill:#ff6650"/><path d="M347.27,258.81v3.28a1,1,0,0,0,.07.36,1,1,0,0,0,.21.31.85.85,0,0,0,.3.19.92.92,0,0,0,.36.07h5.66c.53,0,.78-.4.78-.93v-3.28Z" style="fill:#e3e3e3"/><path d="M352.39,259.27h-2.84v2.24h2.84Z" style="fill:#4a4a4a"/><path d="M48,50.18v37.4a4.81,4.81,0,0,0,4.82,4.82H96.55A4.84,4.84,0,0,0,98.39,92,4.73,4.73,0,0,0,101,89.42a4.84,4.84,0,0,0,.37-1.84V50.18Z" style="fill:#ebe2d4"/><path d="M101.37,39.62a4.84,4.84,0,0,0-.37-1.84,4.73,4.73,0,0,0-2.61-2.61,4.84,4.84,0,0,0-1.84-.37H52.82A4.81,4.81,0,0,0,48,39.62V47h53.37Z" style="fill:#ff6650"/><path d="M101.37,47H48v3.21h53.37Z" style="fill:#cf5341"/><path d="M57.14,41.64a2.51,2.51,0,1,0-2.52-2.51A2.51,2.51,0,0,0,57.14,41.64Z" style="fill:#cf5341"/><path d="M65.91,41.64a2.51,2.51,0,1,0-2.51-2.51A2.51,2.51,0,0,0,65.91,41.64Z" style="fill:#cf5341"/><path d="M74.68,41.64a2.51,2.51,0,1,0-2.51-2.51A2.51,2.51,0,0,0,74.68,41.64Z" style="fill:#cf5341"/><path d="M85.93,39.53A2.52,2.52,0,1,0,83,41.61,2.51,2.51,0,0,0,85.93,39.53Z" style="fill:#cf5341"/><path d="M92.23,41.64a2.51,2.51,0,1,0-2.51-2.51A2.51,2.51,0,0,0,92.23,41.64Z" style="fill:#cf5341"/><path d="M57.11,40.18a1.18,1.18,0,0,1-.81-.33,1.14,1.14,0,0,1-.33-.8V31.13a1.07,1.07,0,0,1,.09-.43,1.31,1.31,0,0,1,.24-.37,1.2,1.2,0,0,1,.81-.33,1.15,1.15,0,0,1,.8.33,1.14,1.14,0,0,1,.33.8v7.93a1.14,1.14,0,0,1-1.13,1.12Z" style="fill:#e3e3e3"/><path d="M66,40.18a1.26,1.26,0,0,1-.43-.08,1.15,1.15,0,0,1-.37-.25,1.2,1.2,0,0,1-.33-.8V31.13a1.07,1.07,0,0,1,.09-.43,1.06,1.06,0,0,1,.61-.61A1.07,1.07,0,0,1,66,30a1.14,1.14,0,0,1,.8.33,1.1,1.1,0,0,1,.34.8v7.93a1.17,1.17,0,0,1-.34.79A1.14,1.14,0,0,1,66,40.18Z" style="fill:#e3e3e3"/><path d="M74.65,40.18a1.13,1.13,0,0,1-1.13-1.13V31.13A1.13,1.13,0,0,1,74.65,30a1.12,1.12,0,0,1,.44.09,1.08,1.08,0,0,1,.36.24,1.15,1.15,0,0,1,.25.37,1.06,1.06,0,0,1,.08.43v7.93a1.11,1.11,0,0,1-.33.79A1.14,1.14,0,0,1,74.65,40.18Z" style="fill:#e3e3e3"/><path d="M83.52,40.18a1.13,1.13,0,0,1-1.13-1.13V31.13a1.13,1.13,0,1,1,2.26,0v7.93a1.11,1.11,0,0,1-.33.79A1.14,1.14,0,0,1,83.52,40.18Z" style="fill:#e3e3e3"/><path d="M92.2,40.18a1.13,1.13,0,0,1-1.13-1.13V31.13A1.13,1.13,0,0,1,92.2,30a1.32,1.32,0,0,1,.44.08,1.27,1.27,0,0,1,.37.25,1,1,0,0,1,.24.37,1.07,1.07,0,0,1,.09.43v7.93a1.13,1.13,0,0,1-1.14,1.12Z" style="fill:#e3e3e3"/><path d="M60.5,73.19a1.86,1.86,0,0,1-.14.7,1.79,1.79,0,0,1-.39.59,1.75,1.75,0,0,1-.6.4,1.86,1.86,0,0,1-.7.14H53.46a1.84,1.84,0,0,1-1.83-1.83V68a1.83,1.83,0,0,1,1.83-1.83h5.21a1.86,1.86,0,0,1,.7.14,1.88,1.88,0,0,1,.6.39,1.83,1.83,0,0,1,.39.6,1.86,1.86,0,0,1,.14.7Z" style="fill:gray"/><path d="M73,73.19a1.82,1.82,0,0,1-.54,1.29,1.8,1.8,0,0,1-1.29.54H65.91a1.81,1.81,0,0,1-.69-.14,1.75,1.75,0,0,1-.6-.4,1.79,1.79,0,0,1-.39-.59,1.86,1.86,0,0,1-.14-.7V68a1.86,1.86,0,0,1,.14-.7,1.83,1.83,0,0,1,.39-.6,1.88,1.88,0,0,1,.6-.39,1.81,1.81,0,0,1,.69-.14h5.22a1.8,1.8,0,0,1,1.29.54A1.82,1.82,0,0,1,73,68Z" style="fill:gray"/><path d="M85.22,73.19A1.84,1.84,0,0,1,83.39,75H78.18a1.85,1.85,0,0,1-1.3-.54,1.79,1.79,0,0,1-.39-.59,1.86,1.86,0,0,1-.14-.7V68a1.86,1.86,0,0,1,.14-.7,1.83,1.83,0,0,1,.39-.6,2,2,0,0,1,.6-.39,1.86,1.86,0,0,1,.7-.14h5.21A1.83,1.83,0,0,1,85.22,68Z" style="fill:gray"/><path d="M97.67,73.19a1.68,1.68,0,0,1-.14.7,1.79,1.79,0,0,1-.39.59,1.81,1.81,0,0,1-.59.4,1.9,1.9,0,0,1-.7.14H90.63a1.83,1.83,0,0,1-1.82-1.83V68a1.83,1.83,0,0,1,1.82-1.83h5.22a1.86,1.86,0,0,1,.7.14,2,2,0,0,1,.59.39,2,2,0,0,1,.4.6,1.85,1.85,0,0,1,.13.7Z" style="fill:gray"/><path d="M73,60a1.86,1.86,0,0,1-.14.7,2,2,0,0,1-.4.6,1.79,1.79,0,0,1-.59.39,1.9,1.9,0,0,1-.7.14H66a1.86,1.86,0,0,1-.7-.14,1.79,1.79,0,0,1-.59-.39,1.85,1.85,0,0,1-.54-1.3V54.77A1.83,1.83,0,0,1,66,53h5.21A1.81,1.81,0,0,1,73,54.77Z" style="fill:gray"/><path d="M85.25,60a1.85,1.85,0,0,1-.54,1.3,1.79,1.79,0,0,1-.59.39,1.86,1.86,0,0,1-.7.14H78.21a1.86,1.86,0,0,1-.7-.14,1.79,1.79,0,0,1-.59-.39,2,2,0,0,1-.4-.6,1.86,1.86,0,0,1-.14-.7V54.77a1.89,1.89,0,0,1,.54-1.29A1.83,1.83,0,0,1,78.21,53h5.21a1.81,1.81,0,0,1,1.83,1.82Z" style="fill:#ffd161"/><path d="M97.7,60a1.68,1.68,0,0,1-.14.7,1.83,1.83,0,0,1-.39.6,1.79,1.79,0,0,1-.59.39,1.9,1.9,0,0,1-.7.14H90.66a1.86,1.86,0,0,1-.7-.14,2,2,0,0,1-.59-.39,2,2,0,0,1-.4-.6,1.86,1.86,0,0,1-.14-.7V54.77a1.89,1.89,0,0,1,.54-1.29A1.83,1.83,0,0,1,90.66,53h5.22a1.81,1.81,0,0,1,1.82,1.82Z" style="fill:gray"/><path d="M60.54,86.4a1.84,1.84,0,0,1-1.83,1.83H53.5a1.87,1.87,0,0,1-1.3-.54,1.83,1.83,0,0,1-.53-1.29V81.19a1.68,1.68,0,0,1,.14-.7,1.72,1.72,0,0,1,1-1,1.86,1.86,0,0,1,.7-.14h5.21a1.86,1.86,0,0,1,.7.14,1.79,1.79,0,0,1,.59.39,1.75,1.75,0,0,1,.4.6,1.86,1.86,0,0,1,.14.7Z" style="fill:gray"/><path d="M73,86.4a1.89,1.89,0,0,1-.54,1.29,1.84,1.84,0,0,1-1.29.54H66a1.84,1.84,0,0,1-1.83-1.83V81.19a1.86,1.86,0,0,1,.14-.7,1.75,1.75,0,0,1,.4-.6,1.79,1.79,0,0,1,.59-.39,1.86,1.86,0,0,1,.7-.14h5.21a1.86,1.86,0,0,1,.7.14,1.83,1.83,0,0,1,.6.39,1.73,1.73,0,0,1,.39.6,1.86,1.86,0,0,1,.14.7Z" style="fill:#2fb49f"/><path d="M85.25,86.4a1.8,1.8,0,0,1-.54,1.29,1.82,1.82,0,0,1-1.29.54H78.21a1.84,1.84,0,0,1-1.83-1.83V81.19a1.86,1.86,0,0,1,.14-.7,1.91,1.91,0,0,1,.4-.6,1.79,1.79,0,0,1,.59-.39,1.86,1.86,0,0,1,.7-.14h5.21a1.86,1.86,0,0,1,.7.14,1.72,1.72,0,0,1,1,1,1.68,1.68,0,0,1,.14.7Z" style="fill:gray"/><path d="M97.7,86.4a1.83,1.83,0,0,1-1.82,1.83H90.66a1.84,1.84,0,0,1-1.83-1.83V81.19a1.87,1.87,0,0,1,.54-1.3,1.83,1.83,0,0,1,1.29-.53h5.22a1.9,1.9,0,0,1,.7.14,1.79,1.79,0,0,1,.59.39,1.73,1.73,0,0,1,.39.6,1.68,1.68,0,0,1,.14.7Z" style="fill:gray"/><path d="M98.56,109.61A18.59,18.59,0,1,0,80,91,18.59,18.59,0,0,0,98.56,109.61Z" style="fill:#4a4a4a"/><path d="M98.56,105.66A14.64,14.64,0,1,0,83.92,91,14.64,14.64,0,0,0,98.56,105.66Z" style="fill:#fff"/><path d="M98.56,93.79A2.77,2.77,0,1,0,95.79,91,2.77,2.77,0,0,0,98.56,93.79Z" style="fill:#4a4a4a"/><path d="M98.62,91.62a.58.58,0,0,1-.4-.16.56.56,0,0,1-.17-.4V79.17a.54.54,0,0,1,0-.22.46.46,0,0,1,.13-.18.44.44,0,0,1,.18-.12.54.54,0,0,1,.22-.05.56.56,0,0,1,.4.17.59.59,0,0,1,.16.4V91.06a.52.52,0,0,1,0,.21.51.51,0,0,1-.31.31A.52.52,0,0,1,98.62,91.62Z" style="fill:#4a4a4a"/><path d="M104.68,97a1.35,1.35,0,0,1-.79-.27l-6.13-4.62a1.35,1.35,0,0,1-.51-.87,1.32,1.32,0,0,1,.26-1,1.31,1.31,0,0,1,.87-.51,1.28,1.28,0,0,1,1,.26l6.12,4.61a1.41,1.41,0,0,1,.34.39,1.2,1.2,0,0,1,.17.48,1.14,1.14,0,0,1,0,.52,1.3,1.3,0,0,1-.22.46,1.19,1.19,0,0,1-.47.39A1.31,1.31,0,0,1,104.68,97Z" style="fill:#4a4a4a"/><path d="M47.7,462.68A44.34,44.34,0,1,0,3.36,418.34,44.34,44.34,0,0,0,47.7,462.68Z" style="fill:#414141"/><path d="M47.7,374a44.19,44.19,0,0,0-17.45,3.57l8.66,8.83,8.79-3.3H67.25v-4.57A44.15,44.15,0,0,0,47.7,374Z" style="fill:#ffd161"/><path d="M49.75,383.16c-5.11-3.54-11.59-5.33-18.72-5.91a44.33,44.33,0,0,0-12.56,74.43C6.65,401.55,49.75,383.16,49.75,383.16Z" style="fill:#ff6650"/><path d="M45.66,383.16c5.11-3.54,11.59-5.33,18.72-5.91a44.33,44.33,0,0,1,12.56,74.43C88.76,401.55,45.66,383.16,45.66,383.16Z" style="fill:#38d4b8"/><path d="M47.7,386.46c4.9,0,8.87-1.48,8.87-3.3s-4-3.3-8.87-3.3-8.86,1.48-8.86,3.3S42.81,386.46,47.7,386.46Z" style="fill:#fff"/><path d="M94.79,460.62c-1.18-.5-29-12.22-46.72-12.22S2,460.12.85,460.61c-.69.29-1,.84-.78,1.35a1.85,1.85,0,0,0,1.73.88h92a1.83,1.83,0,0,0,1.72-.87C95.76,461.46,95.46,460.9,94.79,460.62Z" style="fill:#ffd161"/><path d="M285,1.66l23.21,7.08L285,15.81Z" style="fill:#ff6650"/><path d="M285.32,35.79V0" style="fill:none;stroke:#8a532d;stroke-miterlimit:10;stroke-width:7px"/><path d="M299,92.23,285.11,29.82h50l36.06,62.41Z" style="fill:#ffb561"/><path d="M249.05,92.23l36.06-62.47,36.06,62.47Z" style="fill:#ffd161"/><path d="M274.67,92.21l10.44-43.49L300.5,92.23Z" style="fill:#8a532d"/><path d="M285.11,48.72l-7.36,43.49-8,0Z" style="fill:#6e4224"/><path d="M290.14,21.62l-5,8.65-5-8.65Z" style="fill:#ffd161"/><path d="M323.91,92.18l10-5v5Z" style="fill:#ffd161"/><path d="M339.87,21.62l-5,8.65-5-8.65Z" style="fill:#ffb561"/><path d="M323.88,82.12h-2.71V92.23h2.71Z" style="fill:#8a532d"/><path d="M249.05,82.12h-2.71V92.23h2.71Z" style="fill:#8a532d"/><path d="M324.76,90.63h-4.47v1.6h4.47Z" style="fill:#ffd161"/><path d="M374.63,92.18l10-5v5Z" style="fill:#ffb561"/><path d="M374.6,82.12h-2.71V92.23h2.71Z" style="fill:#6e4224"/><path d="M375.48,90.63H371v1.6h4.47Z" style="fill:#ffb561"/><path d="M246,92.18l-10-5v5Z" style="fill:#ffd161"/><path d="M249.62,90.63h-4.48v1.6h4.48Z" style="fill:#ffd161"/><path d="M327.56,338.54a24.12,24.12,0,0,0-17.92-20.22,13.34,13.34,0,0,0-11.8,2.89.54.54,0,0,0-.19.38.55.55,0,0,0,.14.4l3.06,3.45a.56.56,0,0,0,.38.19.71.71,0,0,0,.21,0,.59.59,0,0,0,.19-.11l4-3.57,2.54,2.87-4,3.57a.7.7,0,0,0-.13.17.54.54,0,0,0-.05.21.57.57,0,0,0,.13.4l2,2.22a.54.54,0,0,0,.78.05l4-3.57,2.55,2.87-4,3.57a.58.58,0,0,0-.19.38.83.83,0,0,0,0,.22.49.49,0,0,0,.11.18l2,2.22a.54.54,0,0,0,.38.19.55.55,0,0,0,.4-.14l4-3.57,2.54,2.87-4,3.57a.57.57,0,0,0-.18.38.41.41,0,0,0,0,.22.42.42,0,0,0,.11.18l2,2.22a.46.46,0,0,0,.18.13.36.36,0,0,0,.2.06.56.56,0,0,0,.41-.14l4-3.57,2.67,3-2.24,4.62a.55.55,0,0,0,0,.4l.59,1.95a.65.65,0,0,0,.15.23.59.59,0,0,0,.23.14l.15,0a.55.55,0,0,0,.37-.14A13.38,13.38,0,0,0,327.56,338.54Z" style="fill:#4fb463"/><path d="M351.38,321.22a13.35,13.35,0,0,0-11.81-2.89,24.13,24.13,0,0,0-17.91,20.22,13.42,13.42,0,0,0,4.28,11.39.57.57,0,0,0,.37.14l.13,0a.55.55,0,0,0,.24-.12.48.48,0,0,0,.15-.22l.74-1.94a.42.42,0,0,0,0-.22.46.46,0,0,0-.06-.23l-2.37-4.64,2.66-3,4,3.57a.57.57,0,0,0,.61.09.58.58,0,0,0,.17-.14l2-2.21a.52.52,0,0,0,.11-.19.76.76,0,0,0,0-.21.58.58,0,0,0-.19-.39l-4-3.57,2.55-2.87,4,3.57a.53.53,0,0,0,.4.14.59.59,0,0,0,.38-.18l2-2.23a.54.54,0,0,0,.11-.18.78.78,0,0,0,0-.22.58.58,0,0,0-.19-.38l-4-3.57,2.54-2.87,4,3.57a.55.55,0,0,0,.4.14.58.58,0,0,0,.39-.19l2-2.22a.57.57,0,0,0,.09-.61.75.75,0,0,0-.14-.17l-4-3.57,2.55-2.87,4,3.57a.53.53,0,0,0,.4.14.58.58,0,0,0,.38-.19l3.06-3.45a.59.59,0,0,0,.11-.19.71.71,0,0,0,0-.21.56.56,0,0,0-.06-.21A.52.52,0,0,0,351.38,321.22Z" style="fill:#4fb463"/><path d="M334.92,335.41l2.18,1.93a.53.53,0,0,0,.4.14.56.56,0,0,0,.38-.19l2-2.22a.64.64,0,0,0,.08-.14A21.66,21.66,0,0,0,334.92,335.41Z" style="fill:#62e07b"/><path d="M309.29,334.93a.42.42,0,0,0,.09.14l2,2.22a.55.55,0,0,0,.38.18.57.57,0,0,0,.4-.13l2.17-1.93A21,21,0,0,0,309.29,334.93Z" style="fill:#62e07b"/><path d="M324.61,343a13.44,13.44,0,0,0-6.16-6.1l-3.78,3.35a.57.57,0,0,0-.18.39.39.39,0,0,0,0,.21.52.52,0,0,0,.11.19l1.1,1.24,3.53-1,.13.21,2-1.79.22.25a14.09,14.09,0,0,0,1.11,5.51l-.4.83.11.19a.59.59,0,0,0,.31.25.53.53,0,0,0,.39,0l1.48-.67,1.47.67a.56.56,0,0,0,.4,0,.61.61,0,0,0,.3-.25l.18-.29-.43-.83a14.11,14.11,0,0,0,1.07-5.41l.22-.25,2,1.79.13-.21,3.53,1,1.1-1.24a.52.52,0,0,0,.11-.19.39.39,0,0,0,0-.21.57.57,0,0,0-.18-.39l-3.77-3.35A13.34,13.34,0,0,0,324.61,343Z" style="fill:#62e07b"/><path d="M325.44,348.47c-2.25-8.19-11.89-12.18-22.43-9.28s-16.8,11.24-14.55,19.42a.56.56,0,0,0,.26.34.6.6,0,0,0,.27.07l.15,0,4.44-1.22a.54.54,0,0,0,.33-.26.49.49,0,0,0,.06-.41l-1.42-5.19,3.7-1,1.42,5.18a.54.54,0,0,0,.26.33.49.49,0,0,0,.41.06l2.86-.78a.54.54,0,0,0,.33-.26.58.58,0,0,0,.06-.41l-1.42-5.19,3.69-1,1.43,5.18a.56.56,0,0,0,.25.33.56.56,0,0,0,.42.06l2.86-.79a.53.53,0,0,0,.38-.67l-1.42-5.18,3.7-1,1.42,5.19a.55.55,0,0,0,.67.38l2.86-.78a.54.54,0,0,0,.33-.26.49.49,0,0,0,.06-.41l-1.42-5.19,3.83-1.05,3.18,5.21a.52.52,0,0,0,.3.24.58.58,0,0,0,.39,0l2-.89a.57.57,0,0,0,.35-.69Z" style="fill:#4fb463"/><path d="M346.22,339.19c-10.54-2.91-20.18,1.09-22.43,9.28a.62.62,0,0,0,0,.38.57.57,0,0,0,.28.27l2,.9a.58.58,0,0,0,.39,0,.55.55,0,0,0,.31-.25l3.17-5.2,3.84,1.05-1.43,5.19a.58.58,0,0,0,.06.41.54.54,0,0,0,.33.26l2.86.78a.49.49,0,0,0,.41-.06.54.54,0,0,0,.26-.33l1.42-5.18,3.7,1L340,352.91a.58.58,0,0,0,.06.41.54.54,0,0,0,.33.26l2.86.78a.53.53,0,0,0,.41-.05.57.57,0,0,0,.26-.33l1.42-5.19,3.7,1L347.61,355a.56.56,0,0,0,.05.42.59.59,0,0,0,.33.25l2.86.79a.62.62,0,0,0,.42-.06.56.56,0,0,0,.25-.33l1.43-5.19,3.7,1-1.43,5.18a.62.62,0,0,0,.06.42.52.52,0,0,0,.33.25l4.45,1.23.15,0a.53.53,0,0,0,.27-.08.43.43,0,0,0,.16-.14.5.5,0,0,0,.1-.19C363,350.43,356.76,342.07,346.22,339.19Z" style="fill:#4fb463"/><path d="M327.56,385.52a1.06,1.06,0,0,1-.83.48h-4.24a1.07,1.07,0,0,1-.47-.14,1.17,1.17,0,0,1-.36-.34l-2.12-3.75c-.15-.26,0-.48.28-.48h9.59c.31,0,.44.23.28.48Z" style="fill:#b56d3b"/><path d="M327.53,380.79a1,1,0,0,1-.33.36,1.07,1.07,0,0,1-.47.14h-4.24a1.07,1.07,0,0,1-.46-.14.88.88,0,0,1-.33-.36l-2.2-4.54a.34.34,0,0,1-.05-.17.28.28,0,0,1,0-.18.53.53,0,0,1,.14-.12.31.31,0,0,1,.19,0h9.6a.28.28,0,0,1,.18,0,.41.41,0,0,1,.14.12.37.37,0,0,1,.05.18.27.27,0,0,1-.06.17Z" style="fill:#8a532d"/><path d="M327.55,375.27a1,1,0,0,1-.35.34,1,1,0,0,1-.47.15h-4.24a1,1,0,0,1-.47-.15.92.92,0,0,1-.34-.34l-2.15-4a.28.28,0,0,1-.07-.17.33.33,0,0,1,0-.17.24.24,0,0,1,.14-.12.27.27,0,0,1,.18,0h9.6a.29.29,0,0,1,.18,0,.25.25,0,0,1,.13.12.25.25,0,0,1,0,.17.27.27,0,0,1-.06.17Z" style="fill:#b56d3b"/><path d="M327.56,370.29a1,1,0,0,1-.36.34,1,1,0,0,1-.47.14h-4.24a1,1,0,0,1-.47-.14,1.06,1.06,0,0,1-.36-.34l-2.12-3.74c-.15-.27,0-.48.28-.48h9.59c.31,0,.44.22.28.48Z" style="fill:#8a532d"/><path d="M327.56,365.58a1,1,0,0,1-.83.49h-4.24a1.07,1.07,0,0,1-.47-.14,1.2,1.2,0,0,1-.36-.35l-2.12-3.74c-.15-.26,0-.48.28-.48h9.59c.31,0,.44.22.28.48Z" style="fill:#b56d3b"/><path d="M327.53,360.86a.93.93,0,0,1-.33.35,1,1,0,0,1-.47.15h-4.24a1,1,0,0,1-.46-.15.8.8,0,0,1-.33-.35l-2.2-4.54a.34.34,0,0,1-.05-.17.27.27,0,0,1,0-.18.39.39,0,0,1,.14-.12.31.31,0,0,1,.19,0h9.6a.29.29,0,0,1,.18,0,.32.32,0,0,1,.14.12.35.35,0,0,1,.05.18.27.27,0,0,1-.06.17Z" style="fill:#8a532d"/><path d="M327.56,355.34a1,1,0,0,1-.83.48h-4.24a1,1,0,0,1-.47-.14,1.06,1.06,0,0,1-.36-.34l-2.12-3.74c-.15-.27,0-.48.28-.48h9.59c.31,0,.44.22.28.48Z" style="fill:#b56d3b"/><path d="M327.56,350.64a1.06,1.06,0,0,1-.83.48h-4.24A1.07,1.07,0,0,1,322,351a1.17,1.17,0,0,1-.36-.34l-2.12-3.75c-.15-.26,0-.48.28-.48h9.59c.31,0,.44.23.28.48Z" style="fill:#8a532d"/><path d="M327.56,425.1a1.07,1.07,0,0,1-.82.49h-4.25a1.16,1.16,0,0,1-.47-.14,1.14,1.14,0,0,1-.35-.34l-2.13-3.75c-.15-.26,0-.48.28-.48h9.59c.31,0,.44.23.28.48Z" style="fill:#b56d3b"/><path d="M327.53,420.38a.88.88,0,0,1-.34.35.9.9,0,0,1-.46.15h-4.24a1,1,0,0,1-.46-.15.93.93,0,0,1-.33-.35l-2.2-4.54a.34.34,0,0,1-.05-.17.27.27,0,0,1,0-.18.39.39,0,0,1,.14-.12.31.31,0,0,1,.19,0h9.6a.29.29,0,0,1,.18,0,.32.32,0,0,1,.14.12.31.31,0,0,1,0,.35Z" style="fill:#8a532d"/><path d="M327.56,414.87a1.06,1.06,0,0,1-.83.48h-4.24a1.07,1.07,0,0,1-.47-.14,1.17,1.17,0,0,1-.36-.34l-2.12-3.75c-.15-.26,0-.48.28-.48h9.59c.31,0,.44.23.28.48Z" style="fill:#b56d3b"/><path d="M327.55,410.15a1,1,0,0,1-.35.34,1,1,0,0,1-.47.15h-4.24a1,1,0,0,1-.47-.15.92.92,0,0,1-.34-.34l-2.15-4a.28.28,0,0,1-.07-.17.25.25,0,0,1,0-.17.24.24,0,0,1,.14-.12.27.27,0,0,1,.18,0h9.6a.29.29,0,0,1,.18,0,.25.25,0,0,1,.13.12.25.25,0,0,1,0,.17.27.27,0,0,1-.06.17Z" style="fill:#8a532d"/><path d="M327.56,405.17a1,1,0,0,1-.36.34,1,1,0,0,1-.47.14h-4.24a1,1,0,0,1-.47-.14,1.06,1.06,0,0,1-.36-.34l-2.12-3.74c-.15-.27,0-.48.28-.48h9.59c.31,0,.44.22.28.48Z" style="fill:#b56d3b"/><path d="M327.53,400.45a1.1,1.1,0,0,1-.33.35,1,1,0,0,1-.47.15h-4.24a1,1,0,0,1-.46-.15.92.92,0,0,1-.33-.35l-2.2-4.54a.34.34,0,0,1-.05-.17.27.27,0,0,1,0-.18.31.31,0,0,1,.14-.12.31.31,0,0,1,.19,0h9.6a.29.29,0,0,1,.18,0,.27.27,0,0,1,.14.12.31.31,0,0,1,0,.35Z" style="fill:#8a532d"/><path d="M327.56,394.93a1,1,0,0,1-.36.34,1.07,1.07,0,0,1-.47.14h-4.24a1.06,1.06,0,0,1-.83-.48l-2.12-3.74c-.15-.27,0-.48.28-.48h9.59c.31,0,.44.22.28.48Z" style="fill:#b56d3b"/><path d="M327.56,390.22a1.07,1.07,0,0,1-.83.49h-4.24a1,1,0,0,1-.47-.15,1.06,1.06,0,0,1-.36-.34l-2.12-3.74c-.15-.26,0-.48.28-.48h9.59c.31,0,.44.22.28.48Z" style="fill:#8a532d"/><path d="M345.56,428.67c-.52-.22-12.92-5.45-20.83-5.45s-20.53,5.23-21.06,5.45c-.3.13-.44.37-.35.6a.85.85,0,0,0,.34.31.93.93,0,0,0,.44.08h41a.85.85,0,0,0,.44-.09.74.74,0,0,0,.33-.3C346,429,345.86,428.8,345.56,428.67Z" style="fill:#ffd161"/></svg>