<svg width="365" height="105" viewBox="0 0 365 105" fill="none" xmlns="http://www.w3.org/2000/svg">
<path d="M6.48853 2.82526L20.047 3.86475C25.0994 4.25629 29.56 4.60278 33.4289 4.90423C37.2978 5.20568 39.3845 5.37893 39.689 5.42398L40.0939 5.52273V24.1503H29.6552V74.6537H10.2882V20.9955H0V9.62869C0.0311449 6.85327 0.067482 4.95101 0.0986269 3.91152C0.129772 2.87204 0.218011 2.35229 0.352972 2.35229C0.487934 2.35229 2.50198 2.50822 6.48853 2.82526Z" fill="#19181E"/>
<path d="M58.8847 44.9035C58.7808 40.943 58.1043 39.0131 56.8551 39.1135C55.0348 39.0824 54.1229 41.1613 54.1195 45.3505L54.0209 75.3448L35.6194 74.8251L35.6661 26.0004L51.8407 24.2229L54.1714 33.2093C55.3549 30.0596 56.7824 27.7156 58.4538 26.1771C60.1253 24.6387 62.4663 23.8019 65.477 23.6668C73.6889 23.2926 77.6685 29.6196 77.4159 42.6478L77.364 47.2683L58.7601 48.7911L58.8847 44.9035Z" fill="#19181E"/>
<path d="M82.5858 16.9102C80.6895 15.3371 79.7257 13.0606 79.6946 10.0807C79.7292 7.0697 80.6929 4.75337 82.5858 3.13178C84.4788 1.51018 87.0032 0.680326 90.1593 0.642212C93.2738 0.642212 95.774 1.44608 97.66 3.05382C99.546 4.66156 100.506 7.00386 100.541 10.0807C100.51 13.0606 99.546 15.3371 97.6496 16.9102C95.7532 18.4832 93.2357 19.2698 90.097 19.2698C86.9825 19.2698 84.4788 18.4832 82.5858 16.9102ZM99.4145 78.0475L80.8158 77.1847V25.8965L99.4197 24.2697L99.4145 78.0475Z" fill="#19181E"/>
<path d="M119.062 31.4005C121.159 25.9155 125.248 23.0725 131.328 22.8716C136.602 22.6671 140.766 24.7998 143.822 29.2696C146.878 33.7394 148.435 40.5238 148.494 49.6227C148.459 59.5394 147.006 66.7205 144.133 71.1661C141.261 75.6116 137.24 77.7529 132.07 77.5901C129.473 77.5605 126.961 76.6581 124.938 75.0277C123.015 73.453 121.669 71.2827 121.112 68.8584L121.564 96.9765L103.521 95.1002V25.5638L118.19 24.2957L119.062 31.4005ZM126.718 49.8774C126.749 45.1755 126.554 41.8249 126.132 39.8256C125.711 37.8298 124.922 36.863 123.775 36.9306C122.628 36.9982 121.756 37.9389 121.268 39.9503C120.78 41.9617 120.546 45.2933 120.583 49.9242C120.619 54.5551 120.775 57.7931 121.268 59.7993C121.761 61.8055 122.612 62.8242 123.827 62.793C124.943 62.8242 125.711 61.8471 126.132 59.8513C126.552 57.8554 126.749 54.5447 126.718 49.8774Z" fill="#19181E"/>
<path d="M149.636 2.82526L163.194 3.86475C168.243 4.25629 172.704 4.60278 176.576 4.90423C180.449 5.20568 182.535 5.37893 182.836 5.42398L183.241 5.52273V24.1503H172.803V74.6537H153.436V20.9955H143.147V9.62869C143.178 6.85327 143.215 4.95101 143.246 3.91152C143.277 2.87204 143.365 2.35229 143.5 2.35229C143.635 2.35229 145.644 2.50822 149.636 2.82526Z" fill="#CE5737"/>
<path d="M202.032 44.9035C201.928 40.943 201.252 39.0131 200.002 39.1135C198.179 39.0824 197.267 41.1613 197.267 45.3505L197.163 75.3448L178.762 74.8251L178.814 26.0004L194.983 24.2229L197.319 33.2093C198.495 30.0596 199.923 27.7156 201.601 26.1771C203.28 24.6387 205.619 23.8019 208.619 23.6668C216.831 23.2926 220.811 29.6196 220.558 42.6478L220.506 47.2683L201.902 48.7911L202.032 44.9035Z" fill="#CE5737"/>
<path d="M250.166 24.0931L267.504 23.2303V76.2181L252.632 75.506L251.822 68.4531C249.694 73.8688 245.605 76.6269 239.556 76.7274C234.283 76.7932 230.13 74.5843 227.098 70.1007C224.067 65.617 222.522 58.876 222.463 49.8775C222.494 40.0959 223.939 33.0067 226.797 28.6096C229.656 24.2126 233.651 22.1146 238.783 22.3155C241.391 22.3437 243.912 23.2603 245.931 24.9143C247.854 26.4745 249.195 28.6392 249.736 31.0576L250.166 24.0931ZM247.052 62.8191C248.267 62.8503 249.128 61.8732 249.585 59.8773C250.042 57.8815 250.296 54.5812 250.296 49.9762C250.296 45.3713 250.052 42.1125 249.559 40.1011C249.066 38.0897 248.235 37.071 247.052 37.1074C245.905 37.0399 245.116 37.9962 244.695 39.9712C244.275 41.9462 244.078 45.2778 244.114 49.9451C244.15 54.6123 244.275 57.9491 244.695 59.9449C245.116 61.9407 245.926 62.8867 247.073 62.7983L247.052 62.8191Z" fill="#CE5737"/>
<path d="M293.121 56.1717L312.129 55.0022V55.6103C312.091 62.8521 310.266 68.4948 306.653 72.5383C303.04 76.5819 297.837 78.6384 291.044 78.7077H290.998C283.087 78.7077 277.51 76.2701 274.268 71.3949C271.122 66.6583 269.551 59.9259 269.554 51.1977C269.623 33.2978 276.787 23.9424 291.044 23.1316C297.467 22.8613 302.571 24.6389 306.357 28.4642C310.105 32.5909 311.996 38.393 312.031 45.8704V46.4785L293.344 46.5824V45.9743C293.299 41.2516 292.619 38.8902 291.304 38.8902C290.321 38.8902 289.629 39.8205 289.227 41.6812C288.826 43.5419 288.615 46.5859 288.594 50.8131C288.594 55.3175 288.797 58.533 289.201 60.4595C289.606 62.386 290.283 63.3164 291.231 63.2505C292.477 63.1466 293.119 60.9983 293.157 56.8057L293.121 56.1717Z" fill="#CE5737"/>
<path d="M342.023 77.7929L333.054 58.5624L333.459 77.0341L314.502 76.2233L314.548 5.11207L333.51 4.30127L333.054 43.4327L340.606 25.8238L360.627 25.4184L350.391 50.8858L362.849 79.7679L342.023 77.7929Z" fill="#CE5737"/>
<path d="M147.046 89.281H144.921C144.861 88.9325 144.749 88.6238 144.586 88.3548C144.423 88.0821 144.221 87.8511 143.978 87.6617C143.736 87.4723 143.459 87.3302 143.149 87.2355C142.842 87.137 142.51 87.0878 142.154 87.0878C141.522 87.0878 140.961 87.2469 140.472 87.5651C139.984 87.8795 139.601 88.3416 139.325 88.9514C139.048 89.5575 138.91 90.298 138.91 91.173C138.91 92.0632 139.048 92.8132 139.325 93.423C139.605 94.0291 139.988 94.4874 140.472 94.798C140.961 95.1048 141.52 95.2583 142.149 95.2583C142.497 95.2583 142.823 95.2128 143.126 95.1219C143.433 95.0272 143.707 94.8889 143.95 94.7071C144.196 94.5253 144.402 94.3018 144.569 94.0367C144.739 93.7715 144.857 93.4685 144.921 93.1276L147.046 93.1389C146.967 93.692 146.794 94.2109 146.529 94.6958C146.268 95.1806 145.925 95.6086 145.501 95.9798C145.077 96.3473 144.58 96.6352 144.012 96.8435C143.444 97.048 142.813 97.1503 142.12 97.1503C141.097 97.1503 140.185 96.9136 139.382 96.4401C138.579 95.9666 137.946 95.2829 137.484 94.3889C137.022 93.495 136.791 92.423 136.791 91.173C136.791 89.9192 137.024 88.8473 137.489 87.9571C137.955 87.0632 138.59 86.3795 139.393 85.906C140.196 85.4325 141.105 85.1958 142.12 85.1958C142.768 85.1958 143.37 85.2867 143.927 85.4685C144.484 85.6503 144.98 85.9173 145.416 86.2696C145.851 86.6181 146.209 87.0461 146.489 87.5537C146.774 88.0575 146.959 88.6333 147.046 89.281ZM148.886 96.9912V88.2639H150.88V89.7185H150.971C151.13 89.2147 151.403 88.8264 151.789 88.5537C152.179 88.2772 152.624 88.1389 153.124 88.1389C153.238 88.1389 153.365 88.1446 153.505 88.156C153.649 88.1636 153.768 88.1768 153.863 88.1958V90.0878C153.776 90.0575 153.638 90.031 153.448 90.0083C153.263 89.9817 153.083 89.9685 152.909 89.9685C152.534 89.9685 152.196 90.0499 151.897 90.2128C151.602 90.3719 151.369 90.5935 151.198 90.8776C151.028 91.1617 150.943 91.4893 150.943 91.8605V96.9912H148.886ZM158.734 97.1617C157.859 97.1617 157.103 96.9798 156.467 96.6162C155.834 96.2488 155.347 95.7298 155.007 95.0594C154.666 94.3852 154.495 93.5916 154.495 92.6787C154.495 91.781 154.666 90.9931 155.007 90.3151C155.351 89.6333 155.832 89.103 156.45 88.7242C157.067 88.3416 157.793 88.1503 158.626 88.1503C159.164 88.1503 159.671 88.2374 160.149 88.4117C160.63 88.5821 161.054 88.8473 161.421 89.2071C161.793 89.567 162.084 90.0253 162.296 90.5821C162.508 91.1352 162.614 91.7942 162.614 92.5594V93.1901H155.461V91.8037H160.643C160.639 91.4098 160.554 91.0594 160.387 90.7526C160.221 90.442 159.988 90.1977 159.688 90.0196C159.393 89.8416 159.048 89.7526 158.654 89.7526C158.234 89.7526 157.864 89.8548 157.546 90.0594C157.228 90.2602 156.98 90.5253 156.802 90.8548C156.628 91.1806 156.539 91.5386 156.535 91.9287V93.1389C156.535 93.6465 156.628 94.0821 156.813 94.4458C156.999 94.8056 157.258 95.0821 157.592 95.2753C157.925 95.4647 158.315 95.5594 158.762 95.5594C159.061 95.5594 159.332 95.5177 159.575 95.4344C159.817 95.3473 160.027 95.2204 160.205 95.0537C160.383 94.887 160.518 94.6806 160.609 94.4344L162.529 94.6503C162.408 95.1579 162.177 95.6011 161.836 95.9798C161.499 96.3548 161.067 96.6465 160.541 96.8548C160.014 97.0594 159.412 97.1617 158.734 97.1617ZM166.866 97.1673C166.313 97.1673 165.815 97.0689 165.372 96.8719C164.932 96.6711 164.584 96.3757 164.326 95.9855C164.072 95.5954 163.945 95.1143 163.945 94.5423C163.945 94.0499 164.036 93.6427 164.218 93.3208C164.4 92.9988 164.648 92.7412 164.963 92.548C165.277 92.3548 165.631 92.209 166.025 92.1105C166.423 92.0083 166.834 91.9344 167.258 91.8889C167.769 91.8359 168.184 91.7886 168.502 91.7469C168.82 91.7014 169.052 91.6333 169.195 91.5423C169.343 91.4476 169.417 91.3018 169.417 91.1048V91.0708C169.417 90.6427 169.29 90.3113 169.036 90.0764C168.783 89.8416 168.417 89.7242 167.94 89.7242C167.436 89.7242 167.036 89.834 166.741 90.0537C166.449 90.2734 166.252 90.5329 166.15 90.8321L164.23 90.5594C164.381 90.0291 164.631 89.5859 164.98 89.2298C165.328 88.87 165.754 88.6011 166.258 88.423C166.762 88.2412 167.319 88.1503 167.928 88.1503C168.349 88.1503 168.767 88.1995 169.184 88.298C169.601 88.3965 169.981 88.5594 170.326 88.7867C170.671 89.0101 170.947 89.3151 171.156 89.7014C171.368 90.0878 171.474 90.5708 171.474 91.1503V96.9912H169.497V95.7923H169.428C169.303 96.0348 169.127 96.262 168.9 96.4742C168.677 96.6825 168.394 96.8511 168.053 96.9798C167.716 97.1048 167.32 97.1673 166.866 97.1673ZM167.4 95.656C167.813 95.656 168.171 95.5745 168.474 95.4117C168.777 95.245 169.01 95.0253 169.173 94.7526C169.339 94.4798 169.423 94.1825 169.423 93.8605V92.8321C169.358 92.8852 169.248 92.9344 169.093 92.9798C168.942 93.0253 168.771 93.0651 168.582 93.0992C168.392 93.1333 168.205 93.1636 168.019 93.1901C167.834 93.2166 167.673 93.2393 167.536 93.2583C167.23 93.2999 166.955 93.3681 166.713 93.4628C166.47 93.5575 166.279 93.6901 166.139 93.8605C165.998 94.0272 165.928 94.2431 165.928 94.5083C165.928 94.887 166.067 95.173 166.343 95.3662C166.62 95.5594 166.972 95.656 167.4 95.656ZM177.9 88.2639V89.8548H172.883V88.2639H177.9ZM174.122 86.173H176.178V94.3662C176.178 94.6427 176.22 94.8548 176.303 95.0026C176.391 95.1465 176.504 95.245 176.644 95.298C176.784 95.3511 176.94 95.3776 177.11 95.3776C177.239 95.3776 177.356 95.3681 177.463 95.3492C177.572 95.3302 177.656 95.3132 177.713 95.298L178.059 96.906C177.949 96.9439 177.792 96.9855 177.588 97.031C177.387 97.0764 177.141 97.103 176.849 97.1105C176.334 97.1257 175.87 97.048 175.457 96.8776C175.044 96.7033 174.716 96.4344 174.474 96.0708C174.235 95.7071 174.118 95.2526 174.122 94.7071V86.173ZM183.39 97.1617C182.515 97.1617 181.759 96.9798 181.123 96.6162C180.49 96.2488 180.004 95.7298 179.663 95.0594C179.322 94.3852 179.151 93.5916 179.151 92.6787C179.151 91.781 179.322 90.9931 179.663 90.3151C180.007 89.6333 180.489 89.103 181.106 88.7242C181.723 88.3416 182.449 88.1503 183.282 88.1503C183.82 88.1503 184.328 88.2374 184.805 88.4117C185.286 88.5821 185.71 88.8473 186.078 89.2071C186.449 89.567 186.74 90.0253 186.953 90.5821C187.165 91.1352 187.271 91.7942 187.271 92.5594V93.1901H180.117V91.8037H185.299C185.295 91.4098 185.21 91.0594 185.043 90.7526C184.877 90.442 184.644 90.1977 184.345 90.0196C184.049 89.8416 183.704 89.7526 183.311 89.7526C182.89 89.7526 182.521 89.8548 182.203 90.0594C181.884 90.2602 181.636 90.5253 181.458 90.8548C181.284 91.1806 181.195 91.5386 181.191 91.9287V93.1389C181.191 93.6465 181.284 94.0821 181.47 94.4458C181.655 94.8056 181.915 95.0821 182.248 95.2753C182.581 95.4647 182.971 95.5594 183.418 95.5594C183.718 95.5594 183.989 95.5177 184.231 95.4344C184.473 95.3473 184.684 95.2204 184.862 95.0537C185.04 94.887 185.174 94.6806 185.265 94.4344L187.186 94.6503C187.064 95.1579 186.833 95.6011 186.492 95.9798C186.155 96.3548 185.723 96.6465 185.197 96.8548C184.67 97.0594 184.068 97.1617 183.39 97.1617ZM194.258 100.264C193.978 100.264 193.718 100.241 193.48 100.196C193.245 100.154 193.057 100.105 192.917 100.048L193.394 98.4458C193.694 98.5329 193.961 98.5745 194.195 98.5708C194.43 98.567 194.637 98.4931 194.815 98.3492C194.997 98.209 195.15 97.9742 195.275 97.6446L195.451 97.173L192.286 88.2639H194.468L196.48 94.8548H196.57L198.588 88.2639H200.775L197.281 98.048C197.118 98.5102 196.902 98.906 196.633 99.2355C196.364 99.5689 196.034 99.8227 195.644 99.9969C195.258 100.175 194.796 100.264 194.258 100.264ZM205.708 97.1617C204.856 97.1617 204.117 96.9742 203.492 96.5992C202.867 96.2242 202.382 95.6995 202.038 95.0253C201.697 94.3511 201.526 93.5632 201.526 92.6617C201.526 91.7602 201.697 90.9704 202.038 90.2923C202.382 89.6143 202.867 89.0878 203.492 88.7128C204.117 88.3378 204.856 88.1503 205.708 88.1503C206.561 88.1503 207.299 88.3378 207.924 88.7128C208.549 89.0878 209.032 89.6143 209.373 90.2923C209.718 90.9704 209.89 91.7602 209.89 92.6617C209.89 93.5632 209.718 94.3511 209.373 95.0253C209.032 95.6995 208.549 96.2242 207.924 96.5992C207.299 96.9742 206.561 97.1617 205.708 97.1617ZM205.72 95.5139C206.182 95.5139 206.568 95.387 206.879 95.1333C207.189 94.8757 207.42 94.531 207.572 94.0992C207.727 93.6673 207.805 93.1863 207.805 92.656C207.805 92.1219 207.727 91.6389 207.572 91.2071C207.42 90.7715 207.189 90.4249 206.879 90.1673C206.568 89.9098 206.182 89.781 205.72 89.781C205.246 89.781 204.852 89.9098 204.538 90.1673C204.227 90.4249 203.994 90.7715 203.839 91.2071C203.687 91.6389 203.612 92.1219 203.612 92.656C203.612 93.1863 203.687 93.6673 203.839 94.0992C203.994 94.531 204.227 94.8757 204.538 95.1333C204.852 95.387 205.246 95.5139 205.72 95.5139ZM217.198 93.3208V88.2639H219.255V96.9912H217.261V95.4401H217.17C216.973 95.9287 216.649 96.3283 216.198 96.6389C215.751 96.9495 215.2 97.1048 214.545 97.1048C213.973 97.1048 213.467 96.978 213.028 96.7242C212.592 96.4666 212.251 96.0935 212.005 95.6048C211.759 95.1124 211.636 94.5177 211.636 93.8208V88.2639H213.693V93.5026C213.693 94.0556 213.844 94.495 214.147 94.8208C214.45 95.1465 214.848 95.3094 215.34 95.3094C215.643 95.3094 215.937 95.2355 216.221 95.0878C216.505 94.9401 216.738 94.7204 216.92 94.4287C217.105 94.1333 217.198 93.7639 217.198 93.3208ZM221.37 96.9912V88.2639H223.364V89.7185H223.455C223.614 89.2147 223.887 88.8264 224.274 88.5537C224.664 88.2772 225.109 88.1389 225.609 88.1389C225.722 88.1389 225.849 88.1446 225.989 88.156C226.133 88.1636 226.253 88.1768 226.347 88.1958V90.0878C226.26 90.0575 226.122 90.031 225.933 90.0083C225.747 89.9817 225.567 89.9685 225.393 89.9685C225.018 89.9685 224.681 90.0499 224.382 90.2128C224.086 90.3719 223.853 90.5935 223.683 90.8776C223.512 91.1617 223.427 91.4893 223.427 91.8605V96.9912H221.37ZM233.739 91.8776V96.9912H231.683V88.2639H233.649V89.7469H233.751C233.952 89.2583 234.272 88.87 234.711 88.5821C235.154 88.2942 235.702 88.1503 236.353 88.1503C236.955 88.1503 237.48 88.2791 237.927 88.5367C238.378 88.7942 238.726 89.1673 238.972 89.656C239.222 90.1446 239.346 90.7374 239.342 91.4344V96.9912H237.285V91.7526C237.285 91.1692 237.133 90.7128 236.83 90.3833C236.531 90.0537 236.116 89.8889 235.586 89.8889C235.226 89.8889 234.906 89.9685 234.626 90.1276C234.349 90.2829 234.132 90.5083 233.972 90.8037C233.817 91.0992 233.739 91.4571 233.739 91.8776ZM245.296 97.1617C244.421 97.1617 243.666 96.9798 243.029 96.6162C242.397 96.2488 241.91 95.7298 241.569 95.0594C241.228 94.3852 241.058 93.5916 241.058 92.6787C241.058 91.781 241.228 90.9931 241.569 90.3151C241.914 89.6333 242.395 89.103 243.012 88.7242C243.63 88.3416 244.355 88.1503 245.188 88.1503C245.726 88.1503 246.234 88.2374 246.711 88.4117C247.192 88.5821 247.616 88.8473 247.984 89.2071C248.355 89.567 248.647 90.0253 248.859 90.5821C249.071 91.1352 249.177 91.7942 249.177 92.5594V93.1901H242.024V91.8037H247.205C247.202 91.4098 247.116 91.0594 246.95 90.7526C246.783 90.442 246.55 90.1977 246.251 90.0196C245.955 89.8416 245.611 89.7526 245.217 89.7526C244.796 89.7526 244.427 89.8548 244.109 90.0594C243.791 90.2602 243.543 90.5253 243.364 90.8548C243.19 91.1806 243.101 91.5386 243.097 91.9287V93.1389C243.097 93.6465 243.19 94.0821 243.376 94.4458C243.561 94.8056 243.821 95.0821 244.154 95.2753C244.488 95.4647 244.878 95.5594 245.325 95.5594C245.624 95.5594 245.895 95.5177 246.137 95.4344C246.38 95.3473 246.59 95.2204 246.768 95.0537C246.946 94.887 247.08 94.6806 247.171 94.4344L249.092 94.6503C248.971 95.1579 248.739 95.6011 248.399 95.9798C248.061 96.3548 247.63 96.6465 247.103 96.8548C246.577 97.0594 245.974 97.1617 245.296 97.1617ZM252.411 88.2639L254.173 91.4855L255.963 88.2639H258.139L255.508 92.6276L258.184 96.9912H256.019L254.173 93.8492L252.343 96.9912H250.161L252.82 92.6276L250.23 88.2639H252.411ZM264.088 88.2639V89.8548H259.07V88.2639H264.088ZM260.309 86.173H262.366V94.3662C262.366 94.6427 262.408 94.8548 262.491 95.0026C262.578 95.1465 262.692 95.245 262.832 95.298C262.972 95.3511 263.127 95.3776 263.298 95.3776C263.427 95.3776 263.544 95.3681 263.65 95.3492C263.76 95.3302 263.843 95.3132 263.9 95.298L264.247 96.906C264.137 96.9439 263.98 96.9855 263.775 97.031C263.574 97.0764 263.328 97.103 263.036 97.1105C262.521 97.1257 262.057 97.048 261.644 96.8776C261.231 96.7033 260.904 96.4344 260.661 96.0708C260.423 95.7071 260.305 95.2526 260.309 94.7071V86.173ZM272.288 97.1673C271.735 97.1673 271.237 97.0689 270.793 96.8719C270.354 96.6711 270.006 96.3757 269.748 95.9855C269.494 95.5954 269.367 95.1143 269.367 94.5423C269.367 94.0499 269.458 93.6427 269.64 93.3208C269.822 92.9988 270.07 92.7412 270.384 92.548C270.699 92.3548 271.053 92.209 271.447 92.1105C271.845 92.0083 272.256 91.9344 272.68 91.8889C273.191 91.8359 273.606 91.7886 273.924 91.7469C274.242 91.7014 274.473 91.6333 274.617 91.5423C274.765 91.4476 274.839 91.3018 274.839 91.1048V91.0708C274.839 90.6427 274.712 90.3113 274.458 90.0764C274.204 89.8416 273.839 89.7242 273.362 89.7242C272.858 89.7242 272.458 89.834 272.163 90.0537C271.871 90.2734 271.674 90.5329 271.572 90.8321L269.651 90.5594C269.803 90.0291 270.053 89.5859 270.401 89.2298C270.75 88.87 271.176 88.6011 271.68 88.423C272.184 88.2412 272.74 88.1503 273.35 88.1503C273.771 88.1503 274.189 88.1995 274.606 88.298C275.023 88.3965 275.403 88.5594 275.748 88.7867C276.093 89.0101 276.369 89.3151 276.578 89.7014C276.79 90.0878 276.896 90.5708 276.896 91.1503V96.9912H274.918V95.7923H274.85C274.725 96.0348 274.549 96.262 274.322 96.4742C274.098 96.6825 273.816 96.8511 273.475 96.9798C273.138 97.1048 272.742 97.1673 272.288 97.1673ZM272.822 95.656C273.235 95.656 273.593 95.5745 273.896 95.4117C274.199 95.245 274.432 95.0253 274.595 94.7526C274.761 94.4798 274.845 94.1825 274.845 93.8605V92.8321C274.78 92.8852 274.67 92.9344 274.515 92.9798C274.364 93.0253 274.193 93.0651 274.004 93.0992C273.814 93.1333 273.627 93.1636 273.441 93.1901C273.256 93.2166 273.095 93.2393 272.958 93.2583C272.651 93.2999 272.377 93.3681 272.134 93.4628C271.892 93.5575 271.701 93.6901 271.561 93.8605C271.42 94.0272 271.35 94.2431 271.35 94.5083C271.35 94.887 271.489 95.173 271.765 95.3662C272.042 95.5594 272.394 95.656 272.822 95.656ZM282.203 97.1446C281.517 97.1446 280.903 96.9685 280.362 96.6162C279.82 96.2639 279.392 95.7526 279.078 95.0821C278.763 94.4117 278.606 93.5973 278.606 92.6389C278.606 91.6692 278.765 90.8511 279.083 90.1844C279.405 89.5139 279.839 89.0083 280.384 88.6673C280.93 88.3227 281.538 88.1503 282.208 88.1503C282.72 88.1503 283.14 88.2374 283.47 88.4117C283.799 88.5821 284.061 88.7886 284.254 89.031C284.447 89.2696 284.596 89.495 284.703 89.7071H284.788V85.3548H286.85V96.9912H284.828V95.6162H284.703C284.596 95.8283 284.443 96.0537 284.242 96.2923C284.042 96.5272 283.776 96.728 283.447 96.8946C283.117 97.0613 282.703 97.1446 282.203 97.1446ZM282.776 95.4571C283.212 95.4571 283.583 95.3397 283.89 95.1048C284.197 94.8662 284.43 94.5348 284.589 94.1105C284.748 93.6863 284.828 93.192 284.828 92.6276C284.828 92.0632 284.748 91.5727 284.589 91.156C284.434 90.7393 284.203 90.4155 283.896 90.1844C283.593 89.9533 283.22 89.8378 282.776 89.8378C282.318 89.8378 281.936 89.9571 281.629 90.1958C281.322 90.4344 281.091 90.7639 280.936 91.1844C280.78 91.6048 280.703 92.0859 280.703 92.6276C280.703 93.173 280.78 93.6598 280.936 94.0878C281.095 94.512 281.328 94.8473 281.634 95.0935C281.945 95.3359 282.326 95.4571 282.776 95.4571ZM296.838 88.2639L293.73 96.9912H291.457L288.349 88.2639H290.542L292.548 94.7469H292.639L294.65 88.2639H296.838ZM301.828 97.1617C300.953 97.1617 300.197 96.9798 299.561 96.6162C298.928 96.2488 298.441 95.7298 298.1 95.0594C297.759 94.3852 297.589 93.5916 297.589 92.6787C297.589 91.781 297.759 90.9931 298.1 90.3151C298.445 89.6333 298.926 89.103 299.543 88.7242C300.161 88.3416 300.886 88.1503 301.72 88.1503C302.257 88.1503 302.765 88.2374 303.242 88.4117C303.723 88.5821 304.148 88.8473 304.515 89.2071C304.886 89.567 305.178 90.0253 305.39 90.5821C305.602 91.1352 305.708 91.7942 305.708 92.5594V93.1901H298.555V91.8037H303.737C303.733 91.4098 303.648 91.0594 303.481 90.7526C303.314 90.442 303.081 90.1977 302.782 90.0196C302.487 89.8416 302.142 89.7526 301.748 89.7526C301.328 89.7526 300.958 89.8548 300.64 90.0594C300.322 90.2602 300.074 90.5253 299.896 90.8548C299.721 91.1806 299.632 91.5386 299.629 91.9287V93.1389C299.629 93.6465 299.721 94.0821 299.907 94.4458C300.093 94.8056 300.352 95.0821 300.686 95.2753C301.019 95.4647 301.409 95.5594 301.856 95.5594C302.155 95.5594 302.426 95.5177 302.668 95.4344C302.911 95.3473 303.121 95.2204 303.299 95.0537C303.477 94.887 303.612 94.6806 303.703 94.4344L305.623 94.6503C305.502 95.1579 305.271 95.6011 304.93 95.9798C304.593 96.3548 304.161 96.6465 303.634 96.8548C303.108 97.0594 302.506 97.1617 301.828 97.1617ZM309.505 91.8776V96.9912H307.448V88.2639H309.414V89.7469H309.516C309.717 89.2583 310.037 88.87 310.477 88.5821C310.92 88.2942 311.467 88.1503 312.119 88.1503C312.721 88.1503 313.246 88.2791 313.693 88.5367C314.143 88.7942 314.492 89.1673 314.738 89.656C314.988 90.1446 315.111 90.7374 315.107 91.4344V96.9912H313.051V91.7526C313.051 91.1692 312.899 90.7128 312.596 90.3833C312.297 90.0537 311.882 89.8889 311.352 89.8889C310.992 89.8889 310.672 89.9685 310.391 90.1276C310.115 90.2829 309.897 90.5083 309.738 90.8037C309.583 91.0992 309.505 91.4571 309.505 91.8776ZM321.556 88.2639V89.8548H316.539V88.2639H321.556ZM317.778 86.173H319.835V94.3662C319.835 94.6427 319.876 94.8548 319.96 95.0026C320.047 95.1465 320.16 95.245 320.301 95.298C320.441 95.3511 320.596 95.3776 320.766 95.3776C320.895 95.3776 321.013 95.3681 321.119 95.3492C321.229 95.3302 321.312 95.3132 321.369 95.298L321.715 96.906C321.605 96.9439 321.448 96.9855 321.244 97.031C321.043 97.0764 320.797 97.103 320.505 97.1105C319.99 97.1257 319.526 97.048 319.113 96.8776C318.7 96.7033 318.373 96.4344 318.13 96.0708C317.891 95.7071 317.774 95.2526 317.778 94.7071V86.173ZM328.839 93.3208V88.2639H330.896V96.9912H328.901V95.4401H328.811C328.614 95.9287 328.29 96.3283 327.839 96.6389C327.392 96.9495 326.841 97.1048 326.186 97.1048C325.614 97.1048 325.108 96.978 324.668 96.7242C324.233 96.4666 323.892 96.0935 323.646 95.6048C323.4 95.1124 323.276 94.5177 323.276 93.8208V88.2639H325.333V93.5026C325.333 94.0556 325.485 94.495 325.788 94.8208C326.091 95.1465 326.489 95.3094 326.981 95.3094C327.284 95.3094 327.578 95.2355 327.862 95.0878C328.146 94.9401 328.379 94.7204 328.561 94.4287C328.746 94.1333 328.839 93.7639 328.839 93.3208ZM333.011 96.9912V88.2639H335.005V89.7185H335.096C335.255 89.2147 335.528 88.8264 335.914 88.5537C336.304 88.2772 336.749 88.1389 337.249 88.1389C337.363 88.1389 337.49 88.1446 337.63 88.156C337.774 88.1636 337.893 88.1768 337.988 88.1958V90.0878C337.901 90.0575 337.763 90.031 337.573 90.0083C337.388 89.9817 337.208 89.9685 337.034 89.9685C336.659 89.9685 336.321 90.0499 336.022 90.2128C335.727 90.3719 335.494 90.5935 335.323 90.8776C335.153 91.1617 335.068 91.4893 335.068 91.8605V96.9912H333.011ZM342.859 97.1617C341.984 97.1617 341.228 96.9798 340.592 96.6162C339.959 96.2488 339.472 95.7298 339.132 95.0594C338.791 94.3852 338.62 93.5916 338.62 92.6787C338.62 91.781 338.791 90.9931 339.132 90.3151C339.476 89.6333 339.957 89.103 340.575 88.7242C341.192 88.3416 341.918 88.1503 342.751 88.1503C343.289 88.1503 343.796 88.2374 344.274 88.4117C344.755 88.5821 345.179 88.8473 345.546 89.2071C345.918 89.567 346.209 90.0253 346.421 90.5821C346.633 91.1352 346.739 91.7942 346.739 92.5594V93.1901H339.586V91.8037H344.768C344.764 91.4098 344.679 91.0594 344.512 90.7526C344.346 90.442 344.113 90.1977 343.813 90.0196C343.518 89.8416 343.173 89.7526 342.779 89.7526C342.359 89.7526 341.989 89.8548 341.671 90.0594C341.353 90.2602 341.105 90.5253 340.927 90.8548C340.753 91.1806 340.664 91.5386 340.66 91.9287V93.1389C340.66 93.6465 340.753 94.0821 340.938 94.4458C341.124 94.8056 341.383 95.0821 341.717 95.2753C342.05 95.4647 342.44 95.5594 342.887 95.5594C343.186 95.5594 343.457 95.5177 343.7 95.4344C343.942 95.3473 344.152 95.2204 344.33 95.0537C344.508 94.887 344.643 94.6806 344.734 94.4344L346.654 94.6503C346.533 95.1579 346.302 95.6011 345.961 95.9798C345.624 96.3548 345.192 96.6465 344.666 96.8548C344.139 97.0594 343.537 97.1617 342.859 97.1617Z" fill="#19181E"/>
</svg>
