<svg id="Layer_1" data-name="Layer 1" xmlns="http://www.w3.org/2000/svg" xmlns:xlink="http://www.w3.org/1999/xlink" viewBox="0 0 433 345"><defs><clipPath id="clip-path"><rect x="35.29" y="10.19" width="359" height="293" style="fill:none"/></clipPath><clipPath id="clip-path-2"><rect x="31.29" y="282.19" width="49" height="52.5" style="fill:none"/></clipPath></defs><path d="M44.29,330.19c50.54-1.83,177.25-28.81,231.89-105.5,65.9-92.5,89.19-121.5,153.11-157.5" style="fill:none;stroke:#19181e;stroke-linecap:round;stroke-width:4px;stroke-dasharray:20,20"/><g style="clip-path:url(#clip-path)"><path d="M120.52,228.5l-85.23,15L76.19,25.16l85.24-14.95Z" style="fill:#e3e3e3"/><path d="M44.49,233.57,82.59,30.23,160,17.69,121.91,221Z" style="fill:#73b4b2"/><path d="M190.62,293.52l-70.24-65,40.9-218.29,70.24,65Z" style="fill:#b3b3b3"/><path d="M159.54,17.61l-38.1,203.32L192,286,230.05,82.7Z" style="fill:#629997"/><path d="M231.38,75.21l89-35.13L279.51,258.37l-89,35.13Z" style="fill:#e3e3e3"/><path d="M230.05,82.7,192,286l89.32-35.28,38.1-203.34Z" style="fill:#73b4b2"/><path d="M279.36,258.33l74,44.86L394.29,84.9,320.27,40Z" style="fill:#b3b3b3"/><path d="M348.38,290.65l38.1-203.34L318.85,47.52l-38.1,203.35Z" style="fill:#629997"/><path d="M127.44,48.71,90.64,63.49,87.72,79.18l8.12,61.12,42.64-10.25,13.37-71.4Z" style="fill:#add660"/><path d="M170,122.53l6.35-28.25L162.92,63.11l-10.34-4.22L139.27,130Z" style="fill:#8eb04f"/><path d="M184.41,168.53l-28.84,30.18,16.05,58.75,25.69,0,14.22-75.92Z" style="fill:#8eb04f"/><path d="M229.72,257.52l47.42-25.9,6.15-32.91-13.06-33.4L218.59,185l-7.06-3.39-14.22,75.86Z" style="fill:#add660"/><path d="M295.87,102l-16.36,33.3,20.1,13.51,8.66-46.25Z" style="fill:#add660"/><path d="M313.35,157.93l29,6.21,27.82-41.2-3.65-17.71L309,102.63l-8.72,46.54Z" style="fill:#8eb04f"/><path d="M309,102.67l-.74-.1-8.66,46.25.72.21Z" style="fill:#73b4b2"/><path d="M236,112.94l24.56-19.37,13.37,9-10.09,20.5Z" style="fill:#add660"/><path d="M158.71,152.11l19.74-14.78,9.43,12.51Z" style="fill:#8eb04f"/><path d="M178.85,208.07s2.51,26,13,26.38S233,202,245.29,205s22.49,17.79,22.49,17.79" style="fill:none;stroke:#000;stroke-linecap:round;stroke-linejoin:round;stroke-dasharray:2,4"/><path d="M230.59,202.75c.6-3.19-1.07-6.19-3.73-6.69s-5.3,1.69-5.9,4.88,1.07,6.19,3.73,6.69S230,205.94,230.59,202.75Z" style="fill:#ff6650"/><path d="M253.94,227.07c.59-3.19-1.08-6.18-3.74-6.68s-5.3,1.68-5.9,4.88,1.08,6.18,3.74,6.68S253.34,230.27,253.94,227.07Z" style="fill:#ff6650"/><path d="M274.89,211.05c.59-3.19-1.08-6.19-3.74-6.69s-5.3,1.69-5.9,4.88,1.08,6.19,3.74,6.69S274.29,214.24,274.89,211.05Z" style="fill:#ff6650"/><path d="M187,222.49c.6-3.2-1.07-6.19-3.73-6.69s-5.3,1.68-5.9,4.88,1.07,6.18,3.73,6.68S186.43,225.68,187,222.49Z" style="fill:#ff6650"/></g><g style="clip-path:url(#clip-path-2)"><path d="M48.29,334.69c9.39,0,17-2.24,17-5s-7.61-5-17-5-17,2.24-17,5S38.9,334.69,48.29,334.69Z" style="fill:#ce5737"/><path d="M48.29,303.59V282.87l32,10.36Z" style="fill:#ce5737"/><path d="M48.29,284.69v40" style="fill:none;stroke:#19181e;stroke-linecap:round;stroke-linejoin:round;stroke-width:5px"/></g><path d="M44.29,330.19c50.54-1.83,177.25-28.81,231.89-105.5,65.9-92.5,89.19-121.5,153.11-157.5" style="fill:none;stroke:#19181e;stroke-linecap:round;stroke-width:4px;stroke-dasharray:20,20"/><polygon points="278.99 263.95 189.53 299.28 118.84 233.87 29.05 249.64 71.92 20.83 162.88 4.88 232.56 69.37 320.79 34.55 399.84 82.42 356.97 311.21 278.99 263.95" style="fill:#ebe2d4"/><polygon points="353.38 303.19 394.29 84.9 320.39 40.11 320.39 40.08 320.36 40.09 320.27 40.04 320.25 40.14 231.47 75.18 161.41 10.31 161.43 10.21 161.32 10.23 161.28 10.19 161.27 10.24 76.19 25.16 35.29 243.47 120.42 228.52 190.51 293.42 190.5 293.5 190.57 293.47 190.62 293.52 190.63 293.45 279.46 258.39 353.38 303.19" style="fill:#b3b3b3"/><path d="M120.52,228.5l-85.23,15L76.19,25.16l85.24-14.95Z" style="fill:#e3e3e3"/><path d="M44.49,233.57,82.59,30.23,160,17.69,121.91,221Z" style="fill:#73b4b2"/><path d="M190.62,293.52l-70.24-65,40.9-218.29,70.24,65Z" style="fill:#b3b3b3"/><path d="M159.54,17.61l-38.1,203.32L192,286,230.05,82.7Z" style="fill:#629997"/><path d="M231.38,75.21l89-35.13L279.51,258.37l-89,35.13Z" style="fill:#e3e3e3"/><path d="M230.05,82.7,192,286l89.32-35.28,38.1-203.34Z" style="fill:#73b4b2"/><path d="M279.36,258.33l74,44.86L394.29,84.9,320.27,40Z" style="fill:#b3b3b3"/><path d="M348.38,290.65l38.1-203.34L318.85,47.52l-38.1,203.35Z" style="fill:#629997"/><path d="M127.44,48.71,90.64,63.49,87.72,79.18l8.12,61.12,42.64-10.25,13.37-71.4Z" style="fill:#add660"/><path d="M170,122.53l6.35-28.25L162.92,63.11l-10.34-4.22L139.27,130Z" style="fill:#8eb04f"/><path d="M184.41,168.53l-28.84,30.18,16.05,58.75,25.69,0,14.22-75.92Z" style="fill:#8eb04f"/><path d="M229.72,257.52l47.42-25.9,6.15-32.91-13.06-33.4L218.59,185l-7.06-3.39-14.22,75.86Z" style="fill:#add660"/><path d="M295.87,102l-16.36,33.3,20.1,13.51,8.66-46.25Z" style="fill:#add660"/><path d="M313.35,157.93l29,6.21,27.82-41.2-3.65-17.71L309,102.63l-8.72,46.54Z" style="fill:#8eb04f"/><path d="M309,102.67l-.74-.1-8.66,46.25.72.21Z" style="fill:#73b4b2"/><path d="M236,112.94l24.56-19.37,13.37,9-10.09,20.5Z" style="fill:#add660"/><path d="M158.71,152.11l19.74-14.78,9.43,12.51Z" style="fill:#8eb04f"/><path d="M178.85,208.07s2.51,26,13,26.38S233,202,245.29,205s22.49,17.79,22.49,17.79" style="fill:none;stroke:#000;stroke-linecap:round;stroke-linejoin:round;stroke-dasharray:2,4"/><path d="M230.59,202.75c.6-3.19-1.07-6.19-3.73-6.69s-5.3,1.69-5.9,4.88,1.07,6.19,3.73,6.69S230,205.94,230.59,202.75Z" style="fill:#ff6650"/><path d="M253.94,227.07c.59-3.19-1.08-6.18-3.74-6.68s-5.3,1.68-5.9,4.88,1.08,6.18,3.74,6.68S253.34,230.27,253.94,227.07Z" style="fill:#ff6650"/><path d="M274.89,211.05c.59-3.19-1.08-6.19-3.74-6.69s-5.3,1.69-5.9,4.88,1.08,6.19,3.74,6.69S274.29,214.24,274.89,211.05Z" style="fill:#ff6650"/><path d="M187,222.49c.6-3.2-1.07-6.19-3.73-6.69s-5.3,1.68-5.9,4.88,1.07,6.18,3.73,6.68S186.43,225.68,187,222.49Z" style="fill:#ff6650"/><g style="clip-path:url(#clip-path-2)"><path d="M48.29,334.69c9.39,0,17-2.24,17-5s-7.61-5-17-5-17,2.24-17,5S38.9,334.69,48.29,334.69Z" style="fill:#ce5737"/><path d="M48.29,303.59V282.87l32,10.36Z" style="fill:#ce5737"/><path d="M48.29,284.69v40" style="fill:none;stroke:#19181e;stroke-linecap:round;stroke-linejoin:round;stroke-width:5px"/></g></svg>